<svg width="86" height="99" viewBox="0 0 86 99" fill="none" xmlns="http://www.w3.org/2000/svg">
<g style="mix-blend-mode:screen" opacity="0.83">
<path d="M8.75801 40.1943C13.1912 39.7243 12.5841 35.4947 9.41686 33.4692C7.09671 31.9983 5.1813 32.3413 3.72238 30.0621C2.52282 31.9947 1.88417 34.222 1.87756 36.4957C1.9811 39.5692 3.86356 42.3561 5.74604 42.2762C7.62851 42.1963 8.75801 40.1943 8.75801 40.1943Z" fill="url(#paint0_radial_16_1319)" stroke="white" stroke-width="2" stroke-miterlimit="10"/>
<path d="M5.20952 36.0916C4.42529 34.3015 3.93278 32.3976 3.75061 30.4521C4.69185 31.7821 5.85428 32.1628 6.90376 32.5481C7.73913 32.819 8.53992 33.1865 9.2898 33.6431C9.94478 34.0555 10.5111 34.5939 10.9558 35.2269C11.7041 36.3125 11.897 37.4874 11.4923 38.3803C11.0876 39.2732 10.1322 39.7901 8.72977 39.9452C8.69372 39.9483 8.65899 39.9603 8.62863 39.9799C8.59827 39.9996 8.57318 40.0264 8.55561 40.058L8.52269 40.1097C7.5336 39.2362 6.64637 38.254 5.87782 37.1819C5.63245 36.8328 5.40924 36.4686 5.20952 36.0916V36.0916Z" fill="url(#paint1_radial_16_1319)" stroke="white" stroke-width="2" stroke-miterlimit="10"/>
<path d="M10.4052 41.4162C9.34995 40.7109 8.35082 39.9253 7.41672 39.0664C7.03551 37.7928 7.22376 36.4347 7.61908 34.6065C7.09199 35.7673 6.57432 37.2336 6.84257 38.4837C6.62623 38.2528 6.4235 38.0096 6.23546 37.7552C3.88236 34.4232 3.72237 30.0621 3.72237 30.0621C3.5781 32.78 4.30508 35.4732 5.79779 37.7505C6.00233 38.0561 6.2305 38.3452 6.48019 38.6152C5.38365 38.2769 4.12709 38.5823 3.06349 39.0006C4.72948 38.6763 5.68013 38.6434 6.85668 39.0006C7.86859 39.9887 8.97158 40.8793 10.151 41.6605L10.4052 41.4162Z" fill="url(#paint2_radial_16_1319)" stroke="white" stroke-width="2" stroke-miterlimit="10"/>
<path d="M64.6957 36.0305C65.2417 39.8888 68.9313 39.2168 70.6067 36.383C71.8209 34.3105 71.4538 32.6233 73.4022 31.2934C71.6704 30.3041 69.697 29.8159 67.703 29.8835C65.0158 30.0621 62.6391 31.815 62.7709 33.4457C62.9027 35.0765 64.6957 36.0305 64.6957 36.0305Z" fill="url(#paint3_radial_16_1319)" stroke="white" stroke-width="2" stroke-miterlimit="10"/>
<path d="M68.1689 32.7972C69.7049 32.0506 71.3511 31.5556 73.0445 31.3309C71.9056 32.1815 71.6327 33.2107 71.3126 34.1507C71.1002 34.8902 70.8033 35.603 70.4279 36.2748C70.0887 36.8611 69.6359 37.3739 69.096 37.7834C68.1548 38.4695 67.1477 38.6857 66.3523 38.3567C65.557 38.0278 65.0675 37.2147 64.8934 36.007C64.8887 35.9751 64.8764 35.9448 64.8575 35.9187C64.8387 35.8925 64.8139 35.8712 64.7852 35.8566C64.7852 35.8566 64.7851 35.8566 64.7381 35.8284C65.4718 34.9346 66.3037 34.1259 67.2183 33.4175C67.5205 33.1892 67.8382 32.982 68.1689 32.7972V32.7972Z" fill="url(#paint4_radial_16_1319)" stroke="white" stroke-width="2" stroke-miterlimit="10"/>
<path d="M63.6933 37.5108C64.272 36.5657 64.9234 35.6669 65.6417 34.8227C66.7429 34.4467 67.9383 34.5689 69.5525 34.8509C68.5172 34.4279 67.1994 34.0238 66.1264 34.301C66.3227 34.1044 66.5301 33.9193 66.7476 33.7465C69.5714 31.5894 73.4022 31.2933 73.4022 31.2933C71.0164 31.2619 68.6819 31.9858 66.7335 33.3611C66.4769 33.5532 66.2331 33.762 66.0041 33.9862C66.2582 33.0181 65.9523 31.9513 65.5334 31.0161C65.8723 32.4635 65.9335 33.2906 65.6417 34.3339C64.8084 35.2529 64.0646 36.249 63.4204 37.3087L63.6933 37.5108Z" fill="url(#paint5_radial_16_1319)" stroke="white" stroke-width="2" stroke-miterlimit="10"/>
<path d="M74.6776 46.0499C73.0351 48.6487 75.6188 50.1291 78.0472 49.269C79.8309 48.6393 80.4662 47.4503 82.3204 47.6336C81.7848 46.1529 80.846 44.8509 79.6097 43.874C77.906 42.6145 75.5859 42.4641 74.8329 43.5027C74.0799 44.5413 74.6776 46.0499 74.6776 46.0499Z" fill="url(#paint6_radial_16_1319)" stroke="white" stroke-width="2" stroke-miterlimit="10"/>
<path d="M78.4143 45.876C79.7181 46.2085 80.9593 46.7497 82.0898 47.4785C81.1941 47.4571 80.3184 47.7442 79.6097 48.2916C79.105 48.6279 78.5634 48.9054 77.9954 49.1187C77.4939 49.2999 76.9608 49.3782 76.4283 49.349C76.0411 49.3545 75.659 49.2607 75.3187 49.0763C74.9783 48.892 74.6911 48.6234 74.4846 48.2963C74.1834 47.7041 74.2964 46.9569 74.8141 46.1345C74.8245 46.1124 74.8299 46.0884 74.8299 46.064C74.8299 46.0396 74.8245 46.0155 74.8141 45.9935V45.9512C75.7108 45.7867 76.6233 45.7237 77.5342 45.7632C77.8296 45.7824 78.1236 45.8201 78.4143 45.876V45.876Z" fill="url(#paint7_radial_16_1319)" stroke="white" stroke-width="2" stroke-miterlimit="10"/>
<path d="M73.3175 46.4306C74.1473 46.1575 74.9969 45.9486 75.8588 45.8055C76.7106 46.1392 77.3695 46.8206 78.2119 47.8122C77.8072 47.0321 77.2283 46.1298 76.4377 45.7397C76.6555 45.726 76.874 45.726 77.0918 45.7397C79.9155 45.8854 82.3392 47.6477 82.3392 47.6477C80.925 46.4099 79.1533 45.6528 77.2801 45.486C77.0279 45.4672 76.7746 45.4672 76.5224 45.486C77.1476 44.9689 77.5844 44.2602 77.7648 43.4698C77.4271 44.2916 76.8644 45.0017 76.1412 45.5189C75.1715 45.6459 74.2164 45.8662 73.2892 46.1768L73.3175 46.4306Z" fill="url(#paint8_radial_16_1319)" stroke="white" stroke-width="2" stroke-miterlimit="10"/>
<path d="M67.1665 59.984C66.2253 62.1552 68.3572 62.9823 70.1126 62.0377C71.3974 61.3516 71.7409 60.3694 73.1763 60.2895C72.5915 59.2317 71.7228 58.3577 70.6679 57.7659C69.2231 57.0045 67.4347 57.1596 66.9877 58.0478C66.5406 58.936 67.1665 59.984 67.1665 59.984Z" fill="url(#paint9_radial_16_1319)" stroke="white" stroke-width="2" stroke-miterlimit="10"/>
<path d="M69.9902 59.4107C71.0218 59.512 72.0306 59.777 72.9786 60.1955C72.2906 60.2939 71.6574 60.6258 71.1856 61.1354C70.8423 61.4511 70.4633 61.7255 70.0561 61.9532C69.6942 62.1482 69.2978 62.2711 68.889 62.315C68.5954 62.3644 68.294 62.3376 68.0138 62.2372C67.7336 62.1368 67.484 61.9662 67.2889 61.7417C67.1387 61.4867 67.0594 61.1963 67.0594 60.9005C67.0594 60.6046 67.1387 60.3142 67.2889 60.0592C67.2979 60.0418 67.3027 60.0225 67.3027 60.0028C67.3027 59.9832 67.2979 59.9639 67.2889 59.9464V59.9182C67.9514 59.6854 68.6381 59.5277 69.336 59.4483C69.5532 59.4233 69.7716 59.4108 69.9902 59.4107V59.4107Z" fill="url(#paint10_radial_16_1319)" stroke="white" stroke-width="2" stroke-miterlimit="10"/>
<path d="M66.1782 60.4352C66.7846 60.1283 67.414 59.8691 68.0607 59.6598C68.7525 59.8102 69.3313 60.2566 70.0749 60.9145C69.6946 60.3063 69.1383 59.8277 68.4795 59.5423C68.6438 59.5024 68.8104 59.4726 68.9784 59.453C70.4383 59.3707 71.8953 59.6584 73.2139 60.2895C71.9898 59.516 70.5507 59.1523 69.1054 59.2509C68.9107 59.2679 68.7174 59.2978 68.5266 59.3402C68.9428 58.8749 69.1927 58.2848 69.2372 57.6625C69.077 58.3267 68.7329 58.9325 68.2442 59.4107C67.5197 59.6228 66.8169 59.9029 66.1453 60.2472L66.1782 60.4352Z" fill="url(#paint11_radial_16_1319)" stroke="white" stroke-width="2" stroke-miterlimit="10"/>
<path d="M22.5707 40.0063C24.7449 40.9462 25.5732 38.822 24.6367 37.0644C23.9496 35.7814 22.966 35.4384 22.8907 34.005C21.831 34.5859 20.9543 35.45 20.3587 36.5005C19.5916 37.9432 19.7469 39.729 20.627 40.1802C21.5071 40.6313 22.5707 40.0063 22.5707 40.0063Z" fill="url(#paint12_radial_16_1319)" stroke="white" stroke-width="2" stroke-miterlimit="10"/>
<path d="M22.0059 37.1865C22.107 36.1553 22.3756 35.1473 22.8012 34.2023C22.8872 34.8876 23.2082 35.5219 23.7095 35.9976C24.0241 36.3433 24.2988 36.7232 24.5284 37.1301C24.7242 37.4907 24.8443 37.8872 24.8814 38.2956C24.9318 38.5888 24.9054 38.89 24.8048 39.17C24.7042 39.45 24.5328 39.6992 24.3072 39.8935C24.0517 40.043 23.761 40.1218 23.4648 40.1218C23.1687 40.1218 22.8779 40.043 22.6224 39.8935C22.6047 39.8854 22.5854 39.8813 22.5659 39.8813C22.5464 39.8813 22.5272 39.8854 22.5095 39.8935H22.4812C22.2477 39.2319 22.0899 38.5461 22.0106 37.8492C21.9961 37.6286 21.9946 37.4073 22.0059 37.1865Z" fill="url(#paint13_radial_16_1319)" stroke="white" stroke-width="2" stroke-miterlimit="10"/>
<path d="M23.0177 40.9791C22.7138 40.3727 22.4558 39.7443 22.2459 39.0993C22.4898 38.3334 22.9236 37.6414 23.5072 37.0879C22.9002 37.4701 22.4216 38.0249 22.133 38.681C22.0912 38.5189 22.0613 38.354 22.0436 38.1876C21.9636 36.7289 22.255 35.2738 22.8907 33.958C22.115 35.1785 21.7475 36.6135 21.8412 38.056C21.8582 38.2504 21.8881 38.4435 21.9306 38.634C21.4641 38.2185 20.8738 37.9675 20.2505 37.9197C20.9165 38.0829 21.5232 38.4297 22.0012 38.9207C22.2112 39.6428 22.4902 40.3431 22.8342 41.012L23.0177 40.9791Z" fill="url(#paint14_radial_16_1319)" stroke="white" stroke-width="2" stroke-miterlimit="10"/>
<path d="M12.5512 61.1542C15.3749 59.4154 13.5818 56.7696 10.8146 56.4547C8.79094 56.2197 7.6144 57.075 5.90605 56.0176C5.73106 57.6977 6.0276 59.3932 6.76255 60.9145C7.81203 62.9354 9.98629 64.1807 11.2052 63.5275C12.4241 62.8743 12.5512 61.1542 12.5512 61.1542Z" fill="url(#paint15_radial_16_1319)" stroke="white" stroke-width="2" stroke-miterlimit="10"/>
<path d="M8.85681 59.5564C7.74425 58.6189 6.79072 57.508 6.0331 56.2667C7.07787 56.8589 7.9956 56.7367 8.81918 56.6474C9.46681 56.5629 10.1218 56.5502 10.7722 56.6098C11.3425 56.6753 11.8943 56.8526 12.3959 57.1314C12.7729 57.3074 13.0981 57.5777 13.3397 57.9161C13.5813 58.2546 13.7312 58.6496 13.7748 59.0629C13.7748 59.782 13.3042 60.4493 12.4382 60.9992C12.4149 61.0126 12.3953 61.0317 12.3813 61.0547C12.3673 61.0777 12.3594 61.1039 12.3582 61.1307C12.3582 61.1307 12.3582 61.1307 12.3582 61.1777C11.4128 60.9151 10.5002 60.5462 9.63805 60.078C9.36746 59.9199 9.10656 59.7457 8.85681 59.5564V59.5564Z" fill="url(#paint16_radial_16_1319)" stroke="white" stroke-width="2" stroke-miterlimit="10"/>
<path d="M14.043 61.4221C13.1115 61.2956 12.191 61.0976 11.2899 60.8299C10.6217 60.1015 10.311 59.1334 9.9816 57.7846C10.0098 58.7245 10.1369 59.8806 10.7205 60.6278C10.501 60.5446 10.2872 60.4473 10.0804 60.3365C7.43556 58.8655 5.90605 56.0082 5.90605 56.0082C6.69145 57.8708 8.04947 59.436 9.78395 60.4774C10.0188 60.6145 10.2643 60.7323 10.5181 60.8299C9.6698 61.0368 8.9127 61.5155 8.36267 62.1928C9.36979 61.4361 9.99573 61.1072 10.904 60.9803C11.9022 61.3126 12.9296 61.5502 13.9724 61.6899L14.043 61.4221Z" fill="url(#paint17_radial_16_1319)" stroke="white" stroke-width="2" stroke-miterlimit="10"/>
<path d="M57.9847 16.3582C58.842 15.3224 59.361 14.0492 59.4721 12.71C59.5831 11.3708 59.2809 10.0297 58.6059 8.86715C56.3611 4.70336 50.5772 6.4375 50.5772 6.4375C50.5772 6.4375 49.8854 4.59998 47.344 4.21461C46.6538 4.09811 45.9463 4.13409 45.2714 4.32003C44.5965 4.50596 43.9707 4.83733 43.4379 5.29081C43.4379 5.29081 40.2895 -0.386236 33.922 1.3197C27.5545 3.02563 27.738 10.2488 27.738 10.2488C27.738 10.2488 26.4109 9.92456 24.9143 11.4049C24.4866 11.8294 24.1646 12.3481 23.9741 12.9195C23.7837 13.4908 23.7301 14.0988 23.8178 14.6946C22.6638 15.3375 21.7222 16.302 21.1079 17.4703C20.4937 18.6386 20.2334 19.9603 20.3587 21.2739C20.7023 25.6727 24.8155 26.2461 24.8155 26.2461C24.8155 26.2461 26.1709 30.7905 30.9712 31.3028C35.7715 31.815 38.8164 27.8298 38.8164 27.8298C39.4414 28.3342 40.2115 28.6256 41.0142 28.6616C40.8213 34.0144 40.2471 39.3343 38.7788 42.4595L40.8966 41.731L42.0637 43.8505L43.2261 41.731L45.3486 42.4595C43.8568 39.292 43.292 33.8687 43.1085 28.4454C43.7914 28.1887 44.395 27.7577 44.8592 27.1954C45.8308 28.1342 47.0504 28.777 48.3749 29.0484C49.6994 29.3197 51.0739 29.2084 52.3373 28.7274C57.1753 27.0779 56.3799 22.9799 56.3799 22.9799C56.3799 22.9799 59.2036 22.43 59.5001 19.8077C59.6978 17.9185 57.9847 16.3582 57.9847 16.3582Z" fill="url(#paint18_radial_16_1319)" stroke="white" stroke-width="2" stroke-miterlimit="10"/>
<path d="M46.8452 18.9242C42.9955 18.9242 40.2565 17.848 37.5787 16.8047C35.075 15.8225 32.7078 14.8967 29.6488 14.8967C28.8226 14.8974 27.9979 14.965 27.1827 15.0988C25.5442 15.3784 23.9514 15.8796 22.4483 16.5885C22.9123 16.0449 23.4682 15.5869 24.0907 15.235L24.5096 15.0283L24.4155 14.5583C24.344 14.0591 24.3921 13.5501 24.5557 13.0731C24.7193 12.596 24.9938 12.1644 25.3567 11.8138C25.6122 11.5175 25.9246 11.2754 26.2754 11.1019C26.6263 10.9283 27.0084 10.8268 27.3992 10.8034C27.4635 10.7997 27.5279 10.7997 27.5921 10.8034L28.3545 10.9773V10.2018C28.3545 9.92456 28.2557 3.4392 34.0867 1.87895C34.7955 1.68654 35.5264 1.58702 36.261 1.58289C40.6189 1.58289 42.8967 5.52109 42.9155 5.55869L43.3014 6.24952L43.8709 5.69968C44.6271 5.0854 45.5739 4.75309 46.5487 4.75977C46.7819 4.75845 47.0148 4.77573 47.2452 4.81147C49.3959 5.14043 49.9795 6.59259 50.003 6.65368L50.2007 7.17064L50.7372 7.01555C51.5647 6.79541 52.4174 6.68325 53.2738 6.68188C54.8504 6.68188 56.9635 7.11424 58.0647 9.15384C58.6834 10.2058 58.9625 11.4225 58.8639 12.6384C58.7654 13.8544 58.2941 15.0105 57.5141 15.9494C57.4812 15.987 55.0857 18.7691 47.1981 18.9242H46.8452Z" fill="url(#paint19_radial_16_1319)" stroke="white" stroke-width="2" stroke-miterlimit="10"/>
<path d="M55.6316 44.3017H27.4274C25.2182 44.3017 23.4272 46.0901 23.4272 48.2963V93.7737C23.4272 95.9799 25.2182 97.7683 27.4274 97.7683H55.6316C57.8409 97.7683 59.6319 95.9799 59.6319 93.7737V48.2963C59.6319 46.0901 57.8409 44.3017 55.6316 44.3017Z" fill="url(#paint20_radial_16_1319)" stroke="white" stroke-width="2" stroke-miterlimit="10"/>
<path d="M49.6359 43.8505H33.4184V43.6672C33.4184 43.4136 33.4684 43.1624 33.5657 42.9281C33.6629 42.6937 33.8053 42.4808 33.9849 42.3014C34.1646 42.1221 34.3778 41.9798 34.6125 41.8828C34.8471 41.7857 35.0986 41.7357 35.3526 41.7357H47.7017C48.2147 41.7357 48.7067 41.9392 49.0694 42.3014C49.4322 42.6637 49.6359 43.155 49.6359 43.6672V43.8505Z" fill="url(#paint21_radial_16_1319)" stroke="white" stroke-width="2" stroke-miterlimit="10"/>
<path d="M23.4272 71.0233V93.7643C23.4272 94.8225 23.8481 95.8374 24.5974 96.5856C25.3468 97.3339 26.363 97.7542 27.4227 97.7542H55.6316C56.6917 97.7542 57.7085 97.334 58.4586 96.5859C59.2086 95.8378 59.6306 94.8229 59.6319 93.7643V71.0233H23.4272Z" fill="url(#paint22_radial_16_1319)" stroke="white" stroke-width="2" stroke-miterlimit="10"/>
<path d="M48.9912 71.6624C48.9956 71.7819 48.9763 71.9011 48.9344 72.0131C48.8924 72.1252 48.8288 72.2278 48.747 72.3152C48.6652 72.4025 48.5669 72.4729 48.4578 72.5221C48.3486 72.5714 48.2309 72.5987 48.1111 72.6023H34.9244C34.8047 72.5987 34.6869 72.5714 34.5778 72.5221C34.4686 72.4729 34.3704 72.4025 34.2886 72.3152C34.2068 72.2278 34.1431 72.1252 34.1012 72.0131C34.0592 71.9011 34.0399 71.7819 34.0443 71.6624V70.4123C34.0399 70.2928 34.0592 70.1736 34.1012 70.0616C34.1431 69.9495 34.2068 69.8469 34.2886 69.7595C34.3704 69.6722 34.4686 69.6018 34.5778 69.5526C34.6869 69.5033 34.8047 69.476 34.9244 69.4724H48.1017C48.2214 69.476 48.3392 69.5033 48.4484 69.5526C48.5575 69.6018 48.6558 69.6722 48.7376 69.7595C48.8194 69.8469 48.8831 69.9495 48.925 70.0616C48.9669 70.1736 48.9862 70.2928 48.9818 70.4123L48.9912 71.6624Z" fill="url(#paint23_radial_16_1319)" stroke="white" stroke-width="2" stroke-miterlimit="10"/>
<path d="M48.9912 66.0699C48.9956 66.1894 48.9763 66.3086 48.9344 66.4207C48.8924 66.5327 48.8288 66.6354 48.747 66.7227C48.6652 66.8101 48.5669 66.8804 48.4578 66.9297C48.3486 66.979 48.2309 67.0062 48.1111 67.0098H34.9244C34.8047 67.0062 34.6869 66.979 34.5778 66.9297C34.4686 66.8804 34.3704 66.8101 34.2886 66.7227C34.2068 66.6354 34.1431 66.5327 34.1012 66.4207C34.0592 66.3086 34.0399 66.1894 34.0443 66.0699V64.8199C34.0399 64.7003 34.0592 64.5811 34.1012 64.4691C34.1431 64.3571 34.2068 64.2544 34.2886 64.1671C34.3704 64.0797 34.4686 64.0094 34.5778 63.9601C34.6869 63.9108 34.8047 63.8836 34.9244 63.8799H48.1017C48.2214 63.8836 48.3392 63.9108 48.4484 63.9601C48.5575 64.0094 48.6558 64.0797 48.7376 64.1671C48.8194 64.2544 48.8831 64.3571 48.925 64.4691C48.9669 64.5811 48.9862 64.7003 48.9818 64.8199L48.9912 66.0699Z" fill="url(#paint24_radial_16_1319)" stroke="white" stroke-width="2" stroke-miterlimit="10"/>
<path d="M48.9912 60.4775C48.9956 60.597 48.9763 60.7162 48.9344 60.8282C48.8924 60.9402 48.8288 61.0429 48.747 61.1302C48.6652 61.2176 48.5669 61.2879 48.4578 61.3372C48.3486 61.3865 48.2309 61.4137 48.1111 61.4174H34.9244C34.8047 61.4137 34.6869 61.3865 34.5778 61.3372C34.4686 61.2879 34.3704 61.2176 34.2886 61.1302C34.2068 61.0429 34.1431 60.9402 34.1012 60.8282C34.0592 60.7162 34.0399 60.597 34.0443 60.4775V59.2274C34.0399 59.1079 34.0592 58.9887 34.1012 58.8766C34.1431 58.7646 34.2068 58.662 34.2886 58.5746C34.3704 58.4873 34.4686 58.4169 34.5778 58.3676C34.6869 58.3184 34.8047 58.2911 34.9244 58.2875H48.1017C48.2214 58.2911 48.3392 58.3184 48.4484 58.3676C48.5575 58.4169 48.6558 58.4873 48.7376 58.5746C48.8194 58.662 48.8831 58.7646 48.925 58.8766C48.9669 58.9887 48.9862 59.1079 48.9818 59.2274L48.9912 60.4775Z" fill="url(#paint25_radial_16_1319)" stroke="white" stroke-width="2" stroke-miterlimit="10"/>
<path d="M48.9912 76.0047C48.9956 75.8852 48.9763 75.766 48.9344 75.654C48.8924 75.542 48.8288 75.4393 48.747 75.3519C48.6652 75.2646 48.5669 75.1943 48.4578 75.145C48.3486 75.0957 48.2309 75.0685 48.1111 75.0648H34.9244C34.8047 75.0685 34.6869 75.0957 34.5778 75.145C34.4686 75.1943 34.3704 75.2646 34.2886 75.3519C34.2068 75.4393 34.1431 75.542 34.1012 75.654C34.0592 75.766 34.0399 75.8852 34.0443 76.0047V77.2548C34.0399 77.3743 34.0592 77.4935 34.1012 77.6056C34.1431 77.7176 34.2068 77.8202 34.2886 77.9076C34.3704 77.9949 34.4686 78.0653 34.5778 78.1146C34.6869 78.1638 34.8047 78.1911 34.9244 78.1947H48.1017C48.2214 78.1911 48.3392 78.1638 48.4484 78.1146C48.5575 78.0653 48.6558 77.9949 48.7376 77.9076C48.8194 77.8202 48.8831 77.7176 48.925 77.6056C48.9669 77.4935 48.9862 77.3743 48.9818 77.2548L48.9912 76.0047Z" fill="url(#paint26_radial_16_1319)" stroke="white" stroke-width="2" stroke-miterlimit="10"/>
<path d="M48.9912 81.5972C48.9956 81.4777 48.9763 81.3585 48.9344 81.2465C48.8924 81.1344 48.8288 81.0318 48.747 80.9444C48.6652 80.8571 48.5669 80.7867 48.4578 80.7374C48.3486 80.6882 48.2309 80.6609 48.1111 80.6573H34.9244C34.8047 80.6609 34.6869 80.6882 34.5778 80.7374C34.4686 80.7867 34.3704 80.8571 34.2886 80.9444C34.2068 81.0318 34.1431 81.1344 34.1012 81.2465C34.0592 81.3585 34.0399 81.4777 34.0443 81.5972V82.8473C34.0399 82.9668 34.0592 83.086 34.1012 83.198C34.1431 83.31 34.2068 83.4127 34.2886 83.5C34.3704 83.5874 34.4686 83.6577 34.5778 83.707C34.6869 83.7563 34.8047 83.7835 34.9244 83.7872H48.1017C48.2214 83.7835 48.3392 83.7563 48.4484 83.707C48.5575 83.6577 48.6558 83.5874 48.7376 83.5C48.8194 83.4127 48.8831 83.31 48.925 83.198C48.9669 83.086 48.9862 82.9668 48.9818 82.8473L48.9912 81.5972Z" fill="url(#paint27_radial_16_1319)" stroke="white" stroke-width="2" stroke-miterlimit="10"/>
<path d="M44.718 48.9072H38.3411V50.8763H44.718V48.9072Z" fill="url(#paint28_radial_16_1319)" stroke="white" stroke-width="2" stroke-miterlimit="10"/>
<path d="M44.718 91.8704H38.3411V93.8395H44.718V91.8704Z" fill="url(#paint29_radial_16_1319)" stroke="white" stroke-width="2" stroke-miterlimit="10"/>
<path d="M42.5155 46.7078H40.5436V53.071H42.5155V46.7078Z" fill="url(#paint30_radial_16_1319)" stroke="white" stroke-width="2" stroke-miterlimit="10"/>
</g>
<defs>
<radialGradient id="paint0_radial_16_1319" cx="0" cy="0" r="1" gradientUnits="userSpaceOnUse" gradientTransform="translate(6.90847 36.1668) scale(5.60036 5.59245)">
<stop offset="0.09" stop-color="white"/>
<stop offset="0.11" stop-color="#9A659E"/>
<stop offset="0.13" stop-color="#5B0663"/>
<stop offset="0.15" stop-color="#510558"/>
<stop offset="0.21" stop-color="#38043D"/>
<stop offset="0.29" stop-color="#230226"/>
<stop offset="0.37" stop-color="#130115"/>
<stop offset="0.48" stop-color="#080109"/>
<stop offset="0.62" stop-color="#020002"/>
<stop offset="1"/>
</radialGradient>
<radialGradient id="paint1_radial_16_1319" cx="0" cy="0" r="1" gradientUnits="userSpaceOnUse" gradientTransform="translate(7.72734 35.2974) scale(4.42853 4.42226)">
<stop offset="0.09" stop-color="white"/>
<stop offset="0.11" stop-color="#9A659E"/>
<stop offset="0.13" stop-color="#5B0663"/>
<stop offset="0.15" stop-color="#510558"/>
<stop offset="0.21" stop-color="#38043D"/>
<stop offset="0.29" stop-color="#230226"/>
<stop offset="0.37" stop-color="#130115"/>
<stop offset="0.48" stop-color="#080109"/>
<stop offset="0.62" stop-color="#020002"/>
<stop offset="1"/>
</radialGradient>
<radialGradient id="paint2_radial_16_1319" cx="0" cy="0" r="1" gradientUnits="userSpaceOnUse" gradientTransform="translate(6.73433 35.8707) scale(4.8615 4.85462)">
<stop offset="0.09" stop-color="white"/>
<stop offset="0.11" stop-color="#9A659E"/>
<stop offset="0.13" stop-color="#5B0663"/>
<stop offset="0.15" stop-color="#510558"/>
<stop offset="0.21" stop-color="#38043D"/>
<stop offset="0.29" stop-color="#230226"/>
<stop offset="0.37" stop-color="#130115"/>
<stop offset="0.48" stop-color="#080109"/>
<stop offset="0.62" stop-color="#020002"/>
<stop offset="1"/>
</radialGradient>
<radialGradient id="paint3_radial_16_1319" cx="0" cy="0" r="1" gradientUnits="userSpaceOnUse" gradientTransform="translate(68.0842 34.3011) scale(4.88974 4.88282)">
<stop offset="0.09" stop-color="white"/>
<stop offset="0.11" stop-color="#9A659E"/>
<stop offset="0.13" stop-color="#5B0663"/>
<stop offset="0.15" stop-color="#510558"/>
<stop offset="0.21" stop-color="#38043D"/>
<stop offset="0.29" stop-color="#230226"/>
<stop offset="0.37" stop-color="#130115"/>
<stop offset="0.48" stop-color="#080109"/>
<stop offset="0.62" stop-color="#020002"/>
<stop offset="1"/>
</radialGradient>
<radialGradient id="paint4_radial_16_1319" cx="0" cy="0" r="1" gradientUnits="userSpaceOnUse" gradientTransform="translate(68.8937 34.9214) scale(3.88261 3.87711)">
<stop offset="0.09" stop-color="white"/>
<stop offset="0.11" stop-color="#9A659E"/>
<stop offset="0.13" stop-color="#5B0663"/>
<stop offset="0.15" stop-color="#510558"/>
<stop offset="0.21" stop-color="#38043D"/>
<stop offset="0.29" stop-color="#230226"/>
<stop offset="0.37" stop-color="#130115"/>
<stop offset="0.48" stop-color="#080109"/>
<stop offset="0.62" stop-color="#020002"/>
<stop offset="1"/>
</radialGradient>
<radialGradient id="paint5_radial_16_1319" cx="0" cy="0" r="1" gradientUnits="userSpaceOnUse" gradientTransform="translate(68.423 34.2634) scale(4.20734 4.20139)">
<stop offset="0.09" stop-color="white"/>
<stop offset="0.11" stop-color="#9A659E"/>
<stop offset="0.13" stop-color="#5B0663"/>
<stop offset="0.15" stop-color="#510558"/>
<stop offset="0.21" stop-color="#38043D"/>
<stop offset="0.29" stop-color="#230226"/>
<stop offset="0.37" stop-color="#130115"/>
<stop offset="0.48" stop-color="#080109"/>
<stop offset="0.62" stop-color="#020002"/>
<stop offset="1"/>
</radialGradient>
<radialGradient id="paint6_radial_16_1319" cx="0" cy="0" r="1" gradientUnits="userSpaceOnUse" gradientTransform="translate(78.2402 46.1768) scale(3.73202 3.72673)">
<stop offset="0.09" stop-color="white"/>
<stop offset="0.11" stop-color="#9A659E"/>
<stop offset="0.13" stop-color="#5B0663"/>
<stop offset="0.15" stop-color="#510558"/>
<stop offset="0.21" stop-color="#38043D"/>
<stop offset="0.29" stop-color="#230226"/>
<stop offset="0.37" stop-color="#130115"/>
<stop offset="0.48" stop-color="#080109"/>
<stop offset="0.62" stop-color="#020002"/>
<stop offset="1"/>
</radialGradient>
<radialGradient id="paint7_radial_16_1319" cx="0" cy="0" r="1" gradientUnits="userSpaceOnUse" gradientTransform="translate(78.2025 47.5537) scale(3.03078 3.0265)">
<stop offset="0.09" stop-color="white"/>
<stop offset="0.11" stop-color="#9A659E"/>
<stop offset="0.13" stop-color="#5B0663"/>
<stop offset="0.15" stop-color="#510558"/>
<stop offset="0.21" stop-color="#38043D"/>
<stop offset="0.29" stop-color="#230226"/>
<stop offset="0.37" stop-color="#130115"/>
<stop offset="0.48" stop-color="#080109"/>
<stop offset="0.62" stop-color="#020002"/>
<stop offset="1"/>
</radialGradient>
<radialGradient id="paint8_radial_16_1319" cx="0" cy="0" r="1" gradientUnits="userSpaceOnUse" gradientTransform="translate(77.7978 45.6457) scale(3.54846 3.54345)">
<stop offset="0.09" stop-color="white"/>
<stop offset="0.11" stop-color="#9A659E"/>
<stop offset="0.13" stop-color="#5B0663"/>
<stop offset="0.15" stop-color="#510558"/>
<stop offset="0.21" stop-color="#38043D"/>
<stop offset="0.29" stop-color="#230226"/>
<stop offset="0.37" stop-color="#130115"/>
<stop offset="0.48" stop-color="#080109"/>
<stop offset="0.62" stop-color="#020002"/>
<stop offset="1"/>
</radialGradient>
<radialGradient id="paint9_radial_16_1319" cx="0" cy="0" r="1" gradientUnits="userSpaceOnUse" gradientTransform="translate(69.9996 59.8525) scale(2.8896 2.88551)">
<stop offset="0.09" stop-color="white"/>
<stop offset="0.11" stop-color="#9A659E"/>
<stop offset="0.13" stop-color="#5B0663"/>
<stop offset="0.15" stop-color="#510558"/>
<stop offset="0.21" stop-color="#38043D"/>
<stop offset="0.29" stop-color="#230226"/>
<stop offset="0.37" stop-color="#130115"/>
<stop offset="0.48" stop-color="#080109"/>
<stop offset="0.62" stop-color="#020002"/>
<stop offset="1"/>
</radialGradient>
<radialGradient id="paint10_radial_16_1319" cx="0" cy="0" r="1" gradientUnits="userSpaceOnUse" gradientTransform="translate(70.0184 60.8535) scale(2.32957 2.32627)">
<stop offset="0.09" stop-color="white"/>
<stop offset="0.11" stop-color="#9A659E"/>
<stop offset="0.13" stop-color="#5B0663"/>
<stop offset="0.15" stop-color="#510558"/>
<stop offset="0.21" stop-color="#38043D"/>
<stop offset="0.29" stop-color="#230226"/>
<stop offset="0.37" stop-color="#130115"/>
<stop offset="0.48" stop-color="#080109"/>
<stop offset="0.62" stop-color="#020002"/>
<stop offset="1"/>
</radialGradient>
<radialGradient id="paint11_radial_16_1319" cx="0" cy="0" r="1" gradientUnits="userSpaceOnUse" gradientTransform="translate(69.642 59.2885) scale(2.74841 2.74452)">
<stop offset="0.09" stop-color="white"/>
<stop offset="0.11" stop-color="#9A659E"/>
<stop offset="0.13" stop-color="#5B0663"/>
<stop offset="0.15" stop-color="#510558"/>
<stop offset="0.21" stop-color="#38043D"/>
<stop offset="0.29" stop-color="#230226"/>
<stop offset="0.37" stop-color="#130115"/>
<stop offset="0.48" stop-color="#080109"/>
<stop offset="0.62" stop-color="#020002"/>
<stop offset="1"/>
</radialGradient>
<radialGradient id="paint12_radial_16_1319" cx="0" cy="0" r="1" gradientUnits="userSpaceOnUse" gradientTransform="translate(22.4389 37.1584) scale(2.88961 2.88551)">
<stop offset="0.09" stop-color="white"/>
<stop offset="0.11" stop-color="#9A659E"/>
<stop offset="0.13" stop-color="#5B0663"/>
<stop offset="0.15" stop-color="#510558"/>
<stop offset="0.21" stop-color="#38043D"/>
<stop offset="0.29" stop-color="#230226"/>
<stop offset="0.37" stop-color="#130115"/>
<stop offset="0.48" stop-color="#080109"/>
<stop offset="0.62" stop-color="#020002"/>
<stop offset="1"/>
</radialGradient>
<radialGradient id="paint13_radial_16_1319" cx="0" cy="0" r="1" gradientUnits="userSpaceOnUse" gradientTransform="translate(23.446 37.1442) scale(2.32956 2.32627)">
<stop offset="0.09" stop-color="white"/>
<stop offset="0.11" stop-color="#9A659E"/>
<stop offset="0.13" stop-color="#5B0663"/>
<stop offset="0.15" stop-color="#510558"/>
<stop offset="0.21" stop-color="#38043D"/>
<stop offset="0.29" stop-color="#230226"/>
<stop offset="0.37" stop-color="#130115"/>
<stop offset="0.48" stop-color="#080109"/>
<stop offset="0.62" stop-color="#020002"/>
<stop offset="1"/>
</radialGradient>
<radialGradient id="paint14_radial_16_1319" cx="0" cy="0" r="1" gradientUnits="userSpaceOnUse" gradientTransform="translate(21.8788 37.5156) scale(2.74841 2.74453)">
<stop offset="0.09" stop-color="white"/>
<stop offset="0.11" stop-color="#9A659E"/>
<stop offset="0.13" stop-color="#5B0663"/>
<stop offset="0.15" stop-color="#510558"/>
<stop offset="0.21" stop-color="#38043D"/>
<stop offset="0.29" stop-color="#230226"/>
<stop offset="0.37" stop-color="#130115"/>
<stop offset="0.48" stop-color="#080109"/>
<stop offset="0.62" stop-color="#020002"/>
<stop offset="1"/>
</radialGradient>
<radialGradient id="paint15_radial_16_1319" cx="0" cy="0" r="1" gradientUnits="userSpaceOnUse" gradientTransform="translate(9.91572 59.8525) scale(3.9532 3.94761)">
<stop offset="0.09" stop-color="white"/>
<stop offset="0.11" stop-color="#9A659E"/>
<stop offset="0.13" stop-color="#5B0663"/>
<stop offset="0.15" stop-color="#510558"/>
<stop offset="0.21" stop-color="#38043D"/>
<stop offset="0.29" stop-color="#230226"/>
<stop offset="0.37" stop-color="#130115"/>
<stop offset="0.48" stop-color="#080109"/>
<stop offset="0.62" stop-color="#020002"/>
<stop offset="1"/>
</radialGradient>
<radialGradient id="paint16_radial_16_1319" cx="0" cy="0" r="1" gradientUnits="userSpaceOnUse" gradientTransform="translate(9.92982 58.7293) scale(3.24257 3.23798)">
<stop offset="0.09" stop-color="white"/>
<stop offset="0.11" stop-color="#9A659E"/>
<stop offset="0.13" stop-color="#5B0663"/>
<stop offset="0.15" stop-color="#510558"/>
<stop offset="0.21" stop-color="#38043D"/>
<stop offset="0.29" stop-color="#230226"/>
<stop offset="0.37" stop-color="#130115"/>
<stop offset="0.48" stop-color="#080109"/>
<stop offset="0.62" stop-color="#020002"/>
<stop offset="1"/>
</radialGradient>
<radialGradient id="paint17_radial_16_1319" cx="0" cy="0" r="1" gradientUnits="userSpaceOnUse" gradientTransform="translate(9.9769 59.1005) scale(3.61435 3.60925)">
<stop offset="0.09" stop-color="white"/>
<stop offset="0.11" stop-color="#9A659E"/>
<stop offset="0.13" stop-color="#5B0663"/>
<stop offset="0.15" stop-color="#510558"/>
<stop offset="0.21" stop-color="#38043D"/>
<stop offset="0.29" stop-color="#230226"/>
<stop offset="0.37" stop-color="#130115"/>
<stop offset="0.48" stop-color="#080109"/>
<stop offset="0.62" stop-color="#020002"/>
<stop offset="1"/>
</radialGradient>
<radialGradient id="paint18_radial_16_1319" cx="0" cy="0" r="1" gradientUnits="userSpaceOnUse" gradientTransform="translate(39.9224 22.4253) scale(20.5425 20.5135)">
<stop offset="0.09" stop-color="white"/>
<stop offset="0.11" stop-color="#9A659E"/>
<stop offset="0.13" stop-color="#5B0663"/>
<stop offset="0.15" stop-color="#510558"/>
<stop offset="0.21" stop-color="#38043D"/>
<stop offset="0.29" stop-color="#230226"/>
<stop offset="0.37" stop-color="#130115"/>
<stop offset="0.48" stop-color="#080109"/>
<stop offset="0.62" stop-color="#020002"/>
<stop offset="1"/>
</radialGradient>
<radialGradient id="paint19_radial_16_1319" cx="0" cy="0" r="1" gradientUnits="userSpaceOnUse" gradientTransform="translate(40.6659 10.2676) scale(14.2692 14.249)">
<stop offset="0.09" stop-color="white"/>
<stop offset="0.11" stop-color="#9A659E"/>
<stop offset="0.13" stop-color="#5B0663"/>
<stop offset="0.15" stop-color="#510558"/>
<stop offset="0.21" stop-color="#38043D"/>
<stop offset="0.29" stop-color="#230226"/>
<stop offset="0.37" stop-color="#130115"/>
<stop offset="0.48" stop-color="#080109"/>
<stop offset="0.62" stop-color="#020002"/>
<stop offset="1"/>
</radialGradient>
<radialGradient id="paint20_radial_16_1319" cx="0" cy="0" r="1" gradientUnits="userSpaceOnUse" gradientTransform="translate(41.5272 71.0374) scale(22.8532 22.821)">
<stop offset="0.09" stop-color="white"/>
<stop offset="0.11" stop-color="#9A659E"/>
<stop offset="0.13" stop-color="#5B0663"/>
<stop offset="0.15" stop-color="#510558"/>
<stop offset="0.21" stop-color="#38043D"/>
<stop offset="0.29" stop-color="#230226"/>
<stop offset="0.37" stop-color="#130115"/>
<stop offset="0.48" stop-color="#080109"/>
<stop offset="0.62" stop-color="#020002"/>
<stop offset="1"/>
</radialGradient>
<radialGradient id="paint21_radial_16_1319" cx="0" cy="0" r="1" gradientUnits="userSpaceOnUse" gradientTransform="translate(41.5272 42.7931) scale(5.78391 5.77573)">
<stop offset="0.09" stop-color="white"/>
<stop offset="0.11" stop-color="#9A659E"/>
<stop offset="0.13" stop-color="#5B0663"/>
<stop offset="0.15" stop-color="#510558"/>
<stop offset="0.21" stop-color="#38043D"/>
<stop offset="0.29" stop-color="#230226"/>
<stop offset="0.37" stop-color="#130115"/>
<stop offset="0.48" stop-color="#080109"/>
<stop offset="0.62" stop-color="#020002"/>
<stop offset="1"/>
</radialGradient>
<radialGradient id="paint22_radial_16_1319" cx="0" cy="0" r="1" gradientUnits="userSpaceOnUse" gradientTransform="translate(41.5272 84.4028) scale(15.921 15.8985)">
<stop offset="0.09" stop-color="white"/>
<stop offset="0.11" stop-color="#9A659E"/>
<stop offset="0.13" stop-color="#5B0663"/>
<stop offset="0.15" stop-color="#510558"/>
<stop offset="0.21" stop-color="#38043D"/>
<stop offset="0.29" stop-color="#230226"/>
<stop offset="0.37" stop-color="#130115"/>
<stop offset="0.48" stop-color="#080109"/>
<stop offset="0.62" stop-color="#020002"/>
<stop offset="1"/>
</radialGradient>
<radialGradient id="paint23_radial_16_1319" cx="0" cy="0" r="1" gradientUnits="userSpaceOnUse" gradientTransform="translate(41.5272 71.0374) scale(5.38859 5.38095)">
<stop offset="0.09" stop-color="white"/>
<stop offset="0.11" stop-color="#9A659E"/>
<stop offset="0.13" stop-color="#5B0663"/>
<stop offset="0.15" stop-color="#510558"/>
<stop offset="0.21" stop-color="#38043D"/>
<stop offset="0.29" stop-color="#230226"/>
<stop offset="0.37" stop-color="#130115"/>
<stop offset="0.48" stop-color="#080109"/>
<stop offset="0.62" stop-color="#020002"/>
<stop offset="1"/>
</radialGradient>
<radialGradient id="paint24_radial_16_1319" cx="0" cy="0" r="1" gradientUnits="userSpaceOnUse" gradientTransform="translate(41.5272 65.4449) scale(5.38859 5.38097)">
<stop offset="0.09" stop-color="white"/>
<stop offset="0.11" stop-color="#9A659E"/>
<stop offset="0.13" stop-color="#5B0663"/>
<stop offset="0.15" stop-color="#510558"/>
<stop offset="0.21" stop-color="#38043D"/>
<stop offset="0.29" stop-color="#230226"/>
<stop offset="0.37" stop-color="#130115"/>
<stop offset="0.48" stop-color="#080109"/>
<stop offset="0.62" stop-color="#020002"/>
<stop offset="1"/>
</radialGradient>
<radialGradient id="paint25_radial_16_1319" cx="0" cy="0" r="1" gradientUnits="userSpaceOnUse" gradientTransform="translate(41.5272 59.8524) scale(5.38859 5.38097)">
<stop offset="0.09" stop-color="white"/>
<stop offset="0.11" stop-color="#9A659E"/>
<stop offset="0.13" stop-color="#5B0663"/>
<stop offset="0.15" stop-color="#510558"/>
<stop offset="0.21" stop-color="#38043D"/>
<stop offset="0.29" stop-color="#230226"/>
<stop offset="0.37" stop-color="#130115"/>
<stop offset="0.48" stop-color="#080109"/>
<stop offset="0.62" stop-color="#020002"/>
<stop offset="1"/>
</radialGradient>
<radialGradient id="paint26_radial_16_1319" cx="0" cy="0" r="1" gradientUnits="userSpaceOnUse" gradientTransform="translate(41.5272 76.6298) scale(5.38859 5.38097)">
<stop offset="0.09" stop-color="white"/>
<stop offset="0.11" stop-color="#9A659E"/>
<stop offset="0.13" stop-color="#5B0663"/>
<stop offset="0.15" stop-color="#510558"/>
<stop offset="0.21" stop-color="#38043D"/>
<stop offset="0.29" stop-color="#230226"/>
<stop offset="0.37" stop-color="#130115"/>
<stop offset="0.48" stop-color="#080109"/>
<stop offset="0.62" stop-color="#020002"/>
<stop offset="1"/>
</radialGradient>
<radialGradient id="paint27_radial_16_1319" cx="0" cy="0" r="1" gradientUnits="userSpaceOnUse" gradientTransform="translate(41.5272 82.2222) scale(5.38859 5.38097)">
<stop offset="0.09" stop-color="white"/>
<stop offset="0.11" stop-color="#9A659E"/>
<stop offset="0.13" stop-color="#5B0663"/>
<stop offset="0.15" stop-color="#510558"/>
<stop offset="0.21" stop-color="#38043D"/>
<stop offset="0.29" stop-color="#230226"/>
<stop offset="0.37" stop-color="#130115"/>
<stop offset="0.48" stop-color="#080109"/>
<stop offset="0.62" stop-color="#020002"/>
<stop offset="1"/>
</radialGradient>
<radialGradient id="paint28_radial_16_1319" cx="0" cy="0" r="1" gradientUnits="userSpaceOnUse" gradientTransform="translate(41.5272 49.8894) scale(2.3578 2.35447)">
<stop offset="0.09" stop-color="white"/>
<stop offset="0.11" stop-color="#9A659E"/>
<stop offset="0.13" stop-color="#5B0663"/>
<stop offset="0.15" stop-color="#510558"/>
<stop offset="0.21" stop-color="#38043D"/>
<stop offset="0.29" stop-color="#230226"/>
<stop offset="0.37" stop-color="#130115"/>
<stop offset="0.48" stop-color="#080109"/>
<stop offset="0.62" stop-color="#020002"/>
<stop offset="1"/>
</radialGradient>
<radialGradient id="paint29_radial_16_1319" cx="0" cy="0" r="1" gradientUnits="userSpaceOnUse" gradientTransform="translate(41.5272 92.8526) scale(2.3578 2.35447)">
<stop offset="0.09" stop-color="white"/>
<stop offset="0.11" stop-color="#9A659E"/>
<stop offset="0.13" stop-color="#5B0663"/>
<stop offset="0.15" stop-color="#510558"/>
<stop offset="0.21" stop-color="#38043D"/>
<stop offset="0.29" stop-color="#230226"/>
<stop offset="0.37" stop-color="#130115"/>
<stop offset="0.48" stop-color="#080109"/>
<stop offset="0.62" stop-color="#020002"/>
<stop offset="1"/>
</radialGradient>
<radialGradient id="paint30_radial_16_1319" cx="0" cy="0" r="1" gradientUnits="userSpaceOnUse" gradientTransform="translate(41.5272 49.8894) scale(2.3578 2.35446)">
<stop offset="0.09" stop-color="white"/>
<stop offset="0.11" stop-color="#9A659E"/>
<stop offset="0.13" stop-color="#5B0663"/>
<stop offset="0.15" stop-color="#510558"/>
<stop offset="0.21" stop-color="#38043D"/>
<stop offset="0.29" stop-color="#230226"/>
<stop offset="0.37" stop-color="#130115"/>
<stop offset="0.48" stop-color="#080109"/>
<stop offset="0.62" stop-color="#020002"/>
<stop offset="1"/>
</radialGradient>
</defs>
</svg>
