<svg width="130" height="130" viewBox="0 0 130 130" fill="none" xmlns="http://www.w3.org/2000/svg">
<g clip-path="url(#clip0_143_1097)">
<path d="M10.8377 27.0861H21.6725V35.2102C21.6721 35.5657 21.7418 35.9178 21.8776 36.2463C22.0133 36.5748 22.2125 36.8734 22.4638 37.1249C22.715 37.3764 23.0133 37.5759 23.3417 37.712C23.6701 37.8482 24.0221 37.9182 24.3776 37.9182H43.3363V48.7561C43.3363 49.4743 43.6216 50.1631 44.1294 50.671C44.6373 51.1788 45.326 51.4641 46.0442 51.4641H48.7522V54.1722C48.7522 54.8904 49.0375 55.5792 49.5454 56.087C50.0532 56.5949 50.742 56.8802 51.4602 56.8802C52.1784 56.8802 52.8672 56.5949 53.375 56.087C53.8829 55.5792 54.1682 54.8904 54.1682 54.1722V51.4613H56.8761C57.232 51.4616 57.5844 51.3919 57.9133 51.256C58.2422 51.12 58.5411 50.9206 58.7928 50.6691C59.0446 50.4176 59.2443 50.119 59.3806 49.7902C59.5168 49.4615 59.587 49.1091 59.587 48.7532V37.9182H78.5428C79.261 37.9182 79.9498 37.6329 80.4576 37.1251C80.9655 36.6172 81.2508 35.9284 81.2508 35.2102V27.0861H92.0855C94.9579 27.083 97.7117 25.9404 99.7425 23.909C101.773 21.8777 102.915 19.1235 102.917 16.2511V2.71091C102.917 1.99269 102.632 1.30389 102.124 0.796039C101.616 0.288185 100.928 0.00287444 100.209 0.00287444C99.4913 0.00287444 98.8025 0.288185 98.2946 0.796039C97.7868 1.30389 97.5015 1.99269 97.5015 2.71091V16.254C97.5 17.6899 96.9289 19.0666 95.9135 20.082C94.8982 21.0974 93.5215 21.6685 92.0855 21.67H10.8348C9.40139 21.6647 8.0284 21.0919 7.01615 20.0769C6.0039 19.062 5.43478 17.6874 5.43327 16.254V2.71091C5.44511 2.34767 5.38379 1.98575 5.25295 1.64668C5.12212 1.30761 4.92445 0.998312 4.67169 0.737172C4.41893 0.476032 4.11624 0.268383 3.78162 0.126572C3.447 -0.0152397 3.08728 -0.0883179 2.72386 -0.0883179C2.36043 -0.0883179 2.00071 -0.0152397 1.66609 0.126572C1.33147 0.268383 1.02878 0.476032 0.776021 0.737172C0.523259 0.998312 0.325585 1.30761 0.194753 1.64668C0.0639215 1.98575 0.00260146 2.34767 0.014441 2.71091V16.254C0.01977 19.1262 1.16348 21.8791 3.19495 23.9096C5.22641 25.94 7.97993 27.0823 10.8521 27.0861H10.8377ZM48.7522 27.0861H75.8348V32.5022H27.0855V27.0861H48.7522ZM54.1682 46.0452H48.7522V37.9211H54.1682V46.0452ZM48.7522 75.8364C48.7516 75.3007 48.91 74.7769 49.2072 74.3312C49.5044 73.8854 49.9271 73.5379 50.4219 73.3325C50.9167 73.1271 51.4612 73.0731 51.9867 73.1772C52.5122 73.2814 52.995 73.5391 53.374 73.9177C53.753 74.2963 54.0112 74.7788 54.1159 75.3042C54.2206 75.8296 54.1672 76.3742 53.9623 76.8692C53.7574 77.3642 53.4103 77.7873 52.965 78.085C52.5196 78.3827 51.9959 78.5416 51.4602 78.5416C50.7432 78.5393 50.0562 78.2537 49.5489 77.7469C49.0416 77.2402 48.7552 76.5535 48.7522 75.8364ZM59.587 65.0014C59.5876 65.5377 59.4291 66.0621 59.1315 66.5083C58.834 66.9545 58.4108 67.3024 57.9155 67.508C57.4202 67.7137 56.8751 67.7678 56.349 67.6635C55.823 67.5592 55.3397 67.3012 54.9603 66.9222C54.5809 66.5432 54.3224 66.0602 54.2176 65.5342C54.1127 65.0083 54.1663 64.4631 54.3714 63.9676C54.5765 63.472 54.9239 63.0485 55.3698 62.7505C55.8156 62.4525 56.3399 62.2934 56.8761 62.2934C57.5939 62.2957 58.2817 62.5816 58.7895 63.0889C59.2973 63.5962 59.5839 64.2837 59.587 65.0014ZM59.587 75.8364C59.5864 75.3006 59.7448 74.7766 60.0422 74.3309C60.3395 73.8851 60.7624 73.5376 61.2573 73.3322C61.7523 73.1269 62.297 73.073 62.8226 73.1774C63.3481 73.2818 63.8309 73.5398 64.2098 73.9187C64.5887 74.2976 64.8466 74.7804 64.951 75.306C65.0554 75.8315 65.0016 76.3763 64.7962 76.8712C64.5909 77.3662 64.2434 77.7891 63.7976 78.0864C63.3519 78.3838 62.8279 78.5422 62.2921 78.5416C61.5756 78.5386 60.8893 78.2526 60.3826 77.7459C59.876 77.2393 59.59 76.553 59.587 75.8364ZM67.708 116.46C67.708 116.996 67.5491 117.519 67.2515 117.965C66.9538 118.41 66.5307 118.757 66.0357 118.962C65.5407 119.167 64.9961 119.22 64.4707 119.116C63.9453 119.011 63.4628 118.753 63.0842 118.374C62.7056 117.995 62.4479 117.512 62.3438 116.986C62.2396 116.461 62.2936 115.916 62.499 115.422C62.7044 114.927 63.052 114.504 63.4977 114.207C63.9434 113.91 64.4672 113.751 65.0029 113.752C65.7202 113.754 66.4073 114.04 66.9142 114.548C67.4211 115.055 67.7065 115.743 67.708 116.46ZM116.457 102.92V86.6657C116.462 86.309 116.395 85.955 116.261 85.6246C116.127 85.2941 115.928 84.9939 115.676 84.7415C115.423 84.4892 115.123 84.2898 114.793 84.1552C114.463 84.0206 114.109 83.9534 113.752 83.9577H40.6283C40.2651 83.9458 39.9032 84.0071 39.5641 84.138C39.225 84.2688 38.9157 84.4665 38.6546 84.7193C38.3935 84.972 38.1858 85.2747 38.044 85.6094C37.9022 85.944 37.8291 86.3037 37.8291 86.6671C37.8291 87.0306 37.9022 87.3903 38.044 87.7249C38.1858 88.0595 38.3935 88.3622 38.6546 88.615C38.9157 88.8678 39.225 89.0655 39.5641 89.1963C39.9032 89.3271 40.2651 89.3885 40.6283 89.3766H111.047V102.917H2.7109C1.9927 102.917 1.30392 103.202 0.796077 103.71C0.288234 104.218 0.00292969 104.907 0.00292969 105.625C0.00292969 106.343 0.288234 107.032 0.796077 107.54C1.30392 108.048 1.9927 108.333 2.7109 108.333H2.73681C1.22297 110.341 0.299103 112.732 0.0689743 115.237C-0.161155 117.741 0.311571 120.26 1.43405 122.511C2.55654 124.762 4.28431 126.655 6.4233 127.978C8.56229 129.301 11.0278 130.001 13.5428 130H116.457C118.252 130.026 120.034 129.695 121.7 129.026C123.366 128.358 124.882 127.364 126.161 126.104C127.439 124.844 128.455 123.343 129.148 121.687C129.841 120.031 130.197 118.253 130.197 116.458C130.197 114.663 129.841 112.886 129.148 111.23C128.455 109.574 127.439 108.073 126.161 106.812C124.882 105.552 123.366 104.559 121.7 103.89C120.034 103.222 118.252 102.891 116.457 102.917V102.92ZM119.168 124.112C118.158 124.489 117.084 124.66 116.007 124.618C114.93 124.575 113.873 124.318 112.896 123.862C111.92 123.406 111.044 122.76 110.32 121.962C109.595 121.164 109.037 120.23 108.678 119.214C108.318 118.198 108.164 117.121 108.226 116.045C108.287 114.969 108.562 113.916 109.034 112.947C109.506 111.979 110.167 111.114 110.977 110.403C111.787 109.692 112.73 109.15 113.752 108.808C115.502 108.175 117.418 108.175 119.168 108.808C120.752 109.365 122.124 110.401 123.095 111.772C124.065 113.142 124.586 114.78 124.586 116.46C124.586 118.139 124.065 119.777 123.095 121.148C122.124 122.519 120.752 123.554 119.168 124.112ZM10.8348 108.808C12.458 108.232 14.2221 108.188 15.8719 108.682C17.5217 109.176 18.9716 110.182 20.0116 111.555C21.0516 112.927 21.6279 114.595 21.6569 116.317C21.686 118.039 21.1663 119.725 20.1732 121.132C19.18 122.539 17.7649 123.594 16.1327 124.143C14.5005 124.692 12.7359 124.708 11.0943 124.187C9.45267 123.667 8.01925 122.638 7.00151 121.248C5.98376 119.859 5.43452 118.182 5.43327 116.46C5.43415 114.783 5.95374 113.147 6.9208 111.777C7.88786 110.407 9.25503 109.37 10.8348 108.808ZM65.0029 124.584C63.3954 124.584 61.8237 124.108 60.4868 123.215C59.15 122.323 58.1079 121.053 57.4924 119.568C56.877 118.083 56.7158 116.449 57.0293 114.872C57.3428 113.295 58.1168 111.847 59.2535 110.71C60.3903 109.574 61.8386 108.799 63.4153 108.486C64.992 108.172 66.6263 108.334 68.1114 108.949C69.5965 109.565 70.8657 110.607 71.7584 111.944C72.6512 113.281 73.1274 114.852 73.1269 116.46C73.1246 118.614 72.2679 120.679 70.7449 122.202C69.2219 123.725 67.1568 124.582 65.0029 124.584ZM24.3517 124.584C26.1253 122.246 27.0855 119.393 27.0855 116.458C27.0855 113.524 26.1253 110.67 24.3517 108.333H54.1941C52.4204 110.67 51.4603 113.524 51.4603 116.458C51.4603 119.393 52.4204 122.246 54.1941 124.584H24.3517ZM75.8118 124.584C77.5855 122.246 78.5456 119.393 78.5456 116.458C78.5456 113.524 77.5855 110.67 75.8118 108.333H105.654C103.881 110.67 102.92 113.524 102.92 116.458C102.92 119.393 103.881 122.246 105.654 124.584H75.8118ZM0.00292969 86.6657C0.00445031 85.948 0.290242 85.26 0.797757 84.7525C1.30527 84.245 1.99317 83.9592 2.7109 83.9577H18.9587C19.6769 83.9577 20.3657 84.243 20.8736 84.7508C21.3814 85.2587 21.6667 85.9475 21.6667 86.6657C21.6667 87.3839 21.3814 88.0727 20.8736 88.5806C20.3657 89.0884 19.6769 89.3737 18.9587 89.3737H2.7109C1.99317 89.3722 1.30527 89.0864 0.797757 88.5789C0.290242 88.0714 0.00445031 87.3835 0.00292969 86.6657ZM119.168 116.457C119.168 116.992 119.009 117.516 118.712 117.961C118.415 118.406 117.992 118.754 117.497 118.959C117.002 119.164 116.458 119.217 115.933 119.113C115.408 119.009 114.925 118.751 114.546 118.373C114.168 117.994 113.909 117.512 113.805 116.987C113.7 116.462 113.753 115.918 113.958 115.423C114.162 114.928 114.509 114.505 114.954 114.207C115.399 113.909 115.922 113.749 116.457 113.749C117.175 113.75 117.864 114.036 118.371 114.544C118.879 115.051 119.166 115.739 119.168 116.457ZM10.8348 116.457C10.8343 115.921 10.9928 115.396 11.2905 114.95C11.5881 114.504 12.0115 114.156 12.507 113.95C13.0024 113.745 13.5477 113.691 14.0738 113.795C14.6 113.9 15.0832 114.158 15.4625 114.537C15.8418 114.916 16.1001 115.4 16.2046 115.926C16.3091 116.452 16.2552 116.997 16.0496 117.493C15.8441 117.988 15.4962 118.412 15.05 118.709C14.6037 119.007 14.0792 119.166 13.5428 119.165C12.8251 119.163 12.1372 118.878 11.6297 118.37C11.1221 117.863 10.8363 117.175 10.8348 116.457ZM29.7935 83.9577C30.3299 83.9571 30.8544 84.1157 31.3007 84.4133C31.7469 84.711 32.0948 85.1344 32.3003 85.6298C32.5059 86.1253 32.5598 86.6706 32.4553 87.1967C32.3508 87.7229 32.0925 88.2062 31.7133 88.5855C31.334 88.9648 30.8507 89.223 30.3246 89.3275C29.7984 89.4321 29.2531 89.3781 28.7577 89.1726C28.2622 88.967 27.8389 88.6191 27.5412 88.1729C27.2436 87.7266 27.085 87.2021 27.0855 86.6657C27.0878 85.9482 27.3739 85.2607 27.8812 84.7533C28.3886 84.246 29.076 83.9599 29.7935 83.9577ZM40.6254 73.1255C41.161 73.1255 41.6846 73.2844 42.1299 73.5819C42.5752 73.8795 42.9223 74.3024 43.1273 74.7972C43.3322 75.2921 43.3858 75.8366 43.2814 76.3619C43.1769 76.8872 42.919 77.3697 42.5402 77.7484C42.1615 78.1272 41.679 78.3851 41.1537 78.4896C40.6284 78.5941 40.0839 78.5404 39.5891 78.3355C39.0943 78.1305 38.6714 77.7834 38.3738 77.3381C38.0763 76.8927 37.9174 76.3692 37.9174 75.8336C37.919 75.1158 38.2048 74.4279 38.7123 73.9204C39.2198 73.4128 39.9077 73.1271 40.6254 73.1255ZM48.7493 64.9986C48.7493 65.5343 48.5904 66.058 48.2928 66.5034C47.9951 66.9488 47.572 67.2959 47.077 67.5007C46.582 67.7056 46.0374 67.7591 45.512 67.6543C44.9866 67.5496 44.5041 67.2914 44.1255 66.9124C43.7469 66.5334 43.4892 66.0506 43.3851 65.5251C43.2809 64.9996 43.3349 64.455 43.5403 63.9602C43.7457 63.4655 44.0933 63.0427 44.539 62.7455C44.9847 62.4483 45.5085 62.29 46.0442 62.2905C46.7612 62.2936 47.448 62.5799 47.9547 63.0872C48.4614 63.5945 48.7471 64.2815 48.7493 64.9986Z" fill="#141B4E"/>
</g>
<defs>
<clipPath id="clip0_143_1097">
<rect width="130" height="130" fill="white"/>
</clipPath>
</defs>
</svg>
