<svg width="141" height="130" viewBox="0 0 141 130" fill="none" xmlns="http://www.w3.org/2000/svg">
<path fill-rule="evenodd" clip-rule="evenodd" d="M31.7233 7.68247e-07C32.1863 -0.000304215 32.6447 0.0903194 33.0725 0.266694C33.5003 0.443068 33.889 0.701735 34.2165 1.02791C34.544 1.35409 34.8037 1.74139 34.981 2.16768C35.1582 2.59396 35.2494 3.05088 35.2494 3.51232V21.0809C35.2494 21.5423 35.1582 21.9993 34.981 22.4255C34.8037 22.8518 34.544 23.2391 34.2165 23.5653C33.889 23.8915 33.5003 24.1501 33.0725 24.3265C32.6447 24.5029 32.1863 24.5935 31.7233 24.5932H19.3796V29.8652H24.6664C24.8979 29.8649 25.1271 29.91 25.341 29.9981C25.5548 30.0862 25.7492 30.2154 25.913 30.3784C26.0767 30.5414 26.2066 30.735 26.2952 30.948C26.3839 31.1611 26.4295 31.3895 26.4295 31.6202V33.3775H8.81294V31.6202C8.81263 31.3896 8.85797 31.1613 8.94634 30.9482C9.03472 30.7351 9.1644 30.5416 9.32796 30.3785C9.49152 30.2155 9.68574 30.0862 9.8995 29.9981C10.1133 29.9101 10.3424 29.8649 10.5737 29.8652H15.8628V24.5932H3.51912C3.05668 24.5929 2.59882 24.5018 2.1717 24.3251C1.74457 24.1485 1.35654 23.8897 1.02976 23.5635C0.702982 23.2374 0.44385 22.8503 0.267164 22.4243C0.0904769 21.9983 -0.000305179 21.5418 7.70752e-07 21.0809V3.51232C-0.000305439 3.05099 0.0906308 2.59413 0.267609 2.16785C0.444587 1.74158 0.704135 1.35427 1.03141 1.02806C1.35868 0.701845 1.74726 0.443141 2.17492 0.266739C2.60259 0.0903362 3.06094 -0.000304446 3.52378 7.68247e-07H31.7233ZM3.52378 3.51232H31.7233V21.0809H3.52378V3.51232Z" fill="#141B4E"/>
<path fill-rule="evenodd" clip-rule="evenodd" d="M109.274 100.135C103.697 100.135 98.2449 98.4863 93.6075 95.3978C88.9702 92.3092 85.3558 87.9194 83.2214 82.7833C81.087 77.6473 80.5286 71.9958 81.6167 66.5434C82.7048 61.091 85.3905 56.0826 89.3343 52.1517C93.2781 48.2207 98.3027 45.5437 103.773 44.4592C109.243 43.3746 114.913 43.9312 120.066 46.0587C125.219 48.1861 129.623 51.7887 132.721 56.4111C135.82 61.0334 137.474 66.4677 137.474 72.0269C137.474 79.4816 134.503 86.6309 129.214 91.9022C123.926 97.1734 116.753 100.135 109.274 100.135ZM109.274 103.647C103 103.648 96.8655 101.793 91.6479 98.3189C86.4304 94.8444 82.3636 89.9058 79.962 84.1276C77.5604 78.3494 76.9318 71.9911 78.1557 65.8568C79.3796 59.7225 82.401 54.0877 86.8378 49.665C91.2746 45.2422 96.9276 42.2303 103.082 41.0099C109.236 39.7896 115.615 40.4156 121.412 42.809C127.21 45.2024 132.165 49.2555 135.651 54.4559C139.137 59.6562 140.998 65.7702 140.998 72.0246C140.998 80.411 137.655 88.454 131.706 94.3843C125.757 100.315 117.688 103.646 109.274 103.647Z" fill="#141B4E"/>
<path fill-rule="evenodd" clip-rule="evenodd" d="M17.6305 91.3598C14.8418 91.3598 12.1158 90.5356 9.79711 88.9913C7.47841 87.447 5.67121 85.2521 4.60403 82.6841C3.53686 80.1161 3.25763 77.2903 3.80168 74.5641C4.34572 71.8379 5.68859 69.3337 7.66048 67.3683C9.63237 65.4028 12.1447 64.0643 14.8798 63.522C17.6149 62.9797 20.4499 63.258 23.0263 64.3217C25.6027 65.3855 27.8047 67.1868 29.354 69.4979C30.9034 71.8091 31.7303 74.5263 31.7303 77.3059C31.7297 81.033 30.244 84.6073 27.5999 87.2428C24.9558 89.8783 21.3698 91.3592 17.6305 91.3598ZM17.6305 94.8721C14.1444 94.8721 10.7365 93.8417 7.83787 91.9111C4.93926 89.9806 2.68011 87.2366 1.34611 84.0262C0.0121215 80.8159 -0.336794 77.2833 0.343493 73.8752C1.02378 70.4672 2.70271 67.3368 5.16797 64.8799C7.63322 62.423 10.7741 60.7499 14.1933 60.0723C17.6125 59.3947 21.1566 59.7429 24.3773 61.073C27.5979 62.4031 30.3506 64.6552 32.287 67.5447C34.2235 70.4341 35.2569 73.831 35.2564 77.3059C35.2539 81.9635 33.3958 86.4295 30.0905 89.7219C26.7852 93.0143 22.3034 94.8635 17.6305 94.8628V94.8721Z" fill="#141B4E"/>
<path fill-rule="evenodd" clip-rule="evenodd" d="M111.035 17.5663C109.99 17.5658 108.968 17.2564 108.099 16.677C107.229 16.0977 106.552 15.2746 106.152 14.3116C105.753 13.3487 105.648 12.2892 105.852 11.2671C106.057 10.2451 106.56 9.30634 107.3 8.5696C108.039 7.83286 108.981 7.3312 110.007 7.12806C111.032 6.92492 112.095 7.02941 113.061 7.42833C114.027 7.82724 114.853 8.50267 115.433 9.3692C116.014 10.2357 116.324 11.2545 116.324 12.2966C116.324 12.9888 116.187 13.6743 115.922 14.3138C115.656 14.9533 115.266 15.5343 114.775 16.0236C114.284 16.513 113.701 16.9011 113.059 17.1658C112.417 17.4305 111.73 17.5666 111.035 17.5663ZM111.035 21.0809C109.292 21.0809 107.588 20.5657 106.139 19.6005C104.69 18.6353 103.56 17.2633 102.893 15.6582C102.226 14.0531 102.051 12.2869 102.392 10.5829C102.732 8.8789 103.571 7.31369 104.803 6.08519C106.036 4.85669 107.606 4.02006 109.316 3.68112C111.025 3.34218 112.797 3.51614 114.408 4.181C116.018 4.84586 117.394 5.97176 118.363 7.41633C119.331 8.8609 119.848 10.5593 119.848 12.2966C119.848 14.6264 118.92 16.8607 117.267 18.508C115.614 20.1554 113.372 21.0809 111.035 21.0809Z" fill="#141B4E"/>
<path fill-rule="evenodd" clip-rule="evenodd" d="M44.0623 40.4045C43.0161 40.405 41.9933 40.0962 41.1232 39.5172C40.2531 38.9382 39.5748 38.1149 39.1741 37.1517C38.7734 36.1884 38.6684 35.1283 38.8722 34.1055C39.076 33.0827 39.5796 32.1431 40.3192 31.4055C41.0588 30.668 42.0012 30.1657 43.0273 29.9621C44.0533 29.7585 45.1169 29.8627 46.0835 30.2617C47.0501 30.6606 47.8763 31.3364 48.4576 32.2034C49.0389 33.0704 49.3492 34.0898 49.3492 35.1326C49.3495 35.8248 49.2129 36.5103 48.9474 37.1499C48.6818 37.7895 48.2925 38.3707 47.8015 38.8603C47.3105 39.3498 46.7276 39.7382 46.0861 40.0032C45.4445 40.2681 44.7568 40.4045 44.0623 40.4045ZM44.0623 43.9168C42.3193 43.9168 40.6154 43.4017 39.1661 42.4364C37.7168 41.4712 36.5873 40.0993 35.9202 38.4942C35.2532 36.889 35.0787 35.1228 35.4187 33.4188C35.7588 31.7148 36.5981 30.1496 37.8306 28.9211C39.0632 27.6926 40.6335 26.856 42.343 26.5171C44.0526 26.1781 45.8245 26.3521 47.4349 27.0169C49.0452 27.6818 50.4216 28.8077 51.39 30.2523C52.3584 31.6968 52.8753 33.3952 52.8753 35.1326C52.8753 37.4623 51.9468 39.6966 50.294 41.344C48.6413 42.9914 46.3997 43.9168 44.0623 43.9168Z" fill="#141B4E"/>
<path fill-rule="evenodd" clip-rule="evenodd" d="M68.7358 126.485C67.6896 126.485 66.6669 126.176 65.797 125.597C64.9272 125.017 64.2493 124.194 63.849 123.23C63.4488 122.267 63.3442 121.207 63.5484 120.184C63.7527 119.161 64.2567 118.222 64.9966 117.485C65.7366 116.748 66.6792 116.246 67.7054 116.042C68.7315 115.839 69.7951 115.944 70.7615 116.343C71.7279 116.743 72.5538 117.419 73.1347 118.286C73.7156 119.153 74.0254 120.173 74.025 121.216C74.025 121.908 73.8881 122.593 73.6223 123.233C73.3565 123.872 72.9668 124.453 72.4757 124.943C71.9845 125.432 71.4014 125.82 70.7597 126.085C70.118 126.35 69.4303 126.486 68.7358 126.485ZM68.7358 129.998C66.9927 129.998 65.2887 129.482 63.8393 128.517C62.39 127.552 61.2604 126.18 60.5935 124.574C59.9265 122.969 59.7521 121.203 60.0924 119.499C60.4326 117.795 61.2722 116.23 62.5049 115.001C63.7377 113.773 65.3082 112.936 67.0179 112.598C68.7276 112.259 70.4997 112.433 72.11 113.098C73.7203 113.764 75.0965 114.89 76.0646 116.335C77.0327 117.78 77.5492 119.478 77.5487 121.216C77.5481 123.545 76.6193 125.779 74.9667 127.426C73.314 129.072 71.0727 129.998 68.7358 129.998Z" fill="#141B4E"/>
<path d="M19.3866 36.8921H15.8628V61.4992H19.3866V36.8921Z" fill="#141B4E"/>
<path d="M42.2993 42.4217L39.4136 40.4044L23.8373 62.5741L26.7136 64.5821L42.2993 42.4217Z" fill="#141B4E"/>
<path d="M51.3242 38.6494L49.5612 41.6812L82.8426 60.8399L84.6056 57.7966L51.3242 38.6494Z" fill="#141B4E"/>
<path d="M32.6852 77.9606L33.0019 81.4589L79.3071 77.2804L78.9904 73.782L32.6852 77.9606Z" fill="#141B4E"/>
<path d="M50.3297 31.8128L51.6083 35.0861L104.942 14.4021L103.664 11.1266L50.3297 31.8128Z" fill="#141B4E"/>
<path d="M107.439 42.2802L110.954 42.5611L112.8 19.6045L109.286 19.3236L107.439 42.2802Z" fill="#141B4E"/>
<path d="M72.2153 115.233L75.0101 117.374L91.3248 96.2348L88.53 94.0945L72.2153 115.233Z" fill="#141B4E"/>
<path d="M62.1354 119.976L64.3502 117.241L28.4324 88.3419L26.2198 91.0766L62.1354 119.976Z" fill="#141B4E"/>
<path d="M109.274 75.725C111.371 75.725 113.467 76.5862 114.817 78.1903C116.049 79.6691 118.267 77.6959 117.035 76.2171C116.057 75.131 114.86 74.2623 113.523 73.6676C112.186 73.073 110.739 72.7656 109.274 72.7656C107.81 72.7656 106.363 73.073 105.026 73.6676C103.688 74.2623 102.492 75.131 101.514 76.2171C100.284 77.6959 102.502 79.6691 103.731 78.1903C105.087 76.5862 107.181 75.725 109.274 75.725ZM109.274 86.0809C109.862 86.0836 110.438 85.9124 110.928 85.5888C111.418 85.2653 111.801 84.804 112.028 84.2634C112.255 83.7228 112.315 83.1273 112.202 82.5522C112.089 81.9771 111.808 81.4484 111.393 81.0331C110.978 80.6178 110.449 80.3345 109.873 80.2192C109.296 80.1038 108.699 80.1616 108.155 80.3852C107.612 80.6088 107.147 80.9882 106.82 81.4752C106.493 81.9623 106.319 82.5351 106.319 83.1211C106.328 83.9009 106.642 84.6464 107.194 85.1992C107.746 85.7519 108.492 86.0682 109.274 86.0809ZM109.274 68.3266C113.217 68.3266 116.788 69.6823 119.622 72.5191C120.852 73.7518 123.193 71.9016 121.718 70.4298C118.39 67.0939 113.956 65.3598 109.274 65.3598C104.593 65.3598 100.161 67.0846 96.8352 70.4135C95.3563 71.8923 97.6969 73.7425 98.9313 72.5028C101.763 69.666 105.336 68.3103 109.277 68.3103L109.274 68.3266ZM109.274 60.9305C114.859 60.9047 120.24 63.0237 124.299 66.8478C125.778 68.2036 127.871 66.1073 126.395 64.7586C121.592 60.32 115.681 57.9777 109.274 57.9777C102.867 57.9777 96.9587 60.313 92.1586 64.7516C90.682 66.1073 92.7758 68.2036 94.2547 66.8409C98.3144 63.0166 103.696 60.8976 109.281 60.9236L109.274 60.9305Z" fill="#141B4E"/>
</svg>
