<svg width="130" height="130" viewBox="0 0 130 130" fill="none" xmlns="http://www.w3.org/2000/svg">
<path d="M41.1549 93.1343V88.804C41.1759 87.3686 40.9113 85.9433 40.3763 84.611C39.8413 83.2787 39.0467 82.066 38.0387 81.0435C37.0307 80.0209 35.8294 79.209 34.5046 78.6547C33.1798 78.1005 31.7581 77.8151 30.322 77.8151C28.8859 77.8151 27.4641 78.1005 26.1393 78.6547C24.8146 79.209 23.6132 80.0209 22.6052 81.0435C21.5972 82.066 20.8026 83.2787 20.2676 84.611C19.7327 85.9433 19.468 87.3686 19.489 88.804V93.1367C18.3401 93.1373 17.2384 93.5936 16.4258 94.4055C15.6132 95.2174 15.1561 96.3185 15.1549 97.467V101.8C15.1598 102.619 15.3971 103.42 15.8392 104.11C16.2814 104.801 16.9102 105.351 17.6528 105.698C16.0521 107.315 15.1544 109.499 15.1549 111.774V114.791C15.1733 115.353 15.4097 115.886 15.8141 116.277C16.2185 116.668 16.7592 116.887 17.322 116.887C17.8847 116.887 18.4254 116.668 18.8298 116.277C19.2342 115.886 19.4706 115.353 19.489 114.791V111.762C19.4902 111.05 19.6669 110.35 20.0033 109.722C20.3398 109.095 20.8257 108.56 21.4181 108.165L24.4708 106.137H28.1549V114.802C28.1549 115.376 28.3831 115.927 28.7893 116.333C29.1955 116.739 29.7464 116.967 30.3208 116.967C30.8952 116.967 31.4461 116.739 31.8523 116.333C32.2585 115.927 32.4867 115.376 32.4867 114.802V106.13H36.1708L39.2281 108.165C39.8209 108.561 40.3068 109.097 40.6425 109.726C40.9782 110.355 41.1534 111.056 41.1526 111.769V114.786C41.1526 115.36 41.3808 115.911 41.787 116.317C42.1931 116.723 42.744 116.951 43.3185 116.951C43.8929 116.951 44.4438 116.723 44.85 116.317C45.2562 115.911 45.4844 115.36 45.4844 114.786V111.762C45.4825 109.491 44.585 107.312 42.9865 105.698C43.7319 105.354 44.3638 104.804 44.8082 104.114C45.2526 103.423 45.4912 102.621 45.496 101.8V97.467C45.4963 96.8981 45.3845 96.3348 45.1669 95.8091C44.9493 95.2835 44.6303 94.8058 44.228 94.4035C43.8258 94.0011 43.3481 93.682 42.8224 93.4642C42.2967 93.2464 41.7332 93.1343 41.1642 93.1343H41.1549ZM23.8208 88.8017C23.8208 87.9484 23.9889 87.1035 24.3156 86.3151C24.6422 85.5268 25.121 84.8105 25.7246 84.2071C26.3282 83.6037 27.0447 83.1251 27.8334 82.7985C28.622 82.472 29.4672 82.3039 30.3208 82.3039C31.1744 82.3039 32.0196 82.472 32.8082 82.7985C33.5969 83.1251 34.3134 83.6037 34.917 84.2071C35.5206 84.8105 35.9994 85.5268 36.326 86.3151C36.6527 87.1035 36.8208 87.9484 36.8208 88.8017V93.1343H32.496V88.804C32.5055 88.5136 32.4565 88.2242 32.3519 87.953C32.2472 87.6819 32.0891 87.4346 31.887 87.2258C31.6848 87.0169 31.4427 86.8509 31.175 86.7375C30.9074 86.6241 30.6196 86.5656 30.3289 86.5656C30.0382 86.5656 29.7505 86.6241 29.4828 86.7375C29.2152 86.8509 28.9731 87.0169 28.7709 87.2258C28.5687 87.4346 28.4106 87.6819 28.306 87.953C28.2014 88.2242 28.1524 88.5136 28.1619 88.804V93.1367H23.8208V88.8017ZM19.496 97.467H41.1549V101.8H19.496V97.467Z" fill="#141B4E"/>
<path d="M121.323 91.0109V71.9329C121.334 69.4651 120.498 67.0681 118.955 65.1419C117.412 63.2157 115.255 61.8767 112.843 61.3485L108.323 60.346V45.4939C108.323 43.7705 107.638 42.1178 106.419 40.8992C105.2 39.6806 103.547 38.9961 101.823 38.9961V32.6421C101.823 32.2856 101.911 31.9347 102.08 31.6202C102.248 31.3057 102.49 31.0374 102.787 30.839L107.358 27.7943C107.594 27.6365 107.798 27.4335 107.956 27.1971C108.114 26.9607 108.224 26.6955 108.28 26.4165C108.336 26.1376 108.336 25.8504 108.281 25.5713C108.225 25.2923 108.116 25.0269 107.958 24.7903C107.8 24.5536 107.597 24.3504 107.36 24.1922C107.124 24.034 106.858 23.9238 106.579 23.8681C106.3 23.8124 106.013 23.8122 105.734 23.8675C105.455 23.9228 105.189 24.0325 104.953 24.1904L100.384 27.235C99.4947 27.8292 98.7659 28.6336 98.2622 29.5768C97.7584 30.52 97.4953 31.5729 97.4961 32.6421V38.9891C95.7722 38.9891 94.1189 39.6737 92.8999 40.8923C91.6809 42.1108 90.9961 43.7636 90.9961 45.4869V56.5007L86.2047 55.4378C84.9634 55.1606 83.8304 54.5265 82.9452 53.6135C82.0601 52.7006 81.4613 51.5488 81.2229 50.2999L74.1077 12.9956H77.9961C79.145 12.995 80.2467 12.5386 81.0593 11.7267C81.8719 10.9148 82.329 9.81377 82.3302 8.66527V4.33264C82.3296 3.18374 81.8728 2.08207 81.0601 1.26968C80.2474 0.457286 79.1454 0.000614877 77.9961 0H21.6551C20.5058 0.000614877 19.4037 0.457286 18.5911 1.26968C17.7784 2.08207 17.3216 3.18374 17.3209 4.33264V8.66527C17.3222 9.81377 17.7793 10.9148 18.5919 11.7267C19.4045 12.5386 20.5062 12.995 21.6551 12.9956H23.5122L17.9477 53.6764C17.808 54.7192 17.414 55.7116 16.8003 56.5663C16.1866 57.421 15.372 58.1117 14.4284 58.5776L6.70505 62.4137C5.82212 62.8558 5.11682 63.5863 4.70602 64.484C4.29522 65.3817 4.20358 66.3928 4.4463 67.3497L5.74862 72.5224C5.98828 73.5278 6.58218 74.4133 7.42159 75.0168C8.261 75.6202 9.28976 75.9012 10.3195 75.8084L11.8052 75.6808C8.09666 78.538 5.10083 82.2154 3.0528 86.4244C1.00476 90.6335 -0.0397716 95.2597 0.00115806 99.9401C0.0420878 104.62 1.16736 109.228 3.2887 113.4C5.41003 117.573 8.46972 121.197 12.2277 123.989C15.9857 126.781 20.3397 128.665 24.9481 129.492C29.5566 130.319 34.2941 130.068 38.789 128.757C43.2838 127.447 47.4138 125.113 50.8548 121.939C54.2958 118.764 56.9542 114.836 58.6215 110.463H86.7665C87.1198 114.047 88.3619 117.487 90.3803 120.471C92.3987 123.455 95.1297 125.888 98.326 127.551C101.522 129.214 105.083 130.054 108.686 129.994C112.289 129.935 115.82 128.978 118.959 127.21C122.099 125.443 124.748 122.921 126.667 119.872C128.585 116.823 129.713 113.344 129.948 109.749C130.183 106.155 129.517 102.559 128.011 99.2867C126.505 96.0143 124.206 93.1691 121.323 91.0086V91.0109ZM95.3233 45.4846C95.3233 44.9103 95.5514 44.3596 95.9576 43.9536C96.3638 43.5475 96.9147 43.3194 97.4892 43.3194H101.823C102.108 43.3182 102.391 43.3733 102.655 43.4816C102.918 43.5899 103.158 43.7492 103.36 43.9504C103.562 44.1516 103.722 44.3907 103.831 44.654C103.94 44.9173 103.996 45.1996 103.996 45.4846V59.3829L95.3302 57.4591L95.3233 45.4846ZM21.6551 4.33264H77.9961V8.66527H21.6551V4.33264ZM30.3209 125.626C24.2981 125.632 18.4593 123.55 13.7999 119.735C9.14056 115.92 5.94894 110.608 4.76911 104.703C3.58928 98.7993 4.49426 92.6688 7.3298 87.357C10.1653 82.0451 14.7559 77.8807 20.3191 75.5736C25.8822 73.2665 32.0736 72.9594 37.8379 74.7048C43.6021 76.4502 48.5825 80.1399 51.93 85.1451C55.2776 90.1503 56.7851 96.1612 56.1956 102.153C55.6061 108.145 52.9561 113.747 48.6974 118.005C43.8248 122.88 37.2149 125.621 30.3209 125.626ZM30.3209 69.3106C27.6537 69.3218 24.9996 69.6862 22.4281 70.3943L9.95505 71.4758L8.65505 66.2891L16.3738 62.4485C17.9515 61.6673 19.3128 60.5103 20.3378 59.0793C21.3628 57.6483 22.02 55.9874 22.2517 54.2427L27.8765 12.9933H69.6947L76.9631 51.1144C77.3602 53.1928 78.3569 55.1096 79.8303 56.6286C81.3037 58.1477 83.1894 59.2027 85.2552 59.6637L111.905 65.5744C113.353 65.8928 114.649 66.6979 115.575 67.8554C116.502 69.0129 117.003 70.4529 116.996 71.9352V88.4628C113.869 87.0917 110.461 86.4801 107.052 86.6779C103.643 86.8757 100.328 87.8774 97.3807 89.601C94.433 91.3246 91.9352 93.7212 90.0916 96.5948C88.248 99.4684 87.1109 102.737 86.7734 106.135H59.9354C60.9192 101.706 60.8945 97.1135 59.8631 92.6961C58.8316 88.2786 56.8199 84.1495 53.9766 80.6142C51.1333 77.079 47.5313 74.228 43.437 72.2722C39.3427 70.3164 34.861 69.3058 30.3233 69.3152L30.3209 69.3106ZM108.321 125.623C104.306 125.627 100.414 124.24 97.3081 121.696C94.2022 119.153 92.0748 115.612 91.2884 111.676C90.5021 107.74 91.1055 103.653 92.9958 100.113C94.8861 96.5718 97.9463 93.7959 101.655 92.258C105.363 90.7202 109.49 90.5157 113.333 91.6793C117.175 92.8428 120.495 95.3026 122.727 98.6391C124.958 101.976 125.963 105.983 125.57 109.977C125.177 113.971 123.41 117.705 120.571 120.543C117.323 123.793 112.917 125.62 108.321 125.623Z" fill="#141B4E"/>
<path d="M108.323 99.6321C106.318 99.6298 104.374 100.323 102.823 101.593C101.271 102.863 100.208 104.632 99.8154 106.597C99.4224 108.563 99.7235 110.604 100.667 112.373C101.611 114.141 103.139 115.528 104.991 116.296C106.843 117.065 108.905 117.167 110.824 116.586C112.743 116.006 114.402 114.777 115.516 113.111C116.631 111.445 117.134 109.444 116.938 107.449C116.742 105.454 115.86 103.589 114.442 102.171C112.819 100.548 110.619 99.6352 108.323 99.6321ZM108.323 112.628C107.322 112.627 106.353 112.279 105.579 111.643C104.806 111.008 104.277 110.124 104.083 109.143C103.888 108.161 104.04 107.143 104.513 106.261C104.985 105.378 105.749 104.687 106.674 104.305C107.599 103.922 108.627 103.872 109.585 104.163C110.543 104.454 111.37 105.068 111.926 105.9C112.482 106.732 112.732 107.731 112.634 108.726C112.536 109.722 112.095 110.653 111.387 111.361C110.985 111.763 110.507 112.082 109.981 112.299C109.456 112.516 108.892 112.628 108.323 112.628Z" fill="#141B4E"/>
<path d="M67.1549 75.8084C68.8788 75.8084 70.5321 75.1238 71.7511 73.9052C72.9701 72.6867 73.6549 71.0339 73.6549 69.3106V58.4036C73.6568 56.877 73.5114 55.3538 73.2208 53.8551L67.1247 22.5868C66.837 21.1065 66.0432 19.7722 64.8793 18.8128C63.7155 17.8534 62.254 17.3286 60.7455 17.3282H37.3246C35.7564 17.334 34.2428 17.904 33.0607 18.934C31.8786 19.964 31.107 21.3851 30.8872 22.9372L26.9872 51.0936C26.8602 52.0131 26.9318 52.9492 27.1971 53.8387C27.4623 54.7283 27.9152 55.5507 28.5252 56.2506C29.1351 56.9505 29.888 57.5117 30.7331 57.8963C31.5783 58.2808 32.496 58.48 33.4246 58.4802H47.6549C50.5286 58.4814 53.2843 59.6226 55.3169 61.6533C57.3495 63.6839 58.4929 66.4379 58.496 69.3106C58.5039 71.0315 59.1913 72.6796 60.4086 73.8965C61.6258 75.1133 63.2745 75.8005 64.996 75.8084H67.1549ZM31.7996 53.398C31.5935 53.1662 31.4406 52.8922 31.3516 52.5952C31.2626 52.2981 31.2396 51.9852 31.2842 51.6784L35.1842 23.522C35.2584 23.0072 35.5155 22.5362 35.9085 22.1953C36.3016 21.8544 36.8042 21.6663 37.3246 21.6655H43.3208V54.1545H33.4246C33.1161 54.1557 32.811 54.0899 32.5305 53.9617C32.2499 53.8335 32.0005 53.6459 31.7996 53.4119V53.398ZM62.8231 69.3013C62.8176 65.2817 61.2177 61.4284 58.3742 58.5863C55.5308 55.7443 51.6759 54.1455 47.6549 54.1406V21.6516H60.7478C61.2503 21.6516 61.7371 21.8265 62.1247 22.1462C62.5123 22.4659 62.7765 22.9105 62.8719 23.4037L68.9633 54.6697C69.2007 55.8932 69.3212 57.1364 69.3231 58.3827V69.2897C69.3225 69.8642 69.0938 70.4149 68.6873 70.8209C68.2807 71.2268 67.7296 71.4549 67.1549 71.4549H64.996C64.7064 71.4553 64.4199 71.3965 64.154 71.2819C63.8881 71.1674 63.6484 70.9996 63.4499 70.7889C63.2509 70.5937 63.0933 70.3602 62.9868 70.1026C62.8803 69.845 62.827 69.5685 62.8301 69.2897L62.8231 69.3013Z" fill="#141B4E"/>
<path d="M83.3701 68.1225L87.7227 69.0902L86.7176 73.1234C86.6481 73.3996 86.6339 73.6867 86.6757 73.9683C86.7175 74.2499 86.8145 74.5206 86.9611 74.7646C87.1078 75.0087 87.3012 75.2214 87.5303 75.3906C87.7594 75.5597 88.0197 75.682 88.2961 75.7504C88.4681 75.791 88.6441 75.812 88.8208 75.8131C89.3038 75.813 89.773 75.6514 90.1537 75.3541C90.5343 75.0569 90.8047 74.6409 90.9217 74.1724L91.9524 70.037L100.542 71.9446L99.7083 75.2932C99.5708 75.8508 99.6603 76.4402 99.9572 76.9318C100.254 77.4235 100.734 77.7773 101.291 77.9156C101.462 77.9572 101.638 77.9783 101.814 77.9782C102.296 77.9757 102.763 77.8124 103.141 77.5144C103.52 77.2163 103.788 76.8005 103.903 76.3329L104.776 72.8914L110.013 74.0517C110.166 74.0833 110.321 74.1004 110.477 74.1028C111.011 74.1019 111.526 73.9041 111.923 73.5472C112.321 73.1903 112.572 72.6995 112.629 72.1687C112.687 71.638 112.547 71.1048 112.235 70.6711C111.924 70.2375 111.463 69.934 110.942 69.8189L84.3102 63.8943C83.7494 63.7696 83.1619 63.8728 82.6772 64.1812C82.1924 64.4895 81.85 64.9777 81.7253 65.5384C81.6007 66.0991 81.7039 66.6864 82.0123 67.171C82.3208 67.6556 82.8092 67.9978 83.3701 68.1225Z" fill="#141B4E"/>
</svg>
