<svg width="154" height="129" viewBox="0 0 154 129" fill="none" xmlns="http://www.w3.org/2000/svg">
<path opacity="0.15" d="M2 109.88C4.54429 114.577 8.133 118.629 12.4904 121.725C16.8478 124.821 21.8579 126.878 27.1358 127.738C27.5075 127.846 27.8924 127.901 28.2794 127.903H28.3782C31.0729 128.228 33.797 128.228 36.4917 127.903H130.672C131.051 127.902 131.428 127.848 131.792 127.743C141.779 126.662 149.991 119.462 152.8 109.856L2 109.88Z" fill="#AAAAAA" stroke="white" stroke-width="1.5" stroke-miterlimit="10"/>
<g opacity="0.69">
<path opacity="0.6" d="M123.975 103.705L115.08 88.3231V76.1043H115.669C116.086 76.1031 116.487 75.9368 116.782 75.6418C117.077 75.3468 117.244 74.9471 117.245 74.53V74.53C117.244 74.1133 117.077 73.714 116.782 73.4198C116.486 73.1256 116.086 72.9603 115.669 72.9603H107.009C106.593 72.9616 106.194 73.1273 105.899 73.4214C105.605 73.7155 105.439 74.1141 105.437 74.53V74.53C105.437 74.9467 105.603 75.3464 105.897 75.6415C106.192 75.9366 106.592 76.1031 107.009 76.1043H107.612V88.3231L98.7169 103.705C98.3579 104.327 98.1693 105.034 98.1698 105.752C98.1704 106.471 98.3602 107.177 98.7201 107.799C99.0801 108.421 99.5975 108.938 100.221 109.297C100.844 109.657 101.55 109.846 102.27 109.847H120.431C121.15 109.845 121.856 109.654 122.477 109.294C123.099 108.934 123.615 108.417 123.974 107.795C124.333 107.173 124.522 106.468 124.522 105.75C124.522 105.032 124.334 104.327 123.975 103.705V103.705Z" fill="#AAAAAA" stroke="white" stroke-width="1.5" stroke-miterlimit="10"/>
<path opacity="0.6" d="M91.4506 98.9911L74.6118 69.8539V46.6852H75.7319C76.5212 46.6828 77.2775 46.3685 77.8356 45.8112C78.3938 45.2538 78.7084 44.4986 78.7109 43.7104V43.7104C78.7084 42.9218 78.394 42.1661 77.836 41.608C77.278 41.0499 76.5217 40.7346 75.7319 40.7309H59.3356C58.545 40.7334 57.7875 41.0481 57.2285 41.6063C56.6694 42.1646 56.3543 42.921 56.3518 43.7104V43.7104C56.3543 44.4994 56.6696 45.2554 57.2288 45.8128C57.7879 46.3703 58.5454 46.684 59.3356 46.6852H60.4509V69.8539L43.6122 98.9911C42.9306 100.17 42.5718 101.507 42.5718 102.868C42.5719 104.229 42.9307 105.567 43.6122 106.745C44.2938 107.924 45.2741 108.903 46.4546 109.584C47.6351 110.264 48.9742 110.622 50.3373 110.622H84.7301C86.0928 110.622 87.4314 110.263 88.6112 109.582C89.791 108.901 90.7707 107.922 91.4517 106.743C92.1327 105.565 92.4911 104.228 92.4909 102.867C92.4907 101.506 92.1319 100.17 91.4506 98.9911V98.9911Z" fill="#AAAAAA" stroke="white" stroke-width="1.5" stroke-miterlimit="10"/>
<path opacity="0.44" d="M149.36 95.7813H146.857V88.732C146.857 88.6756 146.857 88.6192 146.857 88.5628H147.073C147.334 88.5628 147.584 88.4593 147.769 88.2751C147.953 88.0909 148.057 87.8411 148.057 87.5806C148.057 87.3201 147.953 87.0703 147.769 86.8861C147.584 86.7019 147.334 86.5984 147.073 86.5984H142.047C141.786 86.5984 141.536 86.7019 141.351 86.8861C141.167 87.0703 141.063 87.3201 141.063 87.5806C141.063 87.8411 141.167 88.0909 141.351 88.2751C141.536 88.4593 141.786 88.5628 142.047 88.5628H142.386C142.386 88.6192 142.386 88.6756 142.386 88.732V95.7813H138.79V88.732C138.79 88.6756 138.79 88.6192 138.79 88.5628H139.007C139.267 88.5628 139.518 88.4593 139.702 88.2751C139.887 88.0909 139.99 87.8411 139.99 87.5806C139.99 87.3201 139.887 87.0703 139.702 86.8861C139.518 86.7019 139.267 86.5984 139.007 86.5984H133.966C133.705 86.5984 133.455 86.7019 133.271 86.8861C133.086 87.0703 132.983 87.3201 132.983 87.5806C132.983 87.8411 133.086 88.0909 133.271 88.2751C133.455 88.4593 133.705 88.5628 133.966 88.5628H134.305C134.305 88.6192 134.305 88.6756 134.305 88.732V95.7813H132.084C131.993 95.7736 131.901 95.7848 131.815 95.8143C131.729 95.8437 131.65 95.8907 131.582 95.9524C131.515 96.014 131.462 96.0889 131.425 96.1723C131.388 96.2557 131.369 96.3458 131.369 96.4369C131.369 96.528 131.388 96.618 131.425 96.7014C131.462 96.7848 131.515 96.8597 131.582 96.9213C131.65 96.983 131.729 97.03 131.815 97.0594C131.901 97.0889 131.993 97.1001 132.084 97.0924H132.738V108.766C132.733 108.813 132.733 108.86 132.738 108.907C132.733 108.97 132.733 109.033 132.738 109.095C132.739 109.326 132.832 109.547 132.996 109.71C133.16 109.873 133.382 109.964 133.613 109.964H148.033C148.201 109.965 148.365 109.918 148.506 109.828C148.648 109.737 148.76 109.608 148.83 109.456C148.899 109.303 148.923 109.134 148.899 108.968C148.874 108.803 148.803 108.648 148.692 108.522V97.0689H149.346C149.511 97.055 149.664 96.9799 149.776 96.8585C149.887 96.7371 149.949 96.5782 149.949 96.4133C149.949 96.2485 149.887 96.0896 149.776 95.9682C149.664 95.8468 149.511 95.7717 149.346 95.7578L149.36 95.7813ZM147.614 108.197H133.849V97.0689H134.286V102.572C134.288 103.079 134.49 103.566 134.848 103.925C135.207 104.284 135.694 104.487 136.202 104.49H136.856C137.364 104.487 137.851 104.284 138.211 103.925C138.57 103.566 138.773 103.08 138.776 102.572V97.0689H142.372V102.572C142.373 103.079 142.575 103.566 142.934 103.925C143.292 104.284 143.779 104.487 144.287 104.49H144.941C145.45 104.487 145.937 104.284 146.296 103.925C146.656 103.566 146.859 103.08 146.861 102.572V97.0689H147.614V108.197Z" fill="#AAAAAA" stroke="white" stroke-width="1.5" stroke-miterlimit="10"/>
<path opacity="0.64" d="M63.7264 33.9354C63.1522 33.9342 62.6018 33.7062 62.1953 33.3011C61.7889 32.8961 61.5593 32.347 61.5569 31.7736V31.7736C61.5581 31.1994 61.7871 30.6491 62.1937 30.243C62.6003 29.837 63.1514 29.6084 63.7264 29.6071V29.6071C64.3014 29.6084 64.8525 29.837 65.2591 30.243C65.6657 30.6491 65.8947 31.1994 65.8959 31.7736C65.8935 32.347 65.6639 32.8961 65.2575 33.3011C64.851 33.7062 64.3006 33.9342 63.7264 33.9354V33.9354Z" fill="#AAAAAA" stroke="white" stroke-width="1.5" stroke-miterlimit="10"/>
<path opacity="0.64" d="M64.5594 17.299C63.9856 17.2978 63.4357 17.0696 63.03 16.6645C62.6243 16.2593 62.3958 15.7102 62.3946 15.1372V15.1372C62.3958 14.5638 62.6241 14.0142 63.0297 13.6083C63.4353 13.2024 63.9852 12.9732 64.5594 12.9707V12.9707C65.1344 12.972 65.6855 13.2006 66.0921 13.6067C66.4987 14.0127 66.7277 14.563 66.729 15.1372V15.1372C66.7265 15.7106 66.4969 16.2598 66.0905 16.6648C65.684 17.0698 65.1336 17.2978 64.5594 17.299V17.299Z" fill="#AAAAAA" stroke="white" stroke-width="1.5" stroke-miterlimit="10"/>
<path opacity="0.64" d="M70.9034 27.6991C69.9509 27.6954 69.0385 27.3159 68.365 26.6434C67.6916 25.9708 67.3115 25.0597 67.3078 24.1086C67.3115 23.158 67.6917 22.2474 68.3653 21.5756C69.0389 20.9038 69.9513 20.5254 70.9034 20.5229V20.5229C71.8549 20.5254 72.7668 20.9039 73.4397 21.5759C74.1126 22.2478 74.4917 23.1584 74.4942 24.1086V24.1086C74.4917 25.0593 74.1127 25.9704 73.44 26.6431C72.7673 27.3157 71.8554 27.6954 70.9034 27.6991V27.6991Z" fill="#AAAAAA" stroke="white" stroke-width="1.5" stroke-miterlimit="10"/>
<path opacity="0.64" d="M110.153 67.3773C109.789 67.3773 109.439 67.2327 109.181 66.9754C108.924 66.718 108.779 66.369 108.779 66.005V66.005C108.779 65.6406 108.923 65.2911 109.181 65.033C109.439 64.7749 109.788 64.6293 110.153 64.6281V64.6281C110.518 64.6293 110.868 64.7748 111.127 65.0327C111.385 65.2907 111.531 65.6402 111.532 66.005V66.005C111.531 66.3694 111.385 66.7184 111.126 66.9756C110.868 67.2329 110.518 67.3773 110.153 67.3773Z" fill="#AAAAAA" stroke="white" stroke-width="1.5" stroke-miterlimit="10"/>
<path opacity="0.64" d="M110.685 56.8033C110.32 56.8021 109.971 56.6573 109.713 56.4003C109.455 56.1434 109.308 55.7951 109.306 55.4311C109.307 55.0663 109.453 54.7167 109.711 54.4588C109.969 54.2008 110.319 54.0553 110.685 54.0541C111.049 54.0566 111.398 54.2026 111.655 54.4604C111.913 54.7182 112.058 55.0671 112.059 55.4311V55.4311C112.056 55.7943 111.911 56.1419 111.654 56.3987C111.397 56.6555 111.048 56.8009 110.685 56.8033V56.8033Z" fill="#AAAAAA" stroke="white" stroke-width="1.5" stroke-miterlimit="10"/>
<path opacity="0.64" d="M114.709 63.4156C114.104 63.4143 113.525 63.1744 113.098 62.7483C112.67 62.3221 112.429 61.7443 112.426 61.141V61.141C112.427 60.5369 112.668 59.9579 113.096 59.5307C113.524 59.1035 114.104 58.863 114.709 58.8617V58.8617C115.313 58.8642 115.891 59.1053 116.318 59.5323C116.745 59.9594 116.985 60.5377 116.986 61.141V61.141C116.984 61.7435 116.743 62.3206 116.316 62.7466C115.89 63.1727 115.312 63.4131 114.709 63.4156V63.4156Z" fill="#AAAAAA" stroke="white" stroke-width="1.5" stroke-miterlimit="10"/>
</g>
<path d="M28.7265 78.4447C29.7093 77.4558 30.2929 76.14 30.3658 74.7487C30.4387 73.3574 29.9958 71.988 29.1218 70.902C29.23 70.8503 29.3383 70.7986 29.4466 70.7375C30.2145 70.2997 30.8361 69.6454 31.2334 68.8565C31.6308 68.0676 31.7863 67.1792 31.6804 66.3025C31.5745 65.4258 31.212 64.5998 30.6382 63.9278C30.0645 63.2559 29.3049 62.7679 28.4547 62.525C27.6045 62.2821 26.7015 62.295 25.8586 62.5621C25.0157 62.8292 24.2706 63.3387 23.7163 64.0268C23.162 64.7149 22.8234 65.5509 22.7427 66.4303C22.662 67.3097 22.8428 68.1933 23.2626 68.9705C21.8609 69.3296 20.6507 70.2124 19.8818 71.4367C19.1129 72.661 18.844 74.1333 19.1306 75.5498C17.7594 76.1946 16.6163 77.2394 15.8522 78.5464C15.0881 79.8533 14.7389 81.3609 14.8506 82.8702C14.9623 84.3795 15.5299 85.8195 16.4782 87C17.4265 88.1805 18.711 89.0461 20.1622 89.4825C21.6134 89.9188 23.1629 89.9055 24.6063 89.4442C26.0498 88.9828 27.3191 88.0952 28.2469 86.8985C29.1746 85.7018 29.7171 84.2523 29.8027 82.7413C29.8884 81.2303 29.5131 79.7289 28.7265 78.4353V78.4447Z" fill="#AAAAAA" stroke="white" stroke-width="1.5" stroke-miterlimit="10"/>
<path d="M18.1611 99.5409H17.8928C17.8928 94.7991 20.0012 87.5712 21.7754 82.3453C23.6908 76.7059 25.6345 72.0909 25.6533 72.0439L25.9028 72.152C25.8228 72.3259 18.1611 90.5178 18.1611 99.5409Z" fill="#AAAAAA" stroke="white" stroke-width="1.5" stroke-miterlimit="10"/>
<path d="M11.1348 75.9399C11.32 75.2724 11.3313 74.5687 11.1677 73.8956C11.0168 73.2787 10.7208 72.7067 10.3042 72.2269C9.88757 71.7472 9.36241 71.3735 8.7723 71.1369C8.82407 71.0664 8.87116 70.9959 8.91822 70.9207C9.24316 70.3852 9.40258 69.7659 9.3766 69.1403C9.35063 68.5146 9.1404 67.9106 8.77219 67.4038C8.40397 66.8969 7.89418 66.5099 7.30667 66.2911C6.71916 66.0722 6.08005 66.0314 5.46941 66.1737C4.85877 66.3159 4.30373 66.6349 3.87383 67.0908C3.44394 67.5466 3.15833 68.119 3.05272 68.7362C2.94711 69.3534 3.02622 69.988 3.28016 70.5605C3.5341 71.133 3.95156 71.618 4.48026 71.9547C3.73869 72.6626 3.29635 73.627 3.24385 74.6502C3.19135 75.6734 3.53268 76.6778 4.1979 77.4578C3.57191 78.329 3.22522 79.3693 3.20358 80.4414C3.18194 81.5134 3.48637 82.5668 4.07668 83.4625C4.667 84.3582 5.51541 85.0541 6.50998 85.4582C7.50455 85.8624 8.59847 85.9559 9.64736 85.7264C10.6962 85.4969 11.6508 84.9552 12.385 84.1727C13.1191 83.3902 13.5984 82.4038 13.7595 81.3437C13.9207 80.2835 13.7561 79.1995 13.2875 78.2348C12.8189 77.27 12.0683 76.4698 11.1348 75.9399V75.9399Z" fill="#AAAAAA" stroke="white" stroke-width="1.5" stroke-miterlimit="10"/>
<path d="M15.8127 99.7148L15.648 99.8041C13.3278 95.6497 11.0971 88.5864 9.63351 83.3981C8.05223 77.7586 7.0074 73.0591 6.99329 73.0309H7.20039C7.24274 73.2236 11.403 91.8102 15.8127 99.7148Z" fill="#AAAAAA" stroke="white" stroke-width="1.5" stroke-miterlimit="10"/>
<path d="M22.0439 95.2502H22.218C22.5962 95.2502 22.9588 95.1002 23.2263 94.8332C23.4937 94.5661 23.6439 94.2039 23.6439 93.8263C23.6439 93.4486 23.4937 93.0864 23.2263 92.8194C22.9588 92.5523 22.5962 92.4023 22.218 92.4023H10.1937C9.8192 92.3848 9.45314 92.5166 9.17601 92.7687C8.89888 93.0208 8.73338 93.3724 8.7159 93.7464C8.69843 94.1203 8.83041 94.4858 9.08283 94.7626C9.33524 95.0393 9.68742 95.2046 10.0619 95.222C8.83034 96.4137 7.98311 97.9454 7.62874 99.6209C7.27437 101.296 7.42904 103.039 8.07282 104.627C8.71661 106.214 9.82019 107.573 11.2423 108.53C12.6644 109.487 14.3403 109.998 16.0552 109.998C17.7701 109.998 19.4459 109.487 20.8681 108.53C22.2902 107.573 23.3938 106.214 24.0376 104.627C24.6814 103.039 24.836 101.296 24.4816 99.6209C24.1273 97.9454 23.28 96.4137 22.0485 95.222L22.0439 95.2502Z" fill="#AAAAAA" stroke="white" stroke-width="1.5" stroke-miterlimit="10"/>
<g style="mix-blend-mode:screen">
<path d="M88.0762 82.4487C86.4055 81.5605 84.6266 81.6451 84.1042 82.6367C83.5818 83.6283 84.5042 85.1415 86.1749 86.0251C87.8456 86.9086 90.1469 85.8371 90.1469 85.8371C90.1469 85.8371 89.7281 83.3322 88.0762 82.4487Z" fill="#78F400" stroke="white" stroke-width="1.5" stroke-miterlimit="10"/>
<path d="M100.552 84.6105C101.87 83.257 102.289 81.5323 101.494 80.7522C100.698 79.9721 98.971 80.4326 97.6533 81.7861C96.3356 83.1396 96.712 85.6444 96.712 85.6444C96.712 85.6444 99.211 85.9593 100.552 84.6105Z" fill="#78F400" stroke="white" stroke-width="1.5" stroke-miterlimit="10"/>
<path d="M101.141 92.8065C102.722 91.6175 103.433 89.8928 102.727 88.9575C102.021 88.0223 100.162 88.2291 98.5805 89.4275C96.9992 90.6259 96.9944 93.2764 96.9944 93.2764C96.9944 93.2764 99.5546 93.9954 101.141 92.8065Z" fill="#78F400" stroke="white" stroke-width="1.5" stroke-miterlimit="10"/>
<path d="M87.5915 89.6954C85.9067 88.6568 84.0383 88.6239 83.4218 89.6249C82.8053 90.6259 83.6759 92.2707 85.3608 93.3093C87.0456 94.3479 89.5304 93.3798 89.5304 93.3798C89.5304 93.3798 89.2575 90.734 87.5915 89.6954Z" fill="#78F400" stroke="white" stroke-width="1.5" stroke-miterlimit="10"/>
<path d="M94.0855 77.8573H93.3895V106.924H94.0855V77.8573Z" fill="#78F400" stroke="white" stroke-width="1.5" stroke-miterlimit="10"/>
<path d="M93.7801 88.5393L85.8878 83.7317L86.2502 83.1395L93.6907 87.6699L99.4746 82.2701L99.9499 82.7824L93.7801 88.5393Z" fill="#78F400" stroke="white" stroke-width="1.5" stroke-miterlimit="10"/>
<path d="M93.7613 95.7672L86.0525 92.1861L86.349 91.5517L93.7095 94.9777L101.084 90.2781L101.461 90.8656L93.7613 95.7672Z" fill="#78F400" stroke="white" stroke-width="1.5" stroke-miterlimit="10"/>
<path d="M101.423 69.5814C101.423 62.4146 97.978 56.6013 93.7237 56.6013C89.4693 56.6013 86.0196 62.4146 86.0196 69.5814C86.0196 76.7482 93.7237 82.5615 93.7237 82.5615C93.7237 82.5615 101.423 76.7529 101.423 69.5814Z" fill="#78F400" stroke="white" stroke-width="1.5" stroke-miterlimit="10"/>
<path d="M94.0338 62.1091H93.3378V81.3819H94.0338V62.1091Z" fill="#78F400" stroke="white" stroke-width="1.5" stroke-miterlimit="10"/>
<path d="M93.6766 70.6905L90.6646 67.2551L91.1917 66.7993L93.6907 69.6566L96.3827 66.7899L96.8909 67.2645L93.6766 70.6905Z" fill="#78F400" stroke="white" stroke-width="1.5" stroke-miterlimit="10"/>
<path d="M93.6766 75.6109L90.6646 72.1708L91.1917 71.7149L93.6907 74.5723L96.3827 71.7056L96.8909 72.1802L93.6766 75.6109Z" fill="#78F400" stroke="white" stroke-width="1.5" stroke-miterlimit="10"/>
</g>
<path d="M58.5449 38.085C58.5449 39.6406 57.773 40.9048 56.8224 40.9048C55.8717 40.9048 55.1 39.6406 55.1 38.085C55.1 36.5295 56.8224 35.2653 56.8224 35.2653C56.8224 35.2653 58.5449 36.5248 58.5449 38.085Z" fill="#AAAAAA" stroke="white" stroke-width="1.5" stroke-miterlimit="10"/>
<path d="M21.6107 23.8455H15.9633C15.7028 23.8443 15.4534 23.7404 15.2692 23.5565C15.085 23.3725 14.981 23.1234 14.9797 22.8633C14.981 22.6032 15.085 22.3541 15.2692 22.1701C15.4534 21.9862 15.7028 21.8823 15.9633 21.8811H21.6107C21.8712 21.8823 22.1207 21.9862 22.3049 22.1701C22.4891 22.3541 22.5931 22.6032 22.5943 22.8633V22.8633C22.5931 23.1234 22.4891 23.3725 22.3049 23.5565C22.1207 23.7404 21.8712 23.8443 21.6107 23.8455V23.8455Z" fill="#AAAAAA" stroke="white" stroke-width="1.5" stroke-miterlimit="10"/>
<g style="mix-blend-mode:screen" opacity="0.83">
<path opacity="0.29" d="M106.637 73.1483C103.774 75.6237 100.067 76.9042 96.2839 76.7247C88.2834 76.2547 82.7536 69.3746 82.8618 61.6391C82.9814 59.271 83.7267 56.9767 85.0219 54.9893C83.2637 56.6194 81.9209 58.6453 81.1054 60.8984C80.2899 63.1515 80.0252 65.5665 80.3334 67.9424C80.6417 70.3183 81.5139 72.5863 82.8774 74.5575C84.241 76.5287 86.0564 78.146 88.1725 79.2749C90.2887 80.4037 92.6443 81.0113 95.0432 81.0472C97.442 81.083 99.8148 80.546 101.964 79.4809C104.113 78.4158 105.976 76.8534 107.398 74.9238C108.82 72.9942 109.76 70.7533 110.139 68.3877C109.298 70.1897 108.108 71.8077 106.637 73.1483V73.1483Z" fill="url(#paint0_radial_16_1316)" stroke="white" stroke-width="1.5" stroke-miterlimit="10"/>
<path d="M103.254 49.3546C99.962 47.7806 96.2768 47.2167 92.6641 47.7341C89.0515 48.2516 85.6736 49.8272 82.9577 52.2617C80.2418 54.6962 78.3097 57.8802 77.4059 61.4111C76.5022 64.9421 76.6672 68.6614 77.8802 72.0987C79.0932 75.5359 81.2996 78.5369 84.2205 80.7219C87.1415 82.907 90.6456 84.1781 94.29 84.3744C97.9343 84.5708 101.555 83.6836 104.694 81.8251C107.834 79.9666 110.351 77.2202 111.927 73.9332C112.974 71.7507 113.581 69.3836 113.712 66.967C113.843 64.5505 113.495 62.1319 112.69 59.8494C111.885 57.5669 110.637 55.4652 109.017 53.6644C107.398 51.8637 105.44 50.3992 103.254 49.3546V49.3546ZM108.854 72.4622C107.569 75.147 105.515 77.3906 102.952 78.9091C100.389 80.4276 97.4323 81.1526 94.4566 80.9925C91.4808 80.8323 88.6196 79.7941 86.235 78.0094C83.8504 76.2246 82.0496 73.7735 81.0607 70.9663C80.0718 68.159 79.9391 65.1219 80.6795 62.2394C81.4199 59.3569 83.0001 56.7585 85.22 54.7732C87.44 52.7878 90.1998 51.5048 93.1503 51.0865C96.1008 50.6682 99.1092 51.1335 101.795 52.4234C105.389 54.1495 108.15 57.2286 109.474 60.9852C110.797 64.7419 110.574 68.8694 108.854 72.4622V72.4622Z" fill="url(#paint1_radial_16_1316)" stroke="white" stroke-width="1.5" stroke-miterlimit="10"/>
<path d="M133.646 103.55L107.583 76.5978C106.607 78.1148 105.299 79.3907 103.757 80.3292L129.9 107.361C130.141 107.61 130.43 107.809 130.749 107.944C131.069 108.079 131.412 108.149 131.759 108.149C132.106 108.149 132.45 108.079 132.769 107.944C133.088 107.809 133.377 107.61 133.618 107.361C134.112 106.851 134.39 106.17 134.396 105.461C134.401 104.751 134.132 104.067 133.646 103.55V103.55Z" fill="url(#paint2_radial_16_1316)" stroke="white" stroke-width="1.5" stroke-miterlimit="10"/>
<path d="M98.8312 60.5186L88.9541 69.2786L89.1854 69.5386L99.0625 60.7786L98.8312 60.5186Z" fill="url(#paint3_radial_16_1316)" stroke="white" stroke-width="1.5" stroke-miterlimit="10"/>
<path d="M100.377 62.6177L90.4997 71.3776L90.731 71.6376L100.608 62.8777L100.377 62.6177Z" fill="url(#paint4_radial_16_1316)" stroke="white" stroke-width="1.5" stroke-miterlimit="10"/>
<path d="M127.571 112.079L127.458 120.13L126.389 120.073L125.26 112.192C125.26 112.192 127.119 111.346 127.571 112.079Z" fill="url(#paint5_radial_16_1316)" stroke="white" stroke-width="1.5" stroke-miterlimit="10"/>
<path d="M131.18 111.515L131.067 119.566L129.994 119.509L128.87 111.628C128.87 111.628 130.728 110.782 131.18 111.515Z" fill="url(#paint6_radial_16_1316)" stroke="white" stroke-width="1.5" stroke-miterlimit="10"/>
<path d="M126.389 120.073L124.3 121.201C124.3 121.201 125.293 121.572 127.406 121.201L127.458 120.13L126.389 120.073Z" fill="url(#paint7_radial_16_1316)" stroke="white" stroke-width="1.5" stroke-miterlimit="10"/>
<path d="M130.117 119.326L128.027 120.454C128.027 120.454 129.02 120.83 131.133 120.454L131.185 119.382L130.117 119.326Z" fill="url(#paint8_radial_16_1316)" stroke="white" stroke-width="1.5" stroke-miterlimit="10"/>
<path d="M129.674 93.643C129.674 93.643 130.145 93.0603 130.437 93.6007C130.728 94.1412 130.079 95.0106 129.543 94.8978C129.006 94.785 129.674 93.643 129.674 93.643Z" fill="url(#paint9_radial_16_1316)" stroke="white" stroke-width="1.5" stroke-miterlimit="10"/>
<path d="M129.853 94.8978L129.764 96.7353C129.764 96.7353 128.352 97.3134 127.702 96.8246L127.655 94.9871C127.655 94.9871 129.731 94.3151 129.853 94.8978Z" fill="url(#paint10_radial_16_1316)" stroke="white" stroke-width="1.5" stroke-miterlimit="10"/>
<path d="M127.208 96.7776L130.168 96.3076L130.258 97.116L132.474 112.624C132.474 112.624 126.163 113.564 123.966 112.737L126.502 97.5389L127.232 97.3697L127.175 97.0314" fill="url(#paint11_radial_16_1316)"/>
<path d="M127.208 96.7776L130.168 96.3076L130.258 97.116L132.474 112.624C132.474 112.624 126.163 113.564 123.966 112.737L126.502 97.5389L127.232 97.3697L127.175 97.0314" stroke="white" stroke-width="1.5" stroke-miterlimit="10"/>
<path d="M127.966 98.399C127.966 98.399 128.87 100.373 124.865 103.075C124.865 103.075 123.57 103.578 121.429 98.7937L122.61 98.0089L125.034 100.655C125.034 100.655 125.994 97.1066 127.966 98.399Z" fill="url(#paint12_radial_16_1316)" stroke="white" stroke-width="1.5" stroke-miterlimit="10"/>
<path d="M130.201 109.213C130.088 108.489 129.547 97.788 129.524 97.3322H129.613C129.613 97.4402 130.177 108.479 130.286 109.203L130.201 109.213Z" fill="url(#paint13_radial_16_1316)" stroke="white" stroke-width="1.5" stroke-miterlimit="10"/>
<g opacity="0.71">
<path d="M127.401 106.966L125.763 106.91C125.671 106.906 125.584 106.866 125.521 106.798C125.459 106.73 125.426 106.64 125.429 106.548C125.433 106.456 125.473 106.369 125.541 106.306C125.609 106.244 125.699 106.211 125.792 106.214L127.425 106.271C127.517 106.271 127.606 106.307 127.671 106.373C127.736 106.438 127.773 106.526 127.773 106.618C127.773 106.711 127.736 106.799 127.671 106.864C127.606 106.93 127.517 106.966 127.425 106.966H127.401Z" fill="url(#paint14_radial_16_1316)" stroke="white" stroke-width="1.5" stroke-miterlimit="10"/>
</g>
<path d="M121.198 98.5399L121.344 98.7561L122.168 98.1875C122.289 97.9875 122.338 97.7517 122.304 97.5201C122.238 97.1254 122.248 96.6648 121.998 96.7306C121.998 96.7306 121.947 96.7306 121.966 97.0173C121.966 97.1536 121.966 97.2241 121.9 97.2523L121.429 96.7823C121.429 96.7823 120.958 95.7672 120.784 95.8847C120.765 95.9011 120.751 95.9229 120.745 95.9471C120.738 95.9714 120.739 95.9971 120.747 96.021C120.747 96.0868 121.067 96.6507 121.217 96.9233L121.142 96.9797C121.142 96.9797 120.483 95.9082 120.333 96.0398C120.317 96.0628 120.309 96.0898 120.309 96.1173C120.309 96.1449 120.317 96.1718 120.333 96.1949C120.37 96.2654 120.803 96.881 120.968 97.163L120.902 97.2194C120.813 97.0925 120.257 96.3264 120.13 96.458C120.116 96.4798 120.109 96.5051 120.109 96.5309C120.109 96.5567 120.116 96.5819 120.13 96.6037C120.163 96.6601 120.53 97.1442 120.728 97.3932L120.69 97.4308C120.634 97.3557 120.22 96.8011 120.102 96.9233C120.091 96.941 120.085 96.9613 120.085 96.982C120.085 97.0028 120.091 97.0231 120.102 97.0408C120.102 97.0878 120.464 97.5107 120.573 97.6423L121.198 98.5399Z" fill="url(#paint15_radial_16_1316)" stroke="white" stroke-width="1.5" stroke-miterlimit="10"/>
<path d="M130.451 92.5856C130.456 92.014 130.244 91.4616 129.859 91.0392C129.473 90.6168 128.942 90.3556 128.371 90.3081C127.801 90.2605 127.233 90.4301 126.783 90.7827C126.332 91.1354 126.032 91.6451 125.942 92.2097C125.928 92.2383 125.917 92.2682 125.909 92.299C125.909 92.299 125.909 92.36 125.909 92.4587C125.909 92.5574 125.909 92.5433 125.909 92.5856C125.909 92.7292 125.923 92.8725 125.952 93.0133C125.952 93.1073 125.952 93.2107 125.952 93.3141L125.712 94.362L126.079 94.4091C126.201 95.2127 126.394 95.9646 126.691 96.0633C127.364 96.2842 128.888 96.2419 129.204 95.8377C129.465 95.3118 129.656 94.7541 129.773 94.1788C130.201 93.758 130.445 93.1852 130.451 92.5856V92.5856Z" fill="url(#paint16_radial_16_1316)" stroke="white" stroke-width="1.5" stroke-miterlimit="10"/>
<path d="M125.905 90.8985C125.905 90.8985 126.074 91.9606 127.811 91.8384L128.371 92.6185C128.371 92.6185 128.874 93.8498 128.592 94.2963C128.592 94.2963 128.982 94.6863 129.208 93.8263C129.434 92.9663 129.655 92.7078 130.272 92.9898L130.531 93.9767C130.531 93.9767 130.888 91.7021 130.385 91.312C130.385 91.3449 128.982 88.9952 125.905 90.8985Z" fill="url(#paint17_radial_16_1316)" stroke="white" stroke-width="1.5" stroke-miterlimit="10"/>
</g>
<path d="M116.756 120.374V112.107H71.5058V120.374C71.4728 120.431 71.4535 120.496 71.4493 120.562C71.4493 122.099 81.6053 123.339 94.1284 123.339C106.652 123.339 116.812 122.099 116.812 120.562C116.808 120.496 116.789 120.431 116.756 120.374Z" fill="#AAAAAA" stroke="white" stroke-width="1.5" stroke-miterlimit="10"/>
<path opacity="0.25" d="M92.3541 112.107H87.9256C84.6282 115.595 81.3103 119.063 77.972 122.512C79.7651 122.738 81.8688 122.921 84.1983 123.062L92.3541 112.107Z" fill="#AAAAAA" stroke="white" stroke-width="1.5" stroke-miterlimit="10"/>
<path opacity="0.25" d="M96.7874 123.321C98.9617 119.561 101.207 115.801 103.484 112.107H98.4252C95.6391 115.833 92.8593 119.563 90.0858 123.297C91.4035 123.325 92.7574 123.339 94.1473 123.339C95.0226 123.339 95.9027 123.335 96.7874 123.321Z" fill="#AAAAAA" stroke="white" stroke-width="1.5" stroke-miterlimit="10"/>
<path d="M94.1285 114.908C106.701 114.908 116.892 113.665 116.892 112.131C116.892 110.597 106.701 109.354 94.1285 109.354C81.5563 109.354 71.3646 110.597 71.3646 112.131C71.3646 113.665 81.5563 114.908 94.1285 114.908Z" fill="#AAAAAA" stroke="white" stroke-width="1.5" stroke-miterlimit="10"/>
<path opacity="0.33" d="M94.1661 114.904C106.756 114.904 116.963 113.837 116.963 112.521C116.963 111.205 106.756 110.138 94.1661 110.138C81.5758 110.138 71.3693 111.205 71.3693 112.521C71.3693 113.837 81.5758 114.904 94.1661 114.904Z" fill="#AAAAAA" stroke="white" stroke-width="1.5" stroke-miterlimit="10"/>
<path d="M102.769 105.232C102.475 105.233 102.183 105.271 101.898 105.345C101.935 104.705 101.777 104.07 101.443 103.522C101.11 102.975 100.618 102.541 100.032 102.28C99.4465 102.018 98.795 101.941 98.1642 102.058C97.5334 102.174 96.9531 102.48 96.5003 102.934C96.4822 102.949 96.4664 102.966 96.4533 102.986C96.299 102.459 96.0099 101.981 95.6145 101.599C95.219 101.217 94.7309 100.945 94.198 100.809C93.6651 100.673 93.106 100.677 92.5755 100.823C92.0451 100.968 91.5617 101.248 91.1729 101.637C90.8501 101.957 90.6012 102.343 90.4434 102.77C89.9694 102.464 89.4223 102.291 88.8588 102.268C88.2954 102.246 87.7359 102.373 87.2386 102.639C86.7413 102.905 86.3241 103.298 86.0304 103.779C85.7366 104.26 85.5769 104.81 85.5678 105.373H85.356C84.4305 105.407 83.5541 105.797 82.9112 106.463C82.2683 107.129 81.9091 108.018 81.9091 108.942C81.9091 109.867 82.2683 110.756 82.9112 111.422C83.5541 112.087 84.4305 112.478 85.356 112.512C85.6743 112.511 85.9911 112.467 86.2973 112.38H102.298H102.524H102.755C103.68 112.347 104.557 111.956 105.2 111.29C105.843 110.624 106.202 109.736 106.202 108.811C106.202 107.886 105.843 106.997 105.2 106.331C104.557 105.666 103.68 105.275 102.755 105.241L102.769 105.232Z" fill="#AAAAAA" stroke="white" stroke-width="1.5" stroke-miterlimit="10"/>
<path opacity="0.15" d="M99.7711 107.493C99.5789 107.493 99.3876 107.519 99.2017 107.568C99.2256 107.149 99.1214 106.732 98.9029 106.373C98.6844 106.014 98.3621 105.73 97.9784 105.559C97.5947 105.387 97.1678 105.336 96.7543 105.412C96.3407 105.488 95.9601 105.687 95.6626 105.984L95.6297 106.017C95.5332 105.682 95.3517 105.378 95.1026 105.133C93.1435 105.688 91.1301 106.03 89.0975 106.153C88.7227 106.529 88.5056 107.033 88.4904 107.563H88.3492C87.7251 107.563 87.1266 107.811 86.6853 108.251C86.244 108.692 85.9961 109.29 85.9961 109.913C85.9961 110.536 86.244 111.134 86.6853 111.574C87.1266 112.015 87.7251 112.263 88.3492 112.263C88.5594 112.262 88.7685 112.232 88.9704 112.173H99.7711C100.395 112.173 100.994 111.926 101.435 111.485C101.876 111.044 102.124 110.447 102.124 109.823C102.124 109.2 101.876 108.603 101.435 108.162C100.994 107.721 100.395 107.474 99.7711 107.474V107.493Z" fill="#AAAAAA" stroke="white" stroke-width="1.5" stroke-miterlimit="10"/>
<path opacity="0.28" d="M98.8393 104.527C99.1694 104.527 99.437 104.226 99.437 103.855C99.437 103.484 99.1694 103.183 98.8393 103.183C98.5092 103.183 98.2416 103.484 98.2416 103.855C98.2416 104.226 98.5092 104.527 98.8393 104.527Z" fill="#AAAAAA" stroke="white" stroke-width="1.5" stroke-miterlimit="10"/>
<path opacity="0.28" d="M100.778 105.867C100.778 105.959 100.751 106.05 100.699 106.128C100.647 106.205 100.574 106.265 100.488 106.301C100.402 106.336 100.307 106.346 100.216 106.327C100.125 106.309 100.041 106.265 99.975 106.199C99.9092 106.133 99.8644 106.049 99.8462 105.958C99.828 105.867 99.8374 105.773 99.873 105.687C99.9086 105.601 99.9689 105.527 100.046 105.476C100.124 105.424 100.215 105.397 100.308 105.397C100.371 105.392 100.434 105.402 100.493 105.424C100.552 105.446 100.605 105.481 100.65 105.525C100.694 105.57 100.729 105.623 100.751 105.682C100.773 105.741 100.783 105.804 100.778 105.867V105.867Z" fill="#AAAAAA" stroke="white" stroke-width="1.5" stroke-miterlimit="10"/>
<path opacity="0.28" d="M85.709 108.625C85.709 108.846 85.6433 109.063 85.5202 109.247C85.3971 109.431 85.2223 109.574 85.0176 109.659C84.8129 109.743 84.5877 109.765 84.3704 109.722C84.1532 109.679 83.9536 109.573 83.7969 109.416C83.6403 109.26 83.5336 109.06 83.4904 108.843C83.4472 108.626 83.4694 108.402 83.5542 108.197C83.6389 107.993 83.7824 107.818 83.9666 107.695C84.1508 107.572 84.3674 107.507 84.5889 107.507C84.736 107.507 84.8817 107.536 85.0176 107.592C85.1535 107.648 85.277 107.73 85.381 107.834C85.485 107.938 85.5675 108.061 85.6237 108.197C85.68 108.333 85.709 108.478 85.709 108.625Z" fill="#AAAAAA" stroke="white" stroke-width="1.5" stroke-miterlimit="10"/>
<path d="M57.0155 31.9475L45.9418 25.8381C47.6327 22.7989 48.1089 19.2332 47.2746 15.8578C46.4402 12.4823 44.3572 9.54739 41.4443 7.64297C38.5314 5.73855 35.0045 5.00583 31.5727 5.59211C28.1409 6.1784 25.0585 8.04021 22.9452 10.8033C20.832 13.5664 19.8444 17.0258 20.1812 20.4863C20.518 23.9468 22.1541 27.1516 24.7606 29.4567C27.3671 31.7617 30.7508 32.996 34.2314 32.9115C37.7121 32.8269 41.0316 31.4298 43.5228 29.0009L55.2883 34.3866L57.0155 31.9475Z" fill="#AAAAAA" stroke="white" stroke-width="1.5" stroke-miterlimit="10"/>
<path d="M38.6802 19.6159C35.5411 19.0754 32.7174 17.7784 29.7666 16.6552C27.6018 15.8281 25.2205 15.0385 22.9568 15.2876C22.3923 16.6379 22.1027 18.0869 22.105 19.5501C22.105 25.8522 27.3853 30.9653 33.9034 30.9653C40.4215 30.9653 45.6124 25.9368 45.7018 19.6864C43.3726 20.0388 41.0018 20.0149 38.6802 19.6159Z" fill="#AAAAAA" stroke="white" stroke-width="1.5" stroke-miterlimit="10"/>
<path d="M44.5017 18.098C44.2958 18.0977 44.0967 18.025 43.9392 17.8926C43.7816 17.7603 43.6758 17.5767 43.6404 17.3742C42.3415 9.59178 34.8399 9.76096 34.5245 9.77036C34.2936 9.77846 34.069 9.69465 33.9 9.53734C33.7309 9.38002 33.6315 9.16209 33.6233 8.93151C33.6152 8.70093 33.6992 8.47656 33.8567 8.30778C34.0142 8.13901 34.2324 8.03966 34.4634 8.03156C34.5528 8.03156 43.8099 7.81536 45.3582 17.0875C45.3771 17.2002 45.3735 17.3154 45.3478 17.4267C45.3221 17.538 45.2746 17.6431 45.2082 17.736C45.1418 17.829 45.0576 17.908 44.9606 17.9685C44.8636 18.0289 44.7556 18.0697 44.6428 18.0886C44.5962 18.0964 44.5489 18.0995 44.5017 18.098V18.098Z" fill="#AAAAAA" stroke="white" stroke-width="1.5" stroke-miterlimit="10"/>
<path d="M49.3256 21.8951H23.0886V1.44273C23.0886 1.26324 23.0172 1.09111 22.8901 0.964196C22.763 0.837283 22.5906 0.765991 22.4108 0.765991C22.2311 0.765991 22.0587 0.837283 21.9317 0.964196C21.8046 1.09111 21.7332 1.26324 21.7332 1.44273V21.8951H20.599C20.3789 21.8964 20.1682 21.9845 20.013 22.1404C19.8578 22.2963 19.7707 22.5071 19.7707 22.7269V23.1593C19.7707 23.3786 19.8579 23.589 20.0133 23.7441C20.1686 23.8992 20.3793 23.9864 20.599 23.9864H21.7332V71.5081C21.5286 71.5665 21.3487 71.6898 21.2206 71.8594C21.0924 72.029 21.0232 72.2356 21.0232 72.448C21.0232 72.6605 21.0924 72.8671 21.2206 73.0367C21.3487 73.2063 21.5286 73.3296 21.7332 73.3879V117.615H19.5212C19.2279 117.615 18.9466 117.732 18.7392 117.939C18.5318 118.146 18.4153 118.427 18.4153 118.72C18.4153 119.013 18.5318 119.293 18.7392 119.501C18.9466 119.708 19.2279 119.824 19.5212 119.824H46.3183C46.6116 119.824 46.8929 119.708 47.1003 119.501C47.3077 119.293 47.4242 119.013 47.4242 118.72C47.4242 118.427 47.3077 118.146 47.1003 117.939C46.8929 117.732 46.6116 117.615 46.3183 117.615H23.0886V73.4396H27.6347C27.6755 73.4422 27.7163 73.4422 27.7571 73.4396V74.9247C27.7583 75.1524 27.8494 75.3704 28.0107 75.5315C28.1719 75.6925 28.3903 75.7835 28.6183 75.7847C28.8467 75.7847 29.0658 75.6941 29.2273 75.5328C29.3888 75.3715 29.4795 75.1528 29.4795 74.9247V69.9996C29.4783 69.7719 29.3872 69.5538 29.226 69.3928C29.0647 69.2318 28.8464 69.1408 28.6183 69.1396C28.3903 69.1408 28.1719 69.2318 28.0107 69.3928C27.8494 69.5538 27.7583 69.7719 27.7571 69.9996V71.4846H27.6347H23.0886V24.0193H49.3256C49.5457 24.0193 49.7568 23.9323 49.9129 23.7773C50.069 23.6223 50.1573 23.412 50.1586 23.1922V22.7598C50.1623 22.648 50.1436 22.5366 50.1035 22.4321C50.0634 22.3277 50.0027 22.2323 49.925 22.1517C49.8474 22.0711 49.7543 22.0068 49.6513 21.9627C49.5484 21.9187 49.4376 21.8957 49.3256 21.8951Z" fill="#AAAAAA" stroke="white" stroke-width="1.5" stroke-miterlimit="10"/>
<path d="M15.5868 19.9166C15.3588 19.9179 15.1405 20.0089 14.9792 20.1699C14.818 20.3309 14.7268 20.5489 14.7256 20.7766V25.6876C14.7256 25.9157 14.8163 26.1345 14.9778 26.2958C15.1394 26.4571 15.3584 26.5477 15.5868 26.5477C15.8152 26.5477 16.0343 26.4571 16.1958 26.2958C16.3573 26.1345 16.4481 25.9157 16.4481 25.6876V20.7766C16.4481 20.5486 16.3573 20.3298 16.1958 20.1685C16.0343 20.0072 15.8152 19.9166 15.5868 19.9166V19.9166Z" fill="#AAAAAA" stroke="white" stroke-width="1.5" stroke-miterlimit="10"/>
<g style="mix-blend-mode:screen">
<path d="M63.51 52.3998H37.5883C35.7482 52.3998 34.2469 53.3773 34.2469 54.5663C34.2469 55.7553 35.7482 56.7328 37.5883 56.7328H37.9695V107.85C37.9695 112.333 43.6169 115.999 50.5491 115.999C57.4814 115.999 63.1241 112.333 63.1241 107.85V56.7328H63.51C65.3454 56.7328 66.8514 55.7553 66.8514 54.5663C66.8514 53.3773 65.3454 52.3998 63.51 52.3998Z" fill="url(#paint18_radial_16_1316)" stroke="white" stroke-width="1.5" stroke-miterlimit="10"/>
<path d="M39.6355 93.4785V104.024C39.6355 109.56 44.544 114.086 50.5491 114.086C56.5542 114.086 61.4628 109.56 61.4628 104.024V93.4785H39.6355Z" fill="url(#paint19_radial_16_1316)" stroke="white" stroke-width="1.5" stroke-miterlimit="10"/>
<path d="M47.043 49.8574C47.043 46.9343 48.4549 44.5704 50.182 44.5704C51.9092 44.5704 53.3211 46.9202 53.3211 49.8574C53.3211 52.7946 50.182 55.1444 50.182 55.1444C50.182 55.1444 47.043 52.7758 47.043 49.8574Z" fill="url(#paint20_radial_16_1316)" stroke="white" stroke-width="1.5" stroke-miterlimit="10"/>
<path d="M53.4105 63.5754C55.2223 61.2867 57.7967 60.2857 59.1568 61.376C60.5168 62.4663 60.145 65.1779 58.3285 67.4854C56.5119 69.7928 52.5822 69.6848 52.5822 69.6848C52.5822 69.6848 51.608 65.864 53.4105 63.5754Z" fill="url(#paint21_radial_16_1316)" stroke="white" stroke-width="1.5" stroke-miterlimit="10"/>
<path d="M43.4945 60.328C41.7768 58.7677 41.1415 56.6764 42.0827 55.6613C43.0239 54.6462 45.1511 55.0833 46.8736 56.6435C48.596 58.2038 48.2854 61.3102 48.2854 61.3102C48.2854 61.3102 45.217 61.8882 43.4945 60.328Z" fill="url(#paint22_radial_16_1316)" stroke="white" stroke-width="1.5" stroke-miterlimit="10"/>
<path d="M42.878 73.6935C41.4662 71.8606 41.1697 69.6941 42.2568 68.8482C43.344 68.0023 45.3771 68.7965 46.8078 70.6293C48.2384 72.4622 47.4337 75.4699 47.4337 75.4699C47.4337 75.4699 44.3087 75.5028 42.878 73.6935Z" fill="url(#paint23_radial_16_1316)" stroke="white" stroke-width="1.5" stroke-miterlimit="10"/>
<path d="M50.728 98.4224V84.5823L56.7378 78.0029L56.2201 77.533L50.728 83.5625V72.1144L58.6815 62.8093L58.1544 62.3394L50.728 71.0241V47.7003H50.0268V62.048L44.1252 57.2451L43.6828 57.7855L50.0268 62.955V77.923L44.6476 71.5035L44.1111 71.9499L50.0268 78.9992V84.3144L49.9467 84.4037L50.0268 84.4789V98.3895C49.9916 98.661 49.9916 98.9358 50.0268 99.2072V100.011C49.1962 100.373 48.3259 100.637 47.4336 100.796C47.1246 100.776 46.8152 100.83 46.5312 100.953C46.2472 101.077 45.9967 101.266 45.8006 101.505C45.6479 101.764 45.5619 102.057 45.5504 102.357C45.5389 102.657 45.6022 102.956 45.7347 103.225C45.8806 103.611 46.0171 103.897 46.1159 104.109C46.1847 104.234 46.24 104.367 46.2807 104.504C46.0978 104.684 45.8939 104.842 45.6735 104.974L46.0594 105.552C47.0007 104.912 47.1701 104.71 46.7466 103.817C46.6477 103.606 46.5254 103.348 46.3889 102.986C46.3019 102.819 46.2564 102.633 46.2564 102.445C46.2564 102.257 46.3019 102.072 46.3889 101.905C46.5241 101.763 46.6892 101.652 46.8723 101.582C47.0554 101.511 47.252 101.482 47.4478 101.496C48.3401 101.364 49.2117 101.117 50.0409 100.763V103.771L50.0691 103.832C50.0691 103.832 50.7657 105.608 49.928 106.614C49.5907 106.975 49.3301 107.401 49.1619 107.865C48.9936 108.329 48.9212 108.823 48.949 109.316C48.9858 109.587 49.0816 109.847 49.2295 110.078C49.3775 110.308 49.5741 110.504 49.8056 110.651L50.1915 110.073C50.0423 109.979 49.9153 109.854 49.8194 109.706C49.7235 109.558 49.661 109.392 49.6362 109.217C49.6237 108.821 49.6905 108.426 49.8328 108.055C49.975 107.685 50.1897 107.347 50.4644 107.06C51.4668 105.852 50.8786 104.015 50.7421 103.639V100.481C51.0862 100.736 51.4958 100.89 51.9234 100.923C53.0905 101.04 53.6646 101.219 53.9047 101.548C54.1447 101.877 54.1117 102.22 53.9753 102.849C53.9141 103.122 53.8435 103.399 53.7729 103.667C53.4858 104.772 53.2411 105.726 53.707 106.327C53.8548 106.494 54.0402 106.624 54.248 106.706C54.4558 106.787 54.6801 106.819 54.9024 106.797V106.12C54.787 106.136 54.6696 106.126 54.5583 106.092C54.447 106.058 54.3444 106 54.2576 105.923C54.0035 105.589 54.2294 104.71 54.4459 103.86C54.5165 103.583 54.5917 103.301 54.6529 103.019C54.8412 102.182 54.78 101.609 54.4694 101.139C54.0364 100.542 53.2034 100.349 51.9939 100.227C51.7982 100.223 51.6058 100.176 51.4295 100.091C51.2533 100.006 51.0975 99.8842 50.9727 99.7336C50.8513 99.5653 50.7722 99.3702 50.7421 99.165V98.4224H50.728Z" fill="url(#paint24_radial_16_1316)" stroke="white" stroke-width="1.5" stroke-miterlimit="10"/>
<path d="M57.8955 79.8028C59.4014 78.0405 59.778 75.8834 58.7285 74.9905C57.679 74.0976 55.6083 74.8072 54.1023 76.5696C52.5963 78.3319 53.2646 81.3819 53.2646 81.3819C53.2646 81.3819 56.3848 81.5699 57.8955 79.8028Z" fill="url(#paint25_radial_16_1316)" stroke="white" stroke-width="1.5" stroke-miterlimit="10"/>
<path d="M68.4891 122.193L62.197 88.9058H65.8678C66.1936 88.9058 66.506 88.7766 66.7363 88.5466C66.9667 88.3166 67.0961 88.0046 67.0961 87.6793C67.0961 87.354 66.9667 87.042 66.7363 86.8119C66.506 86.5819 66.1936 86.4527 65.8678 86.4527H35.3811C35.0554 86.4527 34.7429 86.5819 34.5126 86.8119C34.2822 87.042 34.1528 87.354 34.1528 87.6793C34.1528 88.0046 34.2822 88.3166 34.5126 88.5466C34.7429 88.7766 35.0554 88.9058 35.3811 88.9058H39.4661L32.1715 122.813C32.1417 122.951 32.1395 123.093 32.1648 123.231C32.1901 123.37 32.2425 123.502 32.3189 123.62C32.3954 123.739 32.4945 123.841 32.6105 123.921C32.7266 124.001 32.8572 124.057 32.9951 124.087C33.2732 124.144 33.5628 124.09 33.8013 123.936C34.0399 123.782 34.2084 123.541 34.2705 123.264L41.6592 88.9058H60.0133L66.3808 122.569C66.4402 122.841 66.6036 123.08 66.8362 123.234C67.0689 123.388 67.3526 123.445 67.627 123.394C67.9013 123.342 68.1449 123.186 68.3059 122.958C68.4669 122.731 68.5326 122.449 68.4891 122.174V122.193Z" fill="url(#paint26_radial_16_1316)" stroke="white" stroke-width="1.5" stroke-miterlimit="10"/>
<g opacity="0.67">
<path d="M59.3921 85.1509C59.2074 85.1509 59.0302 85.0777 58.8996 84.9472C58.769 84.8168 58.6956 84.6399 58.6956 84.4554V57.6163C58.6956 57.4294 58.77 57.2501 58.9023 57.1179C59.0347 56.9857 59.2143 56.9114 59.4015 56.9114C59.5887 56.9114 59.7682 56.9857 59.9006 57.1179C60.033 57.2501 60.1074 57.4294 60.1074 57.6163V84.4554C60.1068 84.5482 60.0878 84.6399 60.0514 84.7252C60.015 84.8106 59.962 84.8878 59.8954 84.9525C59.8288 85.0172 59.7501 85.0681 59.6637 85.1022C59.5772 85.1362 59.485 85.1528 59.3921 85.1509V85.1509Z" fill="url(#paint27_radial_16_1316)" stroke="white" stroke-width="1.5" stroke-miterlimit="10"/>
</g>
</g>
<defs>
<radialGradient id="paint0_radial_16_1316" cx="0" cy="0" r="1" gradientUnits="userSpaceOnUse" gradientTransform="translate(95.1826 67.9929) scale(14.0197 13.9999)">
<stop offset="0.09" stop-color="white"/>
<stop offset="0.11" stop-color="#9A659E"/>
<stop offset="0.13" stop-color="#5B0663"/>
<stop offset="0.15" stop-color="#510558"/>
<stop offset="0.21" stop-color="#38043D"/>
<stop offset="0.29" stop-color="#230226"/>
<stop offset="0.37" stop-color="#130115"/>
<stop offset="0.48" stop-color="#080109"/>
<stop offset="0.62" stop-color="#020002"/>
<stop offset="1"/>
</radialGradient>
<radialGradient id="paint1_radial_16_1316" cx="0" cy="0" r="1" gradientUnits="userSpaceOnUse" gradientTransform="translate(95.2814 65.9721) scale(18.4577 18.4316)">
<stop offset="0.09" stop-color="white"/>
<stop offset="0.11" stop-color="#9A659E"/>
<stop offset="0.13" stop-color="#5B0663"/>
<stop offset="0.15" stop-color="#510558"/>
<stop offset="0.21" stop-color="#38043D"/>
<stop offset="0.29" stop-color="#230226"/>
<stop offset="0.37" stop-color="#130115"/>
<stop offset="0.48" stop-color="#080109"/>
<stop offset="0.62" stop-color="#020002"/>
<stop offset="1"/>
</radialGradient>
<radialGradient id="paint2_radial_16_1316" cx="0" cy="0" r="1" gradientUnits="userSpaceOnUse" gradientTransform="translate(119.081 92.3741) scale(15.5634 15.5414)">
<stop offset="0.09" stop-color="white"/>
<stop offset="0.11" stop-color="#9A659E"/>
<stop offset="0.13" stop-color="#5B0663"/>
<stop offset="0.15" stop-color="#510558"/>
<stop offset="0.21" stop-color="#38043D"/>
<stop offset="0.29" stop-color="#230226"/>
<stop offset="0.37" stop-color="#130115"/>
<stop offset="0.48" stop-color="#080109"/>
<stop offset="0.62" stop-color="#020002"/>
<stop offset="1"/>
</radialGradient>
<radialGradient id="paint3_radial_16_1316" cx="0" cy="0" r="1" gradientUnits="userSpaceOnUse" gradientTransform="translate(94.0384 64.9692) scale(4.79087 4.78409)">
<stop offset="0.09" stop-color="white"/>
<stop offset="0.11" stop-color="#9A659E"/>
<stop offset="0.13" stop-color="#5B0663"/>
<stop offset="0.15" stop-color="#510558"/>
<stop offset="0.21" stop-color="#38043D"/>
<stop offset="0.29" stop-color="#230226"/>
<stop offset="0.37" stop-color="#130115"/>
<stop offset="0.48" stop-color="#080109"/>
<stop offset="0.62" stop-color="#020002"/>
<stop offset="1"/>
</radialGradient>
<radialGradient id="paint4_radial_16_1316" cx="0" cy="0" r="1" gradientUnits="userSpaceOnUse" gradientTransform="translate(95.5866 67.0655) scale(4.79087 4.78409)">
<stop offset="0.09" stop-color="white"/>
<stop offset="0.11" stop-color="#9A659E"/>
<stop offset="0.13" stop-color="#5B0663"/>
<stop offset="0.15" stop-color="#510558"/>
<stop offset="0.21" stop-color="#38043D"/>
<stop offset="0.29" stop-color="#230226"/>
<stop offset="0.37" stop-color="#130115"/>
<stop offset="0.48" stop-color="#080109"/>
<stop offset="0.62" stop-color="#020002"/>
<stop offset="1"/>
</radialGradient>
<radialGradient id="paint5_radial_16_1316" cx="0" cy="0" r="1" gradientUnits="userSpaceOnUse" gradientTransform="translate(126.418 115.952) scale(3.06846 3.0641)">
<stop offset="0.09" stop-color="white"/>
<stop offset="0.11" stop-color="#9A659E"/>
<stop offset="0.13" stop-color="#5B0663"/>
<stop offset="0.15" stop-color="#510558"/>
<stop offset="0.21" stop-color="#38043D"/>
<stop offset="0.29" stop-color="#230226"/>
<stop offset="0.37" stop-color="#130115"/>
<stop offset="0.48" stop-color="#080109"/>
<stop offset="0.62" stop-color="#020002"/>
<stop offset="1"/>
</radialGradient>
<radialGradient id="paint6_radial_16_1316" cx="0" cy="0" r="1" gradientUnits="userSpaceOnUse" gradientTransform="translate(130.023 115.392) scale(3.06838 3.0641)">
<stop offset="0.09" stop-color="white"/>
<stop offset="0.11" stop-color="#9A659E"/>
<stop offset="0.13" stop-color="#5B0663"/>
<stop offset="0.15" stop-color="#510558"/>
<stop offset="0.21" stop-color="#38043D"/>
<stop offset="0.29" stop-color="#230226"/>
<stop offset="0.37" stop-color="#130115"/>
<stop offset="0.48" stop-color="#080109"/>
<stop offset="0.62" stop-color="#020002"/>
<stop offset="1"/>
</radialGradient>
<radialGradient id="paint7_radial_16_1316" cx="0" cy="0" r="1" gradientUnits="userSpaceOnUse" gradientTransform="translate(125.881 120.717) scale(1.2048 1.20309)">
<stop offset="0.09" stop-color="white"/>
<stop offset="0.11" stop-color="#9A659E"/>
<stop offset="0.13" stop-color="#5B0663"/>
<stop offset="0.15" stop-color="#510558"/>
<stop offset="0.21" stop-color="#38043D"/>
<stop offset="0.29" stop-color="#230226"/>
<stop offset="0.37" stop-color="#130115"/>
<stop offset="0.48" stop-color="#080109"/>
<stop offset="0.62" stop-color="#020002"/>
<stop offset="1"/>
</radialGradient>
<radialGradient id="paint8_radial_16_1316" cx="0" cy="0" r="1" gradientUnits="userSpaceOnUse" gradientTransform="translate(129.608 119.975) scale(1.20478 1.20309)">
<stop offset="0.09" stop-color="white"/>
<stop offset="0.11" stop-color="#9A659E"/>
<stop offset="0.13" stop-color="#5B0663"/>
<stop offset="0.15" stop-color="#510558"/>
<stop offset="0.21" stop-color="#38043D"/>
<stop offset="0.29" stop-color="#230226"/>
<stop offset="0.37" stop-color="#130115"/>
<stop offset="0.48" stop-color="#080109"/>
<stop offset="0.62" stop-color="#020002"/>
<stop offset="1"/>
</radialGradient>
<radialGradient id="paint9_radial_16_1316" cx="0" cy="0" r="1" gradientUnits="userSpaceOnUse" gradientTransform="translate(129.914 94.1412) scale(0.682402 0.681434)">
<stop offset="0.09" stop-color="white"/>
<stop offset="0.11" stop-color="#9A659E"/>
<stop offset="0.13" stop-color="#5B0663"/>
<stop offset="0.15" stop-color="#510558"/>
<stop offset="0.21" stop-color="#38043D"/>
<stop offset="0.29" stop-color="#230226"/>
<stop offset="0.37" stop-color="#130115"/>
<stop offset="0.48" stop-color="#080109"/>
<stop offset="0.62" stop-color="#020002"/>
<stop offset="1"/>
</radialGradient>
<radialGradient id="paint10_radial_16_1316" cx="0" cy="0" r="1" gradientUnits="userSpaceOnUse" gradientTransform="translate(128.757 95.8424) scale(1.13891 1.13729)">
<stop offset="0.09" stop-color="white"/>
<stop offset="0.11" stop-color="#9A659E"/>
<stop offset="0.13" stop-color="#5B0663"/>
<stop offset="0.15" stop-color="#510558"/>
<stop offset="0.21" stop-color="#38043D"/>
<stop offset="0.29" stop-color="#230226"/>
<stop offset="0.37" stop-color="#130115"/>
<stop offset="0.48" stop-color="#080109"/>
<stop offset="0.62" stop-color="#020002"/>
<stop offset="1"/>
</radialGradient>
<radialGradient id="paint11_radial_16_1316" cx="0" cy="0" r="1" gradientUnits="userSpaceOnUse" gradientTransform="translate(128.22 104.668) scale(6.65453 6.64515)">
<stop offset="0.09" stop-color="white"/>
<stop offset="0.11" stop-color="#9A659E"/>
<stop offset="0.13" stop-color="#5B0663"/>
<stop offset="0.15" stop-color="#510558"/>
<stop offset="0.21" stop-color="#38043D"/>
<stop offset="0.29" stop-color="#230226"/>
<stop offset="0.37" stop-color="#130115"/>
<stop offset="0.48" stop-color="#080109"/>
<stop offset="0.62" stop-color="#020002"/>
<stop offset="1"/>
</radialGradient>
<radialGradient id="paint12_radial_16_1316" cx="0" cy="0" r="1" gradientUnits="userSpaceOnUse" gradientTransform="translate(124.742 100.547) scale(2.95549 2.95132)">
<stop offset="0.09" stop-color="white"/>
<stop offset="0.11" stop-color="#9A659E"/>
<stop offset="0.13" stop-color="#5B0663"/>
<stop offset="0.15" stop-color="#510558"/>
<stop offset="0.21" stop-color="#38043D"/>
<stop offset="0.29" stop-color="#230226"/>
<stop offset="0.37" stop-color="#130115"/>
<stop offset="0.48" stop-color="#080109"/>
<stop offset="0.62" stop-color="#020002"/>
<stop offset="1"/>
</radialGradient>
<radialGradient id="paint13_radial_16_1316" cx="0" cy="0" r="1" gradientUnits="userSpaceOnUse" gradientTransform="translate(129.881 103.272) scale(4.21381 4.21079)">
<stop offset="0.09" stop-color="white"/>
<stop offset="0.11" stop-color="#9A659E"/>
<stop offset="0.13" stop-color="#5B0663"/>
<stop offset="0.15" stop-color="#510558"/>
<stop offset="0.21" stop-color="#38043D"/>
<stop offset="0.29" stop-color="#230226"/>
<stop offset="0.37" stop-color="#130115"/>
<stop offset="0.48" stop-color="#080109"/>
<stop offset="0.62" stop-color="#020002"/>
<stop offset="1"/>
</radialGradient>
<radialGradient id="paint14_radial_16_1316" cx="0" cy="0" r="1" gradientUnits="userSpaceOnUse" gradientTransform="translate(126.587 106.59) scale(0.865935 0.864702)">
<stop offset="0.09" stop-color="white"/>
<stop offset="0.11" stop-color="#9A659E"/>
<stop offset="0.13" stop-color="#5B0663"/>
<stop offset="0.15" stop-color="#510558"/>
<stop offset="0.21" stop-color="#38043D"/>
<stop offset="0.29" stop-color="#230226"/>
<stop offset="0.37" stop-color="#130115"/>
<stop offset="0.48" stop-color="#080109"/>
<stop offset="0.62" stop-color="#020002"/>
<stop offset="1"/>
</radialGradient>
<radialGradient id="paint15_radial_16_1316" cx="0" cy="0" r="1" gradientUnits="userSpaceOnUse" gradientTransform="translate(121.189 97.3039) scale(1.30361 1.30178)">
<stop offset="0.09" stop-color="white"/>
<stop offset="0.11" stop-color="#9A659E"/>
<stop offset="0.13" stop-color="#5B0663"/>
<stop offset="0.15" stop-color="#510558"/>
<stop offset="0.21" stop-color="#38043D"/>
<stop offset="0.29" stop-color="#230226"/>
<stop offset="0.37" stop-color="#130115"/>
<stop offset="0.48" stop-color="#080109"/>
<stop offset="0.62" stop-color="#020002"/>
<stop offset="1"/>
</radialGradient>
<radialGradient id="paint16_radial_16_1316" cx="0" cy="0" r="1" gradientUnits="userSpaceOnUse" gradientTransform="translate(128.093 93.2577) scale(2.66843 2.66464)">
<stop offset="0.09" stop-color="white"/>
<stop offset="0.11" stop-color="#9A659E"/>
<stop offset="0.13" stop-color="#5B0663"/>
<stop offset="0.15" stop-color="#510558"/>
<stop offset="0.21" stop-color="#38043D"/>
<stop offset="0.29" stop-color="#230226"/>
<stop offset="0.37" stop-color="#130115"/>
<stop offset="0.48" stop-color="#080109"/>
<stop offset="0.62" stop-color="#020002"/>
<stop offset="1"/>
</radialGradient>
<radialGradient id="paint17_radial_16_1316" cx="0" cy="0" r="1" gradientUnits="userSpaceOnUse" gradientTransform="translate(128.281 92.2755) scale(2.25426 2.25109)">
<stop offset="0.09" stop-color="white"/>
<stop offset="0.11" stop-color="#9A659E"/>
<stop offset="0.13" stop-color="#5B0663"/>
<stop offset="0.15" stop-color="#510558"/>
<stop offset="0.21" stop-color="#38043D"/>
<stop offset="0.29" stop-color="#230226"/>
<stop offset="0.37" stop-color="#130115"/>
<stop offset="0.48" stop-color="#080109"/>
<stop offset="0.62" stop-color="#020002"/>
<stop offset="1"/>
</radialGradient>
<radialGradient id="paint18_radial_16_1316" cx="0" cy="0" r="1" gradientUnits="userSpaceOnUse" gradientTransform="translate(50.5491 84.2016) scale(25.2958 25.26)">
<stop offset="0.09" stop-color="white"/>
<stop offset="0.11" stop-color="#9A659E"/>
<stop offset="0.13" stop-color="#5B0663"/>
<stop offset="0.15" stop-color="#510558"/>
<stop offset="0.21" stop-color="#38043D"/>
<stop offset="0.29" stop-color="#230226"/>
<stop offset="0.37" stop-color="#130115"/>
<stop offset="0.48" stop-color="#080109"/>
<stop offset="0.62" stop-color="#020002"/>
<stop offset="1"/>
</radialGradient>
<radialGradient id="paint19_radial_16_1316" cx="0" cy="0" r="1" gradientUnits="userSpaceOnUse" gradientTransform="translate(50.5491 103.785) scale(10.6218 10.6069)">
<stop offset="0.09" stop-color="white"/>
<stop offset="0.11" stop-color="#9A659E"/>
<stop offset="0.13" stop-color="#5B0663"/>
<stop offset="0.15" stop-color="#510558"/>
<stop offset="0.21" stop-color="#38043D"/>
<stop offset="0.29" stop-color="#230226"/>
<stop offset="0.37" stop-color="#130115"/>
<stop offset="0.48" stop-color="#080109"/>
<stop offset="0.62" stop-color="#020002"/>
<stop offset="1"/>
</radialGradient>
<radialGradient id="paint20_radial_16_1316" cx="0" cy="0" r="1" gradientUnits="userSpaceOnUse" gradientTransform="translate(50.1821 49.8574) scale(4.35321 4.34707)">
<stop offset="0.09" stop-color="white"/>
<stop offset="0.11" stop-color="#9A659E"/>
<stop offset="0.13" stop-color="#5B0663"/>
<stop offset="0.15" stop-color="#510558"/>
<stop offset="0.21" stop-color="#38043D"/>
<stop offset="0.29" stop-color="#230226"/>
<stop offset="0.37" stop-color="#130115"/>
<stop offset="0.48" stop-color="#080109"/>
<stop offset="0.62" stop-color="#020002"/>
<stop offset="1"/>
</radialGradient>
<radialGradient id="paint21_radial_16_1316" cx="0" cy="0" r="1" gradientUnits="userSpaceOnUse" gradientTransform="translate(56.1448 65.3048) scale(4.10852 4.1027)">
<stop offset="0.09" stop-color="white"/>
<stop offset="0.11" stop-color="#9A659E"/>
<stop offset="0.13" stop-color="#5B0663"/>
<stop offset="0.15" stop-color="#510558"/>
<stop offset="0.21" stop-color="#38043D"/>
<stop offset="0.29" stop-color="#230226"/>
<stop offset="0.37" stop-color="#130115"/>
<stop offset="0.48" stop-color="#080109"/>
<stop offset="0.62" stop-color="#020002"/>
<stop offset="1"/>
</radialGradient>
<radialGradient id="paint22_radial_16_1316" cx="0" cy="0" r="1" gradientUnits="userSpaceOnUse" gradientTransform="translate(44.9676 58.2649) scale(3.24725 3.24269)">
<stop offset="0.09" stop-color="white"/>
<stop offset="0.11" stop-color="#9A659E"/>
<stop offset="0.13" stop-color="#5B0663"/>
<stop offset="0.15" stop-color="#510558"/>
<stop offset="0.21" stop-color="#38043D"/>
<stop offset="0.29" stop-color="#230226"/>
<stop offset="0.37" stop-color="#130115"/>
<stop offset="0.48" stop-color="#080109"/>
<stop offset="0.62" stop-color="#020002"/>
<stop offset="1"/>
</radialGradient>
<radialGradient id="paint23_radial_16_1316" cx="0" cy="0" r="1" gradientUnits="userSpaceOnUse" gradientTransform="translate(44.6241 71.9734) scale(3.26611 3.26149)">
<stop offset="0.09" stop-color="white"/>
<stop offset="0.11" stop-color="#9A659E"/>
<stop offset="0.13" stop-color="#5B0663"/>
<stop offset="0.15" stop-color="#510558"/>
<stop offset="0.21" stop-color="#38043D"/>
<stop offset="0.29" stop-color="#230226"/>
<stop offset="0.37" stop-color="#130115"/>
<stop offset="0.48" stop-color="#080109"/>
<stop offset="0.62" stop-color="#020002"/>
<stop offset="1"/>
</radialGradient>
<radialGradient id="paint24_radial_16_1316" cx="0" cy="0" r="1" gradientUnits="userSpaceOnUse" gradientTransform="translate(51.1845 79.1778) scale(22.9097 22.8774)">
<stop offset="0.09" stop-color="white"/>
<stop offset="0.11" stop-color="#9A659E"/>
<stop offset="0.13" stop-color="#5B0663"/>
<stop offset="0.15" stop-color="#510558"/>
<stop offset="0.21" stop-color="#38043D"/>
<stop offset="0.29" stop-color="#230226"/>
<stop offset="0.37" stop-color="#130115"/>
<stop offset="0.48" stop-color="#080109"/>
<stop offset="0.62" stop-color="#020002"/>
<stop offset="1"/>
</radialGradient>
<radialGradient id="paint25_radial_16_1316" cx="0" cy="0" r="1" gradientUnits="userSpaceOnUse" gradientTransform="translate(56.2201 77.9982) scale(3.25197 3.24738)">
<stop offset="0.09" stop-color="white"/>
<stop offset="0.11" stop-color="#9A659E"/>
<stop offset="0.13" stop-color="#5B0663"/>
<stop offset="0.15" stop-color="#510558"/>
<stop offset="0.21" stop-color="#38043D"/>
<stop offset="0.29" stop-color="#230226"/>
<stop offset="0.37" stop-color="#130115"/>
<stop offset="0.48" stop-color="#080109"/>
<stop offset="0.62" stop-color="#020002"/>
<stop offset="1"/>
</radialGradient>
<radialGradient id="paint26_radial_16_1316" cx="0" cy="0" r="1" gradientUnits="userSpaceOnUse" gradientTransform="translate(50.328 105.279) scale(18.5236 18.4974)">
<stop offset="0.09" stop-color="white"/>
<stop offset="0.11" stop-color="#9A659E"/>
<stop offset="0.13" stop-color="#5B0663"/>
<stop offset="0.15" stop-color="#510558"/>
<stop offset="0.21" stop-color="#38043D"/>
<stop offset="0.29" stop-color="#230226"/>
<stop offset="0.37" stop-color="#130115"/>
<stop offset="0.48" stop-color="#080109"/>
<stop offset="0.62" stop-color="#020002"/>
<stop offset="1"/>
</radialGradient>
<radialGradient id="paint27_radial_16_1316" cx="0" cy="0" r="1" gradientUnits="userSpaceOnUse" gradientTransform="translate(59.3921 71.0335) scale(10.0101 9.99592)">
<stop offset="0.09" stop-color="white"/>
<stop offset="0.11" stop-color="#9A659E"/>
<stop offset="0.13" stop-color="#5B0663"/>
<stop offset="0.15" stop-color="#510558"/>
<stop offset="0.21" stop-color="#38043D"/>
<stop offset="0.29" stop-color="#230226"/>
<stop offset="0.37" stop-color="#130115"/>
<stop offset="0.48" stop-color="#080109"/>
<stop offset="0.62" stop-color="#020002"/>
<stop offset="1"/>
</radialGradient>
</defs>
</svg>
