<svg width="109" height="86" viewBox="0 0 109 86" fill="none" xmlns="http://www.w3.org/2000/svg">
<g style="mix-blend-mode:screen">
<path d="M49.7373 34.2502L59.8367 24.7477" stroke="white" stroke-width="1.5" stroke-miterlimit="10"/>
<path d="M9.30642 31.7548C10.7749 31.7548 11.9654 30.566 11.9654 29.0995C11.9654 27.6331 10.7749 26.4443 9.30642 26.4443C7.8379 26.4443 6.64743 27.6331 6.64743 29.0995C6.64743 30.566 7.8379 31.7548 9.30642 31.7548Z" fill="url(#paint0_radial_16_1318)" stroke="white" stroke-width="1.5" stroke-miterlimit="10"/>
<path d="M10.1488 26.2563H11.4901L16.1539 30.8195V32.0038H10.1488V26.2563Z" fill="url(#paint1_radial_16_1318)" stroke="white" stroke-width="1.5" stroke-miterlimit="10"/>
<path d="M10.1488 25.7534H8.45932V32.0038H10.1488V25.7534Z" fill="url(#paint2_radial_16_1318)" stroke="white" stroke-width="1.5" stroke-miterlimit="10"/>
<path d="M51.3327 34.0481L49.7184 22.9431" stroke="white" stroke-width="1.5" stroke-miterlimit="10"/>
<path d="M49.471 21.7924L47.8542 22.0207L48.4182 26.0033L50.035 25.775L49.471 21.7924Z" fill="url(#paint3_radial_16_1318)" stroke="white" stroke-width="1.49977" stroke-miterlimit="10"/>
<path d="M57.7755 28.2395L56.2177 26.5994L60.0344 22.9713L61.5922 24.6114L57.7755 28.2395Z" fill="url(#paint4_radial_16_1318)" stroke="white" stroke-width="1.5" stroke-miterlimit="10"/>
<path d="M70.5104 31.6937L74.4448 20.255H76.5626V31.6937H70.5104Z" fill="url(#paint5_radial_16_1318)" stroke="white" stroke-width="1.5" stroke-miterlimit="10"/>
<path d="M30.2396 71.3249H6.17211C5.48563 71.3249 4.82726 71.0525 4.34184 70.5678C3.85642 70.0831 3.58371 69.4256 3.58371 68.7401V44.5469H30.2396V71.3249Z" fill="url(#paint6_radial_16_1318)" stroke="white" stroke-width="1.5" stroke-miterlimit="10"/>
<path d="M61.8557 44.2649H53.5069L9.59351 38.0145V60.9812H61.8557V44.2649Z" fill="url(#paint7_radial_16_1318)" stroke="white" stroke-width="1.5" stroke-miterlimit="10"/>
<path d="M24.3568 47.6768H17.2834V49.8808H24.3568V47.6768Z" fill="url(#paint8_radial_16_1318)" stroke="white" stroke-width="1.5" stroke-miterlimit="10"/>
<path d="M33.708 44.0816H25.058C23.5193 44.0816 22.272 45.3272 22.272 46.8637V50.6986C22.272 52.2351 23.5193 53.4807 25.058 53.4807H33.708C35.2467 53.4807 36.4941 52.2351 36.4941 50.6986V46.8637C36.4941 45.3272 35.2467 44.0816 33.708 44.0816Z" fill="url(#paint9_radial_16_1318)" stroke="white" stroke-width="1.5" stroke-miterlimit="10"/>
<path d="M16.2904 44.0816H7.64044C6.10174 44.0816 4.85437 45.3272 4.85437 46.8637V50.6986C4.85437 52.2351 6.10174 53.4807 7.64044 53.4807H16.2904C17.8291 53.4807 19.0765 52.2351 19.0765 50.6986V46.8637C19.0765 45.3272 17.8291 44.0816 16.2904 44.0816Z" fill="url(#paint10_radial_16_1318)" stroke="white" stroke-width="1.5" stroke-miterlimit="10"/>
<path d="M43.5675 47.6768H36.4941V49.8808H43.5675V47.6768Z" fill="url(#paint11_radial_16_1318)" stroke="white" stroke-width="1.5" stroke-miterlimit="10"/>
<path d="M55.3094 51.5163V34.2737C55.3094 33.9345 55.2424 33.5986 55.1123 33.2853C54.9822 32.972 54.7914 32.6873 54.551 32.4477C54.3106 32.208 54.0252 32.0181 53.7112 31.8887C53.3972 31.7593 53.0607 31.6931 52.721 31.6937H6.99568C6.20792 31.6937 5.42789 31.8487 4.70015 32.1499C3.97241 32.451 3.31125 32.8925 2.75444 33.4489C2.19763 34.0054 1.75609 34.666 1.45505 35.3929C1.15402 36.1199 0.999384 36.8989 1 37.6856V39.0061H1.72476V40.9658H1V44.6597H1.72476V46.6194H1V50.3085H1.72476V52.2729H1V53.4619C1 56.7516 3.4378 59.6183 6.99568 59.6183H8.5958C8.62538 59.9894 8.7939 60.3358 9.06777 60.5883C9.34163 60.8409 9.70073 60.9812 10.0735 60.9812H58.6367C59.0311 60.9812 59.4094 60.8247 59.6883 60.5462C59.9672 60.2677 60.1238 59.89 60.1238 59.4961C60.1238 59.1023 59.9672 58.7245 59.6883 58.446C59.4094 58.1675 59.0311 58.0111 58.6367 58.0111L55.3094 51.5163ZM42.9086 58.0111H11.5748C11.5748 51.9017 11.5748 51.5774 11.5748 42.1595H38.2965L42.9274 51.4599L42.9086 58.0111Z" fill="url(#paint12_radial_16_1318)" stroke="white" stroke-width="1.5" stroke-miterlimit="10"/>
<path d="M7.94634 39.9836C7.94634 40.2441 7.84271 40.4939 7.65825 40.6781C7.47379 40.8623 7.22362 40.9658 6.96275 40.9658H1.72476V39.0061H6.96275C7.2228 39.0061 7.47226 39.1089 7.65659 39.2921C7.84091 39.4753 7.9451 39.7239 7.94634 39.9836Z" fill="url(#paint13_radial_16_1318)" stroke="white" stroke-width="1.5" stroke-miterlimit="10"/>
<path d="M7.94634 45.6325C7.94634 45.8929 7.84271 46.1428 7.65825 46.327C7.47379 46.5112 7.22362 46.6147 6.96275 46.6147H1.72476V44.655H6.96275C7.2228 44.655 7.47226 44.7578 7.65659 44.941C7.84091 45.1242 7.9451 45.3728 7.94634 45.6325Z" fill="url(#paint14_radial_16_1318)" stroke="white" stroke-width="1.5" stroke-miterlimit="10"/>
<path d="M7.94634 51.2813C7.94634 51.5418 7.84271 51.7917 7.65825 51.9759C7.47379 52.1601 7.22362 52.2636 6.96275 52.2636H1.72476V50.3038H6.96275C7.2228 50.3038 7.47226 50.4067 7.65659 50.5899C7.84091 50.7731 7.9451 51.0217 7.94634 51.2813Z" fill="url(#paint15_radial_16_1318)" stroke="white" stroke-width="1.5" stroke-miterlimit="10"/>
<path d="M105.355 34.3348H101.981V40.2092H104.334C104.47 40.2092 104.605 40.1823 104.731 40.1301C104.857 40.0778 104.971 40.0012 105.068 39.9047C105.164 39.8082 105.24 39.6937 105.292 39.5677C105.343 39.4417 105.37 39.3068 105.369 39.1706L105.355 34.3348Z" fill="url(#paint16_radial_16_1318)" stroke="white" stroke-width="1.5" stroke-miterlimit="10"/>
<path d="M101.209 33.4137V34.6591H96.9404V39.6453H101.209V40.8954H102.578V38.4093C102.579 37.6237 102.866 36.8651 103.385 36.2753C103.905 35.6854 104.622 35.3047 105.402 35.2042C105.513 35.1862 105.615 35.1288 105.687 35.0426C105.76 34.9563 105.799 34.8469 105.797 34.7343V33.3949L101.209 33.4137Z" fill="url(#paint17_radial_16_1318)" stroke="white" stroke-width="1.5" stroke-miterlimit="10"/>
<path d="M52.4433 41.9057V65.3094H107.84V47.846L92.3518 32.5818L63.9829 32.8638L52.4433 41.9057Z" fill="url(#paint18_radial_16_1318)" stroke="white" stroke-width="1.5" stroke-miterlimit="10"/>
<path d="M101.858 61.3243C101.858 65.8592 100.512 70.2923 97.9886 74.0629C95.4656 77.8336 91.8795 80.7725 87.6838 82.5079C83.4881 84.2434 78.8714 84.6975 74.4173 83.8127C69.9632 82.928 65.8718 80.7442 62.6606 77.5375C59.4494 74.3309 57.2625 70.2453 56.3765 65.7975C55.4906 61.3497 55.9453 56.7394 57.6832 52.5497C59.4211 48.3599 62.3641 44.7789 66.1401 42.2595C69.9161 39.74 74.3555 38.3952 78.8968 38.3952C84.9866 38.3952 90.8269 40.8109 95.1331 45.111C99.4392 49.411 101.858 55.2431 101.858 61.3243V61.3243Z" fill="url(#paint19_radial_16_1318)" stroke="white" stroke-width="1.5" stroke-miterlimit="10"/>
<path d="M102.404 66.3433C102.453 66.1928 102.472 66.034 102.46 65.8761C102.447 65.7182 102.404 65.5644 102.332 65.4234C102.259 65.2823 102.16 65.1569 102.039 65.0543C101.919 64.9517 101.779 64.8739 101.628 64.8254L100.051 64.3178C100.346 62.292 100.346 60.2343 100.051 58.2084L101.618 57.7009C101.769 57.6524 101.909 57.5746 102.03 57.472C102.151 57.3694 102.25 57.244 102.322 57.1029C102.394 56.9619 102.438 56.808 102.45 56.6502C102.463 56.4923 102.444 56.3335 102.395 56.1829L100.903 51.5962C100.854 51.4454 100.776 51.3057 100.674 51.1851C100.571 51.0645 100.445 50.9653 100.304 50.8933C100.163 50.8212 100.009 50.7777 99.8508 50.7653C99.6927 50.7529 99.5337 50.7717 99.3829 50.8208L97.8016 51.333C96.8449 49.5296 95.6341 47.8726 94.2061 46.4126L95.1896 45.0591C95.283 44.9308 95.3501 44.7853 95.3871 44.631C95.4242 44.4768 95.4304 44.3167 95.4055 44.1601C95.3806 44.0034 95.325 43.8532 95.2419 43.7179C95.1589 43.5827 95.0499 43.4652 94.9214 43.372L91.0153 40.5523C90.8867 40.4591 90.7411 40.3921 90.5866 40.3551C90.4321 40.3181 90.2718 40.3119 90.1149 40.3367C89.958 40.3616 89.8076 40.4171 89.6722 40.5001C89.5368 40.583 89.4191 40.6918 89.3257 40.8201L88.3469 42.1689C86.5136 41.2659 84.5591 40.6328 82.5441 40.2891V38.6208C82.5435 38.4614 82.5113 38.3037 82.4494 38.1567C82.3874 38.0098 82.297 37.8766 82.1832 37.7648C82.0695 37.6529 81.9347 37.5647 81.7866 37.5051C81.6385 37.4455 81.4801 37.4158 81.3205 37.4177H76.492C76.1716 37.4189 75.8647 37.5466 75.6381 37.7728C75.4116 37.999 75.2837 38.3055 75.2825 38.6255V40.2938C73.2691 40.6379 71.3162 41.2711 69.4844 42.1736L68.5197 40.8061C68.4268 40.6778 68.3095 40.5692 68.1745 40.4863C68.0395 40.4034 67.8894 40.3479 67.7329 40.323C67.5764 40.2981 67.4166 40.3044 67.2624 40.3413C67.1083 40.3782 66.963 40.4451 66.8349 40.5382L62.924 43.3579C62.6661 43.5476 62.4938 43.8313 62.4444 44.1473C62.395 44.4633 62.4727 44.7859 62.6605 45.045L63.6441 46.3985C62.215 47.8628 61.0041 49.5246 60.0485 51.333L58.4673 50.8208C58.3162 50.7716 58.1568 50.7527 57.9984 50.7651C57.84 50.7775 57.6856 50.8209 57.544 50.8929C57.4023 50.965 57.2763 51.0641 57.1731 51.1848C57.0699 51.3055 56.9915 51.4453 56.9425 51.5962L55.4506 56.1829C55.354 56.4871 55.3813 56.817 55.5266 57.1012C55.672 57.3853 55.9237 57.6008 56.2271 57.7009L57.7943 58.2084C57.4962 60.234 57.4962 62.2922 57.7943 64.3178L56.2318 64.8254C56.0809 64.8739 55.941 64.9517 55.8202 65.0543C55.6994 65.1569 55.6001 65.2823 55.5279 65.4234C55.4558 65.5644 55.4122 65.7182 55.3998 65.8761C55.3873 66.034 55.4062 66.1928 55.4553 66.3433L56.9472 70.9301C57.0447 71.2315 57.2561 71.4831 57.5364 71.6314C57.8167 71.7797 58.1439 71.813 58.4484 71.7243L60.0062 71.2168C60.9625 73.0274 62.1733 74.6923 63.6017 76.1607L62.6605 77.4859C62.473 77.7443 62.3954 78.0662 62.4448 78.3814C62.4942 78.6966 62.6665 78.9796 62.924 79.1684L66.8349 81.9881C66.9627 82.0814 67.1078 82.1487 67.2617 82.1859C67.4157 82.2232 67.5754 82.2298 67.7319 82.2054C67.8884 82.1809 68.0385 82.1259 68.1737 82.0435C68.3089 81.961 68.4264 81.8528 68.5197 81.7249L69.4609 80.409C71.3016 81.3142 73.2642 81.9474 75.2872 82.2889V83.9431C75.2884 84.263 75.4162 84.5695 75.6428 84.7958C75.8693 85.022 76.1763 85.1497 76.4967 85.1509H81.3205C81.6413 85.1509 81.9489 85.0236 82.1758 84.7971C82.4026 84.5706 82.53 84.2634 82.53 83.9431V82.2983C84.5531 81.9572 86.5158 81.3239 88.3563 80.4185L89.2975 81.7343C89.4867 81.9929 89.7709 82.1658 90.0877 82.2152C90.4045 82.2645 90.728 82.1862 90.987 81.9975L94.8931 79.1778C95.0216 79.085 95.1304 78.9679 95.2134 78.8331C95.2964 78.6983 95.3519 78.5484 95.3769 78.3922C95.4018 78.2359 95.3956 78.0762 95.3586 77.9223C95.3216 77.7684 95.2546 77.6233 95.1614 77.4954L94.2202 76.1701C95.65 74.7018 96.8624 73.037 97.8204 71.2262L99.3782 71.7337C99.6827 71.8302 100.013 71.8029 100.298 71.6578C100.582 71.5126 100.798 71.2613 100.898 70.9583L102.404 66.3433ZM78.9815 72.8757C76.6732 72.8757 74.4166 72.1922 72.4973 70.9115C70.5779 69.6308 69.082 67.8106 68.1986 65.681C67.3153 63.5513 67.0841 61.2079 67.5345 58.9471C67.9848 56.6863 69.0964 54.6096 70.7286 52.9796C72.3609 51.3497 74.4406 50.2396 76.7046 49.7899C78.9686 49.3402 81.3153 49.571 83.448 50.4532C85.5806 51.3353 87.4035 52.8291 88.6859 54.7458C89.9684 56.6624 90.6529 58.9157 90.6529 61.2209C90.6523 62.7532 90.3492 64.2704 89.761 65.6857C89.1727 67.101 88.3109 68.3866 87.2247 69.469C86.1386 70.5514 84.8494 71.4095 83.4309 71.994C82.0124 72.5786 80.4925 72.8782 78.958 72.8757H78.9815Z" fill="url(#paint20_radial_16_1318)" stroke="white" stroke-width="1.5" stroke-miterlimit="10"/>
<path d="M78.6709 76.1607C75.7324 76.1607 72.8599 75.2905 70.4166 73.6603C67.9733 72.03 66.069 69.7129 64.9444 67.0019C63.8199 64.2909 63.5257 61.3078 64.099 58.4298C64.6722 55.5518 66.0873 52.9082 68.1651 50.8333C70.243 48.7584 72.8903 47.3453 75.7724 46.7729C78.6544 46.2004 81.6418 46.4942 84.3566 47.6172C87.0714 48.7401 89.3919 50.6417 91.0244 53.0815C92.657 55.5214 93.5284 58.3899 93.5284 61.3242C93.5234 65.2576 91.9564 69.0284 89.1712 71.8097C86.386 74.591 82.6098 76.1557 78.6709 76.1607V76.1607Z" fill="url(#paint21_radial_16_1318)" stroke="white" stroke-width="1.5" stroke-miterlimit="10"/>
<path d="M87.288 61.2631C87.288 62.9185 86.7964 64.5368 85.8754 65.9132C84.9544 67.2896 83.6454 68.3624 82.1138 68.9959C80.5823 69.6294 78.897 69.7951 77.2711 69.4722C75.6452 69.1492 74.1517 68.3521 72.9795 67.1815C71.8073 66.011 71.009 64.5196 70.6856 62.896C70.3622 61.2724 70.5282 59.5895 71.1626 58.0601C71.797 56.5307 72.8712 55.2235 74.2496 54.3038C75.628 53.3841 77.2485 52.8932 78.9063 52.8932C81.1292 52.8932 83.2611 53.7751 84.833 55.3447C86.4049 56.9144 87.288 59.0433 87.288 61.2631V61.2631Z" fill="url(#paint22_radial_16_1318)" stroke="white" stroke-width="1.5" stroke-miterlimit="10"/>
<path d="M78.9063 65.286C78.1084 65.286 77.3284 65.0496 76.665 64.6069C76.0017 64.1641 75.4847 63.5348 75.1796 62.7986C74.8745 62.0624 74.7949 61.2524 74.9509 60.471C75.1069 59.6896 75.4915 58.972 76.056 58.4089C76.6205 57.8459 77.3396 57.4626 78.1223 57.3078C78.905 57.1529 79.716 57.2333 80.4529 57.5389C81.1898 57.8445 81.8194 58.3614 82.262 59.0243C82.7046 59.6873 82.9404 60.4664 82.9395 61.2632C82.937 62.3301 82.5111 63.3526 81.7551 64.1066C80.9992 64.8607 79.9747 65.2847 78.9063 65.286V65.286Z" fill="url(#paint23_radial_16_1318)" stroke="white" stroke-width="1.5" stroke-miterlimit="10"/>
<path d="M105.788 49.4673L93.7731 34.3113H63.7429L54.2976 43.7527L52.4433 41.9058L62.6557 31.6937H95.0437L107.84 47.846L105.788 49.4673Z" fill="url(#paint24_radial_16_1318)" stroke="white" stroke-width="1.5" stroke-miterlimit="10"/>
<path d="M51.248 51.9862C51.248 52.2505 51.1429 52.5039 50.9558 52.6907C50.7687 52.8776 50.5149 52.9825 50.2503 52.9825H45.5111C45.259 52.9652 45.0228 52.853 44.8503 52.6685C44.6778 52.484 44.5819 52.241 44.5819 51.9886C44.5819 51.7362 44.6778 51.4932 44.8503 51.3087C45.0228 51.1242 45.259 51.012 45.5111 50.9946H50.2503C50.5141 50.9946 50.7671 51.0989 50.9541 51.2848C51.1411 51.4706 51.2467 51.7228 51.248 51.9862V51.9862Z" fill="url(#paint25_radial_16_1318)" stroke="white" stroke-width="1.5" stroke-miterlimit="10"/>
<path d="M17.0481 34.5792H15.0197V38.9591H17.0481V34.5792Z" fill="url(#paint26_radial_16_1318)" stroke="white" stroke-width="1.5" stroke-miterlimit="10"/>
<path d="M13.4149 34.128C12.8739 34.3077 12.4032 34.653 12.0697 35.1148C11.7361 35.5766 11.5566 36.1316 11.5566 36.701C11.5566 37.2704 11.7361 37.8253 12.0697 38.2872C12.4032 38.749 12.8739 39.0943 13.4149 39.274V34.128Z" fill="url(#paint27_radial_16_1318)" stroke="white" stroke-width="1.5" stroke-miterlimit="10"/>
<path d="M15.1421 33.4889H13.4149V39.885H15.1421V33.4889Z" fill="url(#paint28_radial_16_1318)" stroke="white" stroke-width="1.5" stroke-miterlimit="10"/>
<path d="M30.8184 45.4774C30.4752 45.4774 30.146 45.3412 29.9033 45.0989C29.6606 44.8565 29.5242 44.5278 29.5242 44.185V8.8962C29.5203 7.56338 29.0917 6.26639 28.3006 5.19296L26.4181 2.64111V6.16577L26.6205 6.43364C27.1443 7.14835 27.4277 8.01051 27.4299 8.8962V44.185C27.4324 45.0829 27.7907 45.9433 28.4265 46.5782C29.0623 47.2131 29.9239 47.5709 30.8231 47.5734H32.4562V45.4774H30.8184Z" fill="url(#paint29_radial_16_1318)" stroke="white" stroke-width="1.5" stroke-miterlimit="10"/>
<path d="M29.6701 15.2311H27.3076C26.6968 15.2311 26.2016 15.7256 26.2016 16.3355V36.1911C26.2016 36.801 26.6968 37.2955 27.3076 37.2955H29.6701C30.2809 37.2955 30.776 36.801 30.776 36.1911V16.3355C30.776 15.7256 30.2809 15.2311 29.6701 15.2311Z" fill="url(#paint30_radial_16_1318)" stroke="white" stroke-width="1.5" stroke-miterlimit="10"/>
<path d="M65.583 28.7706L56.0671 18.6807" stroke="white" stroke-width="1.5" stroke-miterlimit="10"/>
<path d="M45.7229 37.7795H43.3086C42.9492 37.7795 42.6044 37.9221 42.3502 38.176C42.096 38.4298 41.9532 38.7741 41.9532 39.133V41.5439C41.9532 41.9029 42.096 42.2471 42.3502 42.5009C42.6044 42.7547 42.9492 42.8973 43.3086 42.8973H45.7229C46.0824 42.8973 46.4271 42.7547 46.6813 42.5009C46.9355 42.2471 47.0783 41.9029 47.0783 41.5439V39.133C47.0783 38.7741 46.9355 38.4298 46.6813 38.176C46.4271 37.9221 46.0824 37.7795 45.7229 37.7795V37.7795Z" fill="url(#paint31_radial_16_1318)" stroke="white" stroke-width="1.5" stroke-miterlimit="10"/>
<path d="M32.0467 52.6959V53.9976C32.0467 54.4052 32.2089 54.7961 32.4975 55.0843C32.7861 55.3725 33.1775 55.5344 33.5856 55.5344H42.9133" fill="url(#paint32_radial_16_1318)"/>
<path d="M32.0467 52.6959V53.9976C32.0467 54.4052 32.2089 54.7961 32.4975 55.0843C32.7861 55.3725 33.1775 55.5344 33.5856 55.5344H42.9133" stroke="white" stroke-width="1.5" stroke-miterlimit="10"/>
<path d="M27.6982 17.6561V21.0539" stroke="white" stroke-width="1.5" stroke-miterlimit="10"/>
<path d="M28.4841 22.304V25.7017" stroke="white" stroke-width="1.5" stroke-miterlimit="10"/>
<path d="M28.4841 31.4681V34.8659" stroke="white" stroke-width="1.5" stroke-miterlimit="10"/>
<path d="M29.2701 17.6561V21.0539" stroke="white" stroke-width="1.5" stroke-miterlimit="10"/>
<path d="M27.6982 27.1022V30.4952" stroke="white" stroke-width="1.5" stroke-miterlimit="10"/>
<path d="M29.2701 27.1022V30.4952" stroke="white" stroke-width="1.5" stroke-miterlimit="10"/>
<path d="M41.412 67.0248C41.4083 70.4969 40.3741 73.8899 38.4399 76.7752C36.5058 79.6605 33.7586 81.9086 30.5455 83.2354C27.3324 84.5621 23.7976 84.9081 20.3876 84.2295C16.9777 83.5508 13.8457 81.8781 11.3875 79.4227C8.9292 76.9672 7.25496 73.8392 6.57629 70.434C5.89762 67.0287 6.24498 63.4989 7.57449 60.2907C8.904 57.0825 11.156 54.3398 14.0459 52.4091C16.9358 50.4785 20.3339 49.4466 23.8109 49.4439C26.1232 49.442 28.4132 49.8955 30.5499 50.7784C32.6865 51.6613 34.6278 52.9564 36.2626 54.5893C37.8974 56.2223 39.1938 58.1612 40.0774 60.295C40.961 62.4289 41.4145 64.7157 41.412 67.0248V67.0248Z" fill="url(#paint33_radial_16_1318)" stroke="white" stroke-width="1.5" stroke-miterlimit="10"/>
<path d="M41.6285 70.8643C41.6979 70.633 41.6755 70.384 41.566 70.1687C41.4565 69.9535 41.2682 69.7886 41.0402 69.7082L39.859 69.3276C39.9663 68.5662 40.0214 67.7984 40.0237 67.0295C40.0238 66.243 39.9656 65.4576 39.8496 64.6797L41.0402 64.2944C41.2672 64.214 41.4546 64.0499 41.564 63.8357C41.6735 63.6215 41.6965 63.3736 41.6285 63.143L40.499 59.6606C40.4618 59.5462 40.4022 59.4402 40.3237 59.3489C40.2452 59.2575 40.1494 59.1826 40.0417 59.1284C39.9341 59.0743 39.8168 59.0419 39.6966 59.0332C39.5764 59.0245 39.4556 59.0397 39.3413 59.0779L38.1459 59.4632C37.4181 58.0963 36.499 56.8399 35.4164 55.7318L36.1646 54.7073C36.3013 54.5089 36.3565 54.2657 36.3189 54.0279C36.2812 53.79 36.1536 53.5757 35.9623 53.429L32.9974 51.2766C32.7987 51.1402 32.5551 51.085 32.317 51.1226C32.0788 51.1602 31.8641 51.2877 31.7173 51.4787L30.9737 52.5032C29.5835 51.8219 28.1011 51.347 26.5734 51.0934V49.8245C26.5734 49.7044 26.5497 49.5854 26.5035 49.4745C26.4573 49.3636 26.3896 49.2629 26.3043 49.1781C26.2191 49.0934 26.1179 49.0264 26.0065 48.9808C25.8952 48.9353 25.776 48.9122 25.6557 48.9128H21.9943C21.7522 48.9128 21.5199 49.0088 21.3487 49.1798C21.1775 49.3508 21.0813 49.5827 21.0813 49.8245V51.0934C19.5537 51.347 18.0713 51.8219 16.681 52.5032L15.9327 51.5163C15.8623 51.4194 15.7734 51.3373 15.6712 51.2747C15.569 51.2121 15.4554 51.1702 15.337 51.1515C15.2185 51.1327 15.0975 51.1374 14.9809 51.1654C14.8643 51.1933 14.7544 51.2439 14.6573 51.3142L11.6925 53.4666C11.5012 53.6133 11.3735 53.8276 11.3359 54.0654C11.2982 54.3033 11.3534 54.5465 11.4901 54.7449L12.2337 55.7459C11.151 56.8529 10.2333 58.1096 9.50877 59.4773L8.3087 59.092C8.19471 59.0539 8.07427 59.0388 7.95439 59.0475C7.8345 59.0562 7.71755 59.0886 7.6103 59.1428C7.50305 59.197 7.40764 59.272 7.32961 59.3633C7.25157 59.4546 7.19244 59.5604 7.15568 59.6747L6.0215 63.1571C5.95348 63.3877 5.97655 63.6356 6.08597 63.8498C6.1954 64.0639 6.38285 64.2281 6.60977 64.3085L7.80985 64.675C7.69539 65.453 7.63877 66.2384 7.64043 67.0248C7.64041 67.7938 7.69544 68.5618 7.80514 69.3229L6.61918 69.7035C6.39226 69.7839 6.2048 69.9481 6.09538 70.1622C5.98596 70.3764 5.96289 70.6243 6.03091 70.8549L7.1651 74.3373C7.24558 74.5639 7.40996 74.7511 7.62443 74.8603C7.8389 74.9696 8.08715 74.9926 8.31811 74.9247L9.49937 74.5394C10.225 75.9162 11.1442 77.1822 12.229 78.299L11.4995 79.3047C11.429 79.4016 11.3784 79.5114 11.3504 79.6278C11.3224 79.7443 11.3177 79.8651 11.3365 79.9833C11.3553 80.1016 11.3972 80.215 11.4599 80.3171C11.5226 80.4192 11.6048 80.5079 11.7019 80.5783L14.6668 82.7306C14.7638 82.801 14.8737 82.8516 14.9903 82.8795C15.107 82.9075 15.2279 82.9122 15.3464 82.8934C15.4648 82.8747 15.5784 82.8328 15.6806 82.7702C15.7828 82.7076 15.8717 82.6255 15.9421 82.5286L16.6669 81.5323C18.064 82.223 19.5541 82.7074 21.0907 82.9703V84.1969C21.0869 84.319 21.1078 84.4406 21.1519 84.5545C21.1961 84.6684 21.2628 84.7722 21.3479 84.8599C21.4331 84.9476 21.535 85.0172 21.6477 85.0648C21.7603 85.1124 21.8814 85.1369 22.0037 85.1368H25.6651C25.9107 85.1307 26.1441 85.029 26.3155 84.8534C26.487 84.6777 26.5829 84.4422 26.5828 84.1969V82.9703C28.1181 82.7083 29.6068 82.2238 31.0019 81.5323L31.7173 82.5333C31.8641 82.7243 32.0788 82.8518 32.317 82.8894C32.5551 82.927 32.7987 82.8718 32.9974 82.7353L35.9623 80.583C36.0593 80.5126 36.1415 80.4239 36.2042 80.3218C36.2669 80.2197 36.3088 80.1063 36.3276 79.988C36.3464 79.8698 36.3417 79.749 36.3137 79.6325C36.2858 79.5161 36.2351 79.4063 36.1646 79.3094L35.4305 78.3037C36.5182 77.1894 37.4377 75.9229 38.1601 74.5441L39.3413 74.9294C39.5729 74.9987 39.8223 74.9764 40.0379 74.867C40.2534 74.7576 40.4185 74.5696 40.499 74.342L41.6285 70.8643ZM23.8626 75.8176C22.1118 75.8176 20.4003 75.2992 18.9446 74.3278C17.4888 73.3565 16.3542 71.9759 15.6842 70.3607C15.0141 68.7454 14.8388 66.968 15.1804 65.2532C15.522 63.5385 16.3651 61.9634 17.6031 60.7271C18.8411 59.4908 20.4185 58.6489 22.1356 58.3078C23.8528 57.9667 25.6328 58.1418 27.2503 58.8109C28.8679 59.4799 30.2504 60.6129 31.2231 62.0667C32.1958 63.5204 32.715 65.2295 32.715 66.9778C32.715 68.1387 32.486 69.2882 32.0411 70.3607C31.5963 71.4332 30.9442 72.4077 30.1222 73.2285C29.3002 74.0494 28.3243 74.7005 27.2503 75.1448C26.1763 75.589 25.0252 75.8176 23.8626 75.8176V75.8176Z" fill="url(#paint34_radial_16_1318)" stroke="white" stroke-width="1.5" stroke-miterlimit="10"/>
<path d="M23.8109 78.2614C21.5832 78.2558 19.4071 77.5909 17.5577 76.3506C15.7084 75.1104 14.2687 73.3505 13.4207 71.2934C12.5727 69.2363 12.3544 66.9743 12.7935 64.7934C13.2326 62.6124 14.3092 60.6104 15.8874 59.0404C17.4656 57.4703 19.4745 56.4027 21.6602 55.9724C23.8458 55.5422 26.1101 55.7687 28.167 56.6232C30.2238 57.4777 31.9807 58.9219 33.2158 60.7733C34.4508 62.6247 35.1085 64.8002 35.1057 67.0248C35.0945 70.0088 33.8996 72.8668 31.7826 74.9728C29.6656 77.0789 26.7991 78.2614 23.8109 78.2614V78.2614Z" fill="url(#paint35_radial_16_1318)" stroke="white" stroke-width="1.5" stroke-miterlimit="10"/>
<path d="M30.1831 67.0248C30.1803 68.2793 29.8054 69.5049 29.1057 70.5468C28.406 71.5888 27.4128 72.4004 26.2516 72.8792C25.0904 73.358 23.8132 73.4825 22.5812 73.2371C21.3491 72.9916 20.2176 72.3872 19.3292 71.5001C18.4409 70.6131 17.8356 69.4831 17.5898 68.2528C17.3441 67.0225 17.4688 65.7471 17.9483 64.5875C18.4277 63.4279 19.2405 62.4362 20.2839 61.7375C21.3273 61.0388 22.5546 60.6644 23.8109 60.6616C24.6481 60.6604 25.4772 60.8241 26.2509 61.1435C27.0246 61.4628 27.7275 61.9315 28.3195 62.5226C28.9114 63.1137 29.3808 63.8157 29.7005 64.5883C30.0203 65.3608 30.1843 66.1888 30.1831 67.0248V67.0248Z" fill="url(#paint36_radial_16_1318)" stroke="white" stroke-width="1.5" stroke-miterlimit="10"/>
<path d="M23.8109 70.0607C23.2057 70.0607 22.6141 69.8814 22.1109 69.5455C21.6078 69.2097 21.2157 68.7323 20.9843 68.1739C20.7529 67.6154 20.6926 67.001 20.811 66.4083C20.9294 65.8156 21.2212 65.2714 21.6495 64.8443C22.0778 64.4173 22.6233 64.1268 23.217 64.0094C23.8107 63.8921 24.4259 63.9532 24.9848 64.1852C25.5437 64.4171 26.0211 64.8094 26.3567 65.3123C26.6923 65.8153 26.8709 66.4063 26.8699 67.0107C26.8687 67.82 26.5458 68.5958 25.9723 69.1677C25.3988 69.7395 24.6214 70.0607 23.8109 70.0607V70.0607Z" fill="url(#paint37_radial_16_1318)" stroke="white" stroke-width="1.5" stroke-miterlimit="10"/>
<path d="M36.56 68.4205L37.9812 69.8492" stroke="white" stroke-width="1.5" stroke-miterlimit="10"/>
<path d="M35.4963 72.2836L36.4093 74.0788" stroke="white" stroke-width="1.5" stroke-miterlimit="10"/>
<path d="M33.2939 75.6249L33.609 77.6175" stroke="white" stroke-width="1.5" stroke-miterlimit="10"/>
<path d="M30.164 78.1251L29.8489 80.1177" stroke="white" stroke-width="1.5" stroke-miterlimit="10"/>
<path d="M26.4134 79.5397L25.4957 81.3349" stroke="white" stroke-width="1.5" stroke-miterlimit="10"/>
<path d="M22.4085 79.7229L20.9825 81.1468" stroke="white" stroke-width="1.5" stroke-miterlimit="10"/>
<path d="M18.5447 78.6655L16.7469 79.5772" stroke="white" stroke-width="1.5" stroke-miterlimit="10"/>
<path d="M15.1939 76.4662L13.2032 76.7763" stroke="white" stroke-width="1.5" stroke-miterlimit="10"/>
<path d="M12.6902 73.3409L10.6995 73.0214" stroke="white" stroke-width="1.5" stroke-miterlimit="10"/>
<path d="M11.2783 69.5954L9.48056 68.679" stroke="white" stroke-width="1.5" stroke-miterlimit="10"/>
<path d="M11.0901 65.5962L9.66882 64.1675" stroke="white" stroke-width="1.5" stroke-miterlimit="10"/>
<path d="M12.1537 61.7331L11.2407 59.9379" stroke="white" stroke-width="1.5" stroke-miterlimit="10"/>
<path d="M14.3559 58.3917L14.0408 56.3991" stroke="white" stroke-width="1.5" stroke-miterlimit="10"/>
<path d="M17.4858 55.8916L17.8056 53.9037" stroke="white" stroke-width="1.5" stroke-miterlimit="10"/>
<path d="M21.2366 54.477L22.1543 52.6865" stroke="white" stroke-width="1.5" stroke-miterlimit="10"/>
<path d="M25.2416 54.2937L26.6676 52.8698" stroke="white" stroke-width="1.5" stroke-miterlimit="10"/>
<path d="M29.1053 55.3511L30.9031 54.4394" stroke="white" stroke-width="1.5" stroke-miterlimit="10"/>
<path d="M32.4562 57.5505L34.4469 57.2404" stroke="white" stroke-width="1.5" stroke-miterlimit="10"/>
<path d="M34.9599 60.6804L36.9506 60.9953" stroke="white" stroke-width="1.5" stroke-miterlimit="10"/>
<path d="M36.3717 64.4259L38.1695 65.3423" stroke="white" stroke-width="1.5" stroke-miterlimit="10"/>
<path d="M95.665 63.1241L97.538 64.9993" stroke="white" stroke-width="1.5" stroke-miterlimit="10"/>
<path d="M94.2672 68.1996L95.4673 70.5635" stroke="white" stroke-width="1.5" stroke-miterlimit="10"/>
<path d="M91.3682 72.6031L91.7821 75.2208" stroke="white" stroke-width="1.5" stroke-miterlimit="10"/>
<path d="M87.25 75.8928L86.8315 78.5105" stroke="white" stroke-width="1.5" stroke-miterlimit="10"/>
<path d="M82.3135 77.7491L81.104 80.1083" stroke="white" stroke-width="1.5" stroke-miterlimit="10"/>
<path d="M77.0426 77.9935L75.1648 79.8639" stroke="white" stroke-width="1.5" stroke-miterlimit="10"/>
<path d="M71.9552 76.5977L69.5927 77.8008" stroke="white" stroke-width="1.5" stroke-miterlimit="10"/>
<path d="M67.5502 73.7028L64.9289 74.1164" stroke="white" stroke-width="1.5" stroke-miterlimit="10"/>
<path d="M64.2559 69.5908L61.6345 69.1725" stroke="white" stroke-width="1.5" stroke-miterlimit="10"/>
<path d="M62.3969 64.6609L60.0297 63.4578" stroke="white" stroke-width="1.5" stroke-miterlimit="10"/>
<path d="M62.1522 59.4021L60.2744 57.527" stroke="white" stroke-width="1.5" stroke-miterlimit="10"/>
<path d="M63.5452 54.3219L62.3452 51.9581" stroke="white" stroke-width="1.5" stroke-miterlimit="10"/>
<path d="M66.444 49.9231L66.0348 47.3055" stroke="white" stroke-width="1.5" stroke-miterlimit="10"/>
<path d="M70.5669 46.6335L70.9854 44.0158" stroke="white" stroke-width="1.5" stroke-miterlimit="10"/>
<path d="M75.499 44.7725L76.7085 42.4133" stroke="white" stroke-width="1.5" stroke-miterlimit="10"/>
<path d="M80.7699 44.5281L82.6477 42.6577" stroke="white" stroke-width="1.5" stroke-miterlimit="10"/>
<path d="M85.8573 45.9238L88.2245 44.7208" stroke="white" stroke-width="1.5" stroke-miterlimit="10"/>
<path d="M90.2623 48.8188L92.8836 48.4052" stroke="white" stroke-width="1.5" stroke-miterlimit="10"/>
<path d="M93.5566 52.9308L96.178 53.3491" stroke="white" stroke-width="1.5" stroke-miterlimit="10"/>
<path d="M95.4202 57.8607L97.7827 59.0684" stroke="white" stroke-width="1.5" stroke-miterlimit="10"/>
</g>
<defs>
<radialGradient id="paint0_radial_16_1318" cx="0" cy="0" r="1" gradientUnits="userSpaceOnUse" gradientTransform="translate(9.30642 29.0995) scale(2.65899 2.65524)">
<stop offset="0.09" stop-color="white"/>
<stop offset="0.11" stop-color="#9A659E"/>
<stop offset="0.13" stop-color="#5B0663"/>
<stop offset="0.15" stop-color="#510558"/>
<stop offset="0.21" stop-color="#38043D"/>
<stop offset="0.29" stop-color="#230226"/>
<stop offset="0.37" stop-color="#130115"/>
<stop offset="0.48" stop-color="#080109"/>
<stop offset="0.62" stop-color="#020002"/>
<stop offset="1"/>
</radialGradient>
<radialGradient id="paint1_radial_16_1318" cx="0" cy="0" r="1" gradientUnits="userSpaceOnUse" gradientTransform="translate(13.1514 29.1277) scale(2.94137 2.93721)">
<stop offset="0.09" stop-color="white"/>
<stop offset="0.11" stop-color="#9A659E"/>
<stop offset="0.13" stop-color="#5B0663"/>
<stop offset="0.15" stop-color="#510558"/>
<stop offset="0.21" stop-color="#38043D"/>
<stop offset="0.29" stop-color="#230226"/>
<stop offset="0.37" stop-color="#130115"/>
<stop offset="0.48" stop-color="#080109"/>
<stop offset="0.62" stop-color="#020002"/>
<stop offset="1"/>
</radialGradient>
<radialGradient id="paint2_radial_16_1318" cx="0" cy="0" r="1" gradientUnits="userSpaceOnUse" gradientTransform="translate(9.30643 28.8786) scale(2.29191 2.28868)">
<stop offset="0.09" stop-color="white"/>
<stop offset="0.11" stop-color="#9A659E"/>
<stop offset="0.13" stop-color="#5B0663"/>
<stop offset="0.15" stop-color="#510558"/>
<stop offset="0.21" stop-color="#38043D"/>
<stop offset="0.29" stop-color="#230226"/>
<stop offset="0.37" stop-color="#130115"/>
<stop offset="0.48" stop-color="#080109"/>
<stop offset="0.62" stop-color="#020002"/>
<stop offset="1"/>
</radialGradient>
<radialGradient id="paint3_radial_16_1318" cx="0" cy="0" r="1" gradientUnits="userSpaceOnUse" gradientTransform="translate(48.9509 23.8864) rotate(0.22062) scale(1.67986 1.67748)">
<stop offset="0.09" stop-color="white"/>
<stop offset="0.11" stop-color="#9A659E"/>
<stop offset="0.13" stop-color="#5B0663"/>
<stop offset="0.15" stop-color="#510558"/>
<stop offset="0.21" stop-color="#38043D"/>
<stop offset="0.29" stop-color="#230226"/>
<stop offset="0.37" stop-color="#130115"/>
<stop offset="0.48" stop-color="#080109"/>
<stop offset="0.62" stop-color="#020002"/>
<stop offset="1"/>
</radialGradient>
<radialGradient id="paint4_radial_16_1318" cx="0" cy="0" r="1" gradientUnits="userSpaceOnUse" gradientTransform="translate(58.905 25.6031) scale(2.66371 2.65994)">
<stop offset="0.09" stop-color="white"/>
<stop offset="0.11" stop-color="#9A659E"/>
<stop offset="0.13" stop-color="#5B0663"/>
<stop offset="0.15" stop-color="#510558"/>
<stop offset="0.21" stop-color="#38043D"/>
<stop offset="0.29" stop-color="#230226"/>
<stop offset="0.37" stop-color="#130115"/>
<stop offset="0.48" stop-color="#080109"/>
<stop offset="0.62" stop-color="#020002"/>
<stop offset="1"/>
</radialGradient>
<radialGradient id="paint5_radial_16_1318" cx="0" cy="0" r="1" gradientUnits="userSpaceOnUse" gradientTransform="translate(73.5365 25.9743) scale(4.57914 4.57265)">
<stop offset="0.09" stop-color="white"/>
<stop offset="0.11" stop-color="#9A659E"/>
<stop offset="0.13" stop-color="#5B0663"/>
<stop offset="0.15" stop-color="#510558"/>
<stop offset="0.21" stop-color="#38043D"/>
<stop offset="0.29" stop-color="#230226"/>
<stop offset="0.37" stop-color="#130115"/>
<stop offset="0.48" stop-color="#080109"/>
<stop offset="0.62" stop-color="#020002"/>
<stop offset="1"/>
</radialGradient>
<radialGradient id="paint6_radial_16_1318" cx="0" cy="0" r="1" gradientUnits="userSpaceOnUse" gradientTransform="translate(16.9116 57.9359) scale(13.3656 13.3467)">
<stop offset="0.09" stop-color="white"/>
<stop offset="0.11" stop-color="#9A659E"/>
<stop offset="0.13" stop-color="#5B0663"/>
<stop offset="0.15" stop-color="#510558"/>
<stop offset="0.21" stop-color="#38043D"/>
<stop offset="0.29" stop-color="#230226"/>
<stop offset="0.37" stop-color="#130115"/>
<stop offset="0.48" stop-color="#080109"/>
<stop offset="0.62" stop-color="#020002"/>
<stop offset="1"/>
</radialGradient>
<radialGradient id="paint7_radial_16_1318" cx="0" cy="0" r="1" gradientUnits="userSpaceOnUse" gradientTransform="translate(35.7223 49.4955) scale(20.1896 20.161)">
<stop offset="0.09" stop-color="white"/>
<stop offset="0.11" stop-color="#9A659E"/>
<stop offset="0.13" stop-color="#5B0663"/>
<stop offset="0.15" stop-color="#510558"/>
<stop offset="0.21" stop-color="#38043D"/>
<stop offset="0.29" stop-color="#230226"/>
<stop offset="0.37" stop-color="#130115"/>
<stop offset="0.48" stop-color="#080109"/>
<stop offset="0.62" stop-color="#020002"/>
<stop offset="1"/>
</radialGradient>
<radialGradient id="paint8_radial_16_1318" cx="0" cy="0" r="1" gradientUnits="userSpaceOnUse" gradientTransform="translate(20.8178 48.7811) scale(2.62135 2.61764)">
<stop offset="0.09" stop-color="white"/>
<stop offset="0.11" stop-color="#9A659E"/>
<stop offset="0.13" stop-color="#5B0663"/>
<stop offset="0.15" stop-color="#510558"/>
<stop offset="0.21" stop-color="#38043D"/>
<stop offset="0.29" stop-color="#230226"/>
<stop offset="0.37" stop-color="#130115"/>
<stop offset="0.48" stop-color="#080109"/>
<stop offset="0.62" stop-color="#020002"/>
<stop offset="1"/>
</radialGradient>
<radialGradient id="paint9_radial_16_1318" cx="0" cy="0" r="1" gradientUnits="userSpaceOnUse" gradientTransform="translate(29.383 48.7811) scale(6.02863 6.02011)">
<stop offset="0.09" stop-color="white"/>
<stop offset="0.11" stop-color="#9A659E"/>
<stop offset="0.13" stop-color="#5B0663"/>
<stop offset="0.15" stop-color="#510558"/>
<stop offset="0.21" stop-color="#38043D"/>
<stop offset="0.29" stop-color="#230226"/>
<stop offset="0.37" stop-color="#130115"/>
<stop offset="0.48" stop-color="#080109"/>
<stop offset="0.62" stop-color="#020002"/>
<stop offset="1"/>
</radialGradient>
<radialGradient id="paint10_radial_16_1318" cx="0" cy="0" r="1" gradientUnits="userSpaceOnUse" gradientTransform="translate(11.9607 48.7811) scale(6.02863 6.02011)">
<stop offset="0.09" stop-color="white"/>
<stop offset="0.11" stop-color="#9A659E"/>
<stop offset="0.13" stop-color="#5B0663"/>
<stop offset="0.15" stop-color="#510558"/>
<stop offset="0.21" stop-color="#38043D"/>
<stop offset="0.29" stop-color="#230226"/>
<stop offset="0.37" stop-color="#130115"/>
<stop offset="0.48" stop-color="#080109"/>
<stop offset="0.62" stop-color="#020002"/>
<stop offset="1"/>
</radialGradient>
<radialGradient id="paint11_radial_16_1318" cx="0" cy="0" r="1" gradientUnits="userSpaceOnUse" gradientTransform="translate(40.0284 48.7811) scale(2.62135 2.61764)">
<stop offset="0.09" stop-color="white"/>
<stop offset="0.11" stop-color="#9A659E"/>
<stop offset="0.13" stop-color="#5B0663"/>
<stop offset="0.15" stop-color="#510558"/>
<stop offset="0.21" stop-color="#38043D"/>
<stop offset="0.29" stop-color="#230226"/>
<stop offset="0.37" stop-color="#130115"/>
<stop offset="0.48" stop-color="#080109"/>
<stop offset="0.62" stop-color="#020002"/>
<stop offset="1"/>
</radialGradient>
<radialGradient id="paint12_radial_16_1318" cx="0" cy="0" r="1" gradientUnits="userSpaceOnUse" gradientTransform="translate(30.5502 46.3374) scale(23.3286 23.2956)">
<stop offset="0.09" stop-color="white"/>
<stop offset="0.11" stop-color="#9A659E"/>
<stop offset="0.13" stop-color="#5B0663"/>
<stop offset="0.15" stop-color="#510558"/>
<stop offset="0.21" stop-color="#38043D"/>
<stop offset="0.29" stop-color="#230226"/>
<stop offset="0.37" stop-color="#130115"/>
<stop offset="0.48" stop-color="#080109"/>
<stop offset="0.62" stop-color="#020002"/>
<stop offset="1"/>
</radialGradient>
<radialGradient id="paint13_radial_16_1318" cx="0" cy="0" r="1" gradientUnits="userSpaceOnUse" gradientTransform="translate(4.83555 39.9836) scale(2.30603 2.30276)">
<stop offset="0.09" stop-color="white"/>
<stop offset="0.11" stop-color="#9A659E"/>
<stop offset="0.13" stop-color="#5B0663"/>
<stop offset="0.15" stop-color="#510558"/>
<stop offset="0.21" stop-color="#38043D"/>
<stop offset="0.29" stop-color="#230226"/>
<stop offset="0.37" stop-color="#130115"/>
<stop offset="0.48" stop-color="#080109"/>
<stop offset="0.62" stop-color="#020002"/>
<stop offset="1"/>
</radialGradient>
<radialGradient id="paint14_radial_16_1318" cx="0" cy="0" r="1" gradientUnits="userSpaceOnUse" gradientTransform="translate(4.83555 45.6325) scale(2.30603 2.30276)">
<stop offset="0.09" stop-color="white"/>
<stop offset="0.11" stop-color="#9A659E"/>
<stop offset="0.13" stop-color="#5B0663"/>
<stop offset="0.15" stop-color="#510558"/>
<stop offset="0.21" stop-color="#38043D"/>
<stop offset="0.29" stop-color="#230226"/>
<stop offset="0.37" stop-color="#130115"/>
<stop offset="0.48" stop-color="#080109"/>
<stop offset="0.62" stop-color="#020002"/>
<stop offset="1"/>
</radialGradient>
<radialGradient id="paint15_radial_16_1318" cx="0" cy="0" r="1" gradientUnits="userSpaceOnUse" gradientTransform="translate(4.83555 51.2813) scale(2.30603 2.3028)">
<stop offset="0.09" stop-color="white"/>
<stop offset="0.11" stop-color="#9A659E"/>
<stop offset="0.13" stop-color="#5B0663"/>
<stop offset="0.15" stop-color="#510558"/>
<stop offset="0.21" stop-color="#38043D"/>
<stop offset="0.29" stop-color="#230226"/>
<stop offset="0.37" stop-color="#130115"/>
<stop offset="0.48" stop-color="#080109"/>
<stop offset="0.62" stop-color="#020002"/>
<stop offset="1"/>
</radialGradient>
<radialGradient id="paint16_radial_16_1318" cx="0" cy="0" r="1" gradientUnits="userSpaceOnUse" gradientTransform="translate(103.67 37.272) scale(2.39545 2.39206)">
<stop offset="0.09" stop-color="white"/>
<stop offset="0.11" stop-color="#9A659E"/>
<stop offset="0.13" stop-color="#5B0663"/>
<stop offset="0.15" stop-color="#510558"/>
<stop offset="0.21" stop-color="#38043D"/>
<stop offset="0.29" stop-color="#230226"/>
<stop offset="0.37" stop-color="#130115"/>
<stop offset="0.48" stop-color="#080109"/>
<stop offset="0.62" stop-color="#020002"/>
<stop offset="1"/>
</radialGradient>
<radialGradient id="paint17_radial_16_1318" cx="0" cy="0" r="1" gradientUnits="userSpaceOnUse" gradientTransform="translate(101.378 37.1545) scale(4.1085 4.1027)">
<stop offset="0.09" stop-color="white"/>
<stop offset="0.11" stop-color="#9A659E"/>
<stop offset="0.13" stop-color="#5B0663"/>
<stop offset="0.15" stop-color="#510558"/>
<stop offset="0.21" stop-color="#38043D"/>
<stop offset="0.29" stop-color="#230226"/>
<stop offset="0.37" stop-color="#130115"/>
<stop offset="0.48" stop-color="#080109"/>
<stop offset="0.62" stop-color="#020002"/>
<stop offset="1"/>
</radialGradient>
<radialGradient id="paint18_radial_16_1318" cx="0" cy="0" r="1" gradientUnits="userSpaceOnUse" gradientTransform="translate(80.144 48.9456) scale(22.7544 22.7223)">
<stop offset="0.09" stop-color="white"/>
<stop offset="0.11" stop-color="#9A659E"/>
<stop offset="0.13" stop-color="#5B0663"/>
<stop offset="0.15" stop-color="#510558"/>
<stop offset="0.21" stop-color="#38043D"/>
<stop offset="0.29" stop-color="#230226"/>
<stop offset="0.37" stop-color="#130115"/>
<stop offset="0.48" stop-color="#080109"/>
<stop offset="0.62" stop-color="#020002"/>
<stop offset="1"/>
</radialGradient>
<radialGradient id="paint19_radial_16_1318" cx="0" cy="0" r="1" gradientUnits="userSpaceOnUse" gradientTransform="translate(78.8968 61.3243) scale(22.9615 22.9291)">
<stop offset="0.09" stop-color="white"/>
<stop offset="0.11" stop-color="#9A659E"/>
<stop offset="0.13" stop-color="#5B0663"/>
<stop offset="0.15" stop-color="#510558"/>
<stop offset="0.21" stop-color="#38043D"/>
<stop offset="0.29" stop-color="#230226"/>
<stop offset="0.37" stop-color="#130115"/>
<stop offset="0.48" stop-color="#080109"/>
<stop offset="0.62" stop-color="#020002"/>
<stop offset="1"/>
</radialGradient>
<radialGradient id="paint20_radial_16_1318" cx="0" cy="0" r="1" gradientUnits="userSpaceOnUse" gradientTransform="translate(78.9062 61.2631) scale(23.7145 23.681)">
<stop offset="0.09" stop-color="white"/>
<stop offset="0.11" stop-color="#9A659E"/>
<stop offset="0.13" stop-color="#5B0663"/>
<stop offset="0.15" stop-color="#510558"/>
<stop offset="0.21" stop-color="#38043D"/>
<stop offset="0.29" stop-color="#230226"/>
<stop offset="0.37" stop-color="#130115"/>
<stop offset="0.48" stop-color="#080109"/>
<stop offset="0.62" stop-color="#020002"/>
<stop offset="1"/>
</radialGradient>
<radialGradient id="paint21_radial_16_1318" cx="0" cy="0" r="1" gradientUnits="userSpaceOnUse" gradientTransform="translate(78.6709 61.3242) scale(14.8574 14.8364)">
<stop offset="0.09" stop-color="white"/>
<stop offset="0.11" stop-color="#9A659E"/>
<stop offset="0.13" stop-color="#5B0663"/>
<stop offset="0.15" stop-color="#510558"/>
<stop offset="0.21" stop-color="#38043D"/>
<stop offset="0.29" stop-color="#230226"/>
<stop offset="0.37" stop-color="#130115"/>
<stop offset="0.48" stop-color="#080109"/>
<stop offset="0.62" stop-color="#020002"/>
<stop offset="1"/>
</radialGradient>
<radialGradient id="paint22_radial_16_1318" cx="0" cy="0" r="1" gradientUnits="userSpaceOnUse" gradientTransform="translate(78.9063 61.2631) scale(8.38172 8.36987)">
<stop offset="0.09" stop-color="white"/>
<stop offset="0.11" stop-color="#9A659E"/>
<stop offset="0.13" stop-color="#5B0663"/>
<stop offset="0.15" stop-color="#510558"/>
<stop offset="0.21" stop-color="#38043D"/>
<stop offset="0.29" stop-color="#230226"/>
<stop offset="0.37" stop-color="#130115"/>
<stop offset="0.48" stop-color="#080109"/>
<stop offset="0.62" stop-color="#020002"/>
<stop offset="1"/>
</radialGradient>
<radialGradient id="paint23_radial_16_1318" cx="0" cy="0" r="1" gradientUnits="userSpaceOnUse" gradientTransform="translate(78.9063 61.2632) scale(4.03321 4.0275)">
<stop offset="0.09" stop-color="white"/>
<stop offset="0.11" stop-color="#9A659E"/>
<stop offset="0.13" stop-color="#5B0663"/>
<stop offset="0.15" stop-color="#510558"/>
<stop offset="0.21" stop-color="#38043D"/>
<stop offset="0.29" stop-color="#230226"/>
<stop offset="0.37" stop-color="#130115"/>
<stop offset="0.48" stop-color="#080109"/>
<stop offset="0.62" stop-color="#020002"/>
<stop offset="1"/>
</radialGradient>
<radialGradient id="paint24_radial_16_1318" cx="0" cy="0" r="1" gradientUnits="userSpaceOnUse" gradientTransform="translate(80.144 40.5805) scale(20.5707 20.5417)">
<stop offset="0.09" stop-color="white"/>
<stop offset="0.11" stop-color="#9A659E"/>
<stop offset="0.13" stop-color="#5B0663"/>
<stop offset="0.15" stop-color="#510558"/>
<stop offset="0.21" stop-color="#38043D"/>
<stop offset="0.29" stop-color="#230226"/>
<stop offset="0.37" stop-color="#130115"/>
<stop offset="0.48" stop-color="#080109"/>
<stop offset="0.62" stop-color="#020002"/>
<stop offset="1"/>
</radialGradient>
<radialGradient id="paint25_radial_16_1318" cx="0" cy="0" r="1" gradientUnits="userSpaceOnUse" gradientTransform="translate(47.8831 51.9674) scale(2.48016 2.47665)">
<stop offset="0.09" stop-color="white"/>
<stop offset="0.11" stop-color="#9A659E"/>
<stop offset="0.13" stop-color="#5B0663"/>
<stop offset="0.15" stop-color="#510558"/>
<stop offset="0.21" stop-color="#38043D"/>
<stop offset="0.29" stop-color="#230226"/>
<stop offset="0.37" stop-color="#130115"/>
<stop offset="0.48" stop-color="#080109"/>
<stop offset="0.62" stop-color="#020002"/>
<stop offset="1"/>
</radialGradient>
<radialGradient id="paint26_radial_16_1318" cx="0" cy="0" r="1" gradientUnits="userSpaceOnUse" gradientTransform="translate(16.0316 36.7691) scale(1.70835 1.70593)">
<stop offset="0.09" stop-color="white"/>
<stop offset="0.11" stop-color="#9A659E"/>
<stop offset="0.13" stop-color="#5B0663"/>
<stop offset="0.15" stop-color="#510558"/>
<stop offset="0.21" stop-color="#38043D"/>
<stop offset="0.29" stop-color="#230226"/>
<stop offset="0.37" stop-color="#130115"/>
<stop offset="0.48" stop-color="#080109"/>
<stop offset="0.62" stop-color="#020002"/>
<stop offset="1"/>
</radialGradient>
<radialGradient id="paint27_radial_16_1318" cx="0" cy="0" r="1" gradientUnits="userSpaceOnUse" gradientTransform="translate(12.4831 36.6845) scale(1.93895 1.93621)">
<stop offset="0.09" stop-color="white"/>
<stop offset="0.11" stop-color="#9A659E"/>
<stop offset="0.13" stop-color="#5B0663"/>
<stop offset="0.15" stop-color="#510558"/>
<stop offset="0.21" stop-color="#38043D"/>
<stop offset="0.29" stop-color="#230226"/>
<stop offset="0.37" stop-color="#130115"/>
<stop offset="0.48" stop-color="#080109"/>
<stop offset="0.62" stop-color="#020002"/>
<stop offset="1"/>
</radialGradient>
<radialGradient id="paint28_radial_16_1318" cx="0" cy="0" r="1" gradientUnits="userSpaceOnUse" gradientTransform="translate(14.2761 36.6846) scale(2.34367 2.34037)">
<stop offset="0.09" stop-color="white"/>
<stop offset="0.11" stop-color="#9A659E"/>
<stop offset="0.13" stop-color="#5B0663"/>
<stop offset="0.15" stop-color="#510558"/>
<stop offset="0.21" stop-color="#38043D"/>
<stop offset="0.29" stop-color="#230226"/>
<stop offset="0.37" stop-color="#130115"/>
<stop offset="0.48" stop-color="#080109"/>
<stop offset="0.62" stop-color="#020002"/>
<stop offset="1"/>
</radialGradient>
<radialGradient id="paint29_radial_16_1318" cx="0" cy="0" r="1" gradientUnits="userSpaceOnUse" gradientTransform="translate(29.4348 25.1049) scale(16.0481 16.0254)">
<stop offset="0.09" stop-color="white"/>
<stop offset="0.11" stop-color="#9A659E"/>
<stop offset="0.13" stop-color="#5B0663"/>
<stop offset="0.15" stop-color="#510558"/>
<stop offset="0.21" stop-color="#38043D"/>
<stop offset="0.29" stop-color="#230226"/>
<stop offset="0.37" stop-color="#130115"/>
<stop offset="0.48" stop-color="#080109"/>
<stop offset="0.62" stop-color="#020002"/>
<stop offset="1"/>
</radialGradient>
<radialGradient id="paint30_radial_16_1318" cx="0" cy="0" r="1" gradientUnits="userSpaceOnUse" gradientTransform="translate(28.4841 26.261) scale(7.97699 7.96571)">
<stop offset="0.09" stop-color="white"/>
<stop offset="0.11" stop-color="#9A659E"/>
<stop offset="0.13" stop-color="#5B0663"/>
<stop offset="0.15" stop-color="#510558"/>
<stop offset="0.21" stop-color="#38043D"/>
<stop offset="0.29" stop-color="#230226"/>
<stop offset="0.37" stop-color="#130115"/>
<stop offset="0.48" stop-color="#080109"/>
<stop offset="0.62" stop-color="#020002"/>
<stop offset="1"/>
</radialGradient>
<radialGradient id="paint31_radial_16_1318" cx="0" cy="0" r="1" gradientUnits="userSpaceOnUse" gradientTransform="translate(44.5181 40.3408) scale(2.56017 2.55654)">
<stop offset="0.09" stop-color="white"/>
<stop offset="0.11" stop-color="#9A659E"/>
<stop offset="0.13" stop-color="#5B0663"/>
<stop offset="0.15" stop-color="#510558"/>
<stop offset="0.21" stop-color="#38043D"/>
<stop offset="0.29" stop-color="#230226"/>
<stop offset="0.37" stop-color="#130115"/>
<stop offset="0.48" stop-color="#080109"/>
<stop offset="0.62" stop-color="#020002"/>
<stop offset="1"/>
</radialGradient>
<radialGradient id="paint32_radial_16_1318" cx="0" cy="0" r="1" gradientUnits="userSpaceOnUse" gradientTransform="translate(37.4777 54.1151) scale(3.97202 3.9664)">
<stop offset="0.09" stop-color="white"/>
<stop offset="0.11" stop-color="#9A659E"/>
<stop offset="0.13" stop-color="#5B0663"/>
<stop offset="0.15" stop-color="#510558"/>
<stop offset="0.21" stop-color="#38043D"/>
<stop offset="0.29" stop-color="#230226"/>
<stop offset="0.37" stop-color="#130115"/>
<stop offset="0.48" stop-color="#080109"/>
<stop offset="0.62" stop-color="#020002"/>
<stop offset="1"/>
</radialGradient>
<radialGradient id="paint33_radial_16_1318" cx="0" cy="0" r="1" gradientUnits="userSpaceOnUse" gradientTransform="translate(23.825 67.0107) scale(17.587 17.5622)">
<stop offset="0.09" stop-color="white"/>
<stop offset="0.11" stop-color="#9A659E"/>
<stop offset="0.13" stop-color="#5B0663"/>
<stop offset="0.15" stop-color="#510558"/>
<stop offset="0.21" stop-color="#38043D"/>
<stop offset="0.29" stop-color="#230226"/>
<stop offset="0.37" stop-color="#130115"/>
<stop offset="0.48" stop-color="#080109"/>
<stop offset="0.62" stop-color="#020002"/>
<stop offset="1"/>
</radialGradient>
<radialGradient id="paint34_radial_16_1318" cx="0" cy="0" r="1" gradientUnits="userSpaceOnUse" gradientTransform="translate(23.825 67.0107) scale(17.987 17.9616)">
<stop offset="0.09" stop-color="white"/>
<stop offset="0.11" stop-color="#9A659E"/>
<stop offset="0.13" stop-color="#5B0663"/>
<stop offset="0.15" stop-color="#510558"/>
<stop offset="0.21" stop-color="#38043D"/>
<stop offset="0.29" stop-color="#230226"/>
<stop offset="0.37" stop-color="#130115"/>
<stop offset="0.48" stop-color="#080109"/>
<stop offset="0.62" stop-color="#020002"/>
<stop offset="1"/>
</radialGradient>
<radialGradient id="paint35_radial_16_1318" cx="0" cy="0" r="1" gradientUnits="userSpaceOnUse" gradientTransform="translate(23.825 67.0107) scale(11.2666 11.2507)">
<stop offset="0.09" stop-color="white"/>
<stop offset="0.11" stop-color="#9A659E"/>
<stop offset="0.13" stop-color="#5B0663"/>
<stop offset="0.15" stop-color="#510558"/>
<stop offset="0.21" stop-color="#38043D"/>
<stop offset="0.29" stop-color="#230226"/>
<stop offset="0.37" stop-color="#130115"/>
<stop offset="0.48" stop-color="#080109"/>
<stop offset="0.62" stop-color="#020002"/>
<stop offset="1"/>
</radialGradient>
<radialGradient id="paint36_radial_16_1318" cx="0" cy="0" r="1" gradientUnits="userSpaceOnUse" gradientTransform="translate(23.825 67.0107) scale(6.35806 6.34908)">
<stop offset="0.09" stop-color="white"/>
<stop offset="0.11" stop-color="#9A659E"/>
<stop offset="0.13" stop-color="#5B0663"/>
<stop offset="0.15" stop-color="#510558"/>
<stop offset="0.21" stop-color="#38043D"/>
<stop offset="0.29" stop-color="#230226"/>
<stop offset="0.37" stop-color="#130115"/>
<stop offset="0.48" stop-color="#080109"/>
<stop offset="0.62" stop-color="#020002"/>
<stop offset="1"/>
</radialGradient>
<radialGradient id="paint37_radial_16_1318" cx="0" cy="0" r="1" gradientUnits="userSpaceOnUse" gradientTransform="translate(23.825 67.0107) scale(3.05902 3.05471)">
<stop offset="0.09" stop-color="white"/>
<stop offset="0.11" stop-color="#9A659E"/>
<stop offset="0.13" stop-color="#5B0663"/>
<stop offset="0.15" stop-color="#510558"/>
<stop offset="0.21" stop-color="#38043D"/>
<stop offset="0.29" stop-color="#230226"/>
<stop offset="0.37" stop-color="#130115"/>
<stop offset="0.48" stop-color="#080109"/>
<stop offset="0.62" stop-color="#020002"/>
<stop offset="1"/>
</radialGradient>
</defs>
</svg>
