<svg width="111" height="131" viewBox="0 0 111 131" fill="none" xmlns="http://www.w3.org/2000/svg">
<path d="M45.2694 83.1152C44.8655 83.118 44.4789 83.2795 44.1932 83.5647C43.9076 83.85 43.7459 84.2361 43.7431 84.6395C43.7312 87.3482 44.7106 89.968 46.4971 92.0061C48.2836 94.0443 50.7541 95.3605 53.4441 95.7072V130.011H56.4941V95.6884C58.9163 95.3801 61.1686 94.281 62.9005 92.5619C63.9485 91.5196 64.7793 90.2802 65.3448 88.9153C65.9103 87.5504 66.1993 86.0871 66.1951 84.61C66.1923 84.2066 66.0305 83.8205 65.7449 83.5352C65.4593 83.25 65.0727 83.0885 64.6687 83.0856C63.1352 83.0878 61.6184 83.4042 60.2123 84.0154C58.8062 84.6266 57.5407 85.5195 56.4941 86.6389V82.1222C59.1804 81.7752 61.6476 80.4615 63.4331 78.4273C65.2186 76.3932 66.1997 73.7783 66.1924 71.0733C66.1896 70.6705 66.0281 70.2851 65.743 70.0004C65.4579 69.7156 65.0719 69.5544 64.6687 69.5516C63.1351 69.5534 61.6183 69.8697 60.2121 70.4809C58.806 71.0921 57.5405 71.9852 56.4941 73.1048V69.5811C59.1799 69.2331 61.6465 67.919 63.4318 65.8851C65.2171 63.8511 66.1986 61.2369 66.1924 58.5322C66.1896 58.129 66.0278 57.7432 65.742 57.4584C65.4563 57.1735 65.0697 57.0126 64.666 57.0105C62.6991 57.0116 60.7672 57.5301 59.0646 58.5138C57.3621 59.4975 55.9491 60.9117 54.9677 62.6141C53.9822 60.9148 52.5679 59.5031 50.8657 58.5199C49.1636 57.5367 47.2331 57.0163 45.2668 57.0105C44.8633 57.0133 44.4771 57.1744 44.1915 57.4591C43.9059 57.7438 43.7439 58.1292 43.7404 58.5322C43.7343 61.2373 44.7162 63.8519 46.502 65.8859C48.2879 67.9198 50.7551 69.2337 53.4414 69.5811V73.0941C52.3944 71.9744 51.1285 71.0813 49.7219 70.4701C48.3153 69.8589 46.798 69.5426 45.2641 69.5408C44.8608 69.5437 44.4749 69.7049 44.1898 69.9896C43.9046 70.2744 43.7432 70.6598 43.7404 71.0625C43.7342 73.7673 44.7157 76.3815 46.501 78.4154C48.2863 80.4493 50.7529 81.7634 53.4387 82.1114V86.6496C52.391 85.5345 51.1255 84.6455 49.7205 84.0376C48.3155 83.4297 46.8006 83.1158 45.2694 83.1152ZM49.1955 90.4069C48.0689 89.2933 47.2943 87.874 46.9678 86.3249C48.5144 86.656 49.9322 87.4264 51.0507 88.5434C52.1691 89.6604 52.9405 91.0764 53.2721 92.6209C51.723 92.3043 50.3036 91.5334 49.1955 90.4069ZM62.9811 86.3437C62.6541 87.8871 61.8869 89.303 60.7721 90.4206C59.6573 91.5383 58.2425 92.3099 56.6983 92.6424C57.0219 91.0975 57.7879 89.6797 58.9033 88.5615C60.0187 87.4432 61.4354 86.6727 62.9811 86.3437ZM62.9811 72.7774C62.6533 74.3202 61.8858 75.7354 60.7711 76.8524C59.6564 77.9695 58.242 78.7408 56.6983 79.0735C57.0223 77.529 57.7886 76.1118 58.9039 74.9941C60.0193 73.8764 61.4357 73.1063 62.9811 72.7774ZM62.9811 60.2256C62.6541 61.769 61.8869 63.1849 60.7721 64.3026C59.6573 65.4202 58.2425 66.1918 56.6983 66.5243C57.0219 64.9794 57.7879 63.5616 58.9033 62.4434C60.0187 61.3251 61.4354 60.5547 62.9811 60.2256ZM49.1955 64.3102C48.0688 63.1957 47.2942 61.7755 46.9678 60.2256C48.5146 60.5572 49.9325 61.3281 51.0509 62.4456C52.1694 63.563 52.9407 64.9794 53.2721 66.5243C51.7295 66.1899 50.315 65.4216 49.1955 64.3102ZM49.1955 76.8594C48.0689 75.7458 47.2943 74.3265 46.9678 72.7774C48.5141 73.1092 49.9316 73.8798 51.0499 74.9967C52.1683 76.1135 52.9399 77.5292 53.2721 79.0735C51.7287 78.7413 50.3135 77.9727 49.1955 76.8594Z" fill="#141B4E"/>
<path d="M73.6361 27.1004L75.3049 34.0459L63.2123 34.4136C62.7345 34.2681 62.222 34.2849 61.7548 34.4611C61.2876 34.6374 60.892 34.9632 60.6298 35.3878L58.7998 38.3399C58.594 38.6785 58.5277 39.0836 58.6149 39.47C58.7021 39.8564 58.936 40.194 59.2674 40.4117C59.409 40.5084 59.5676 40.5776 59.7349 40.6157L78.0298 45.4276L79.0052 49.4532C79.1467 50.0348 79.5131 50.5368 80.0243 50.8491C80.5355 51.1615 81.1499 51.2588 81.7328 51.1198L104.123 45.7523C104.412 45.6846 104.685 45.5602 104.926 45.3864C105.167 45.2126 105.371 44.9928 105.526 44.7396C105.682 44.4865 105.785 44.2052 105.83 43.9119C105.876 43.6186 105.863 43.3192 105.792 43.031L104.916 39.3758C105.224 37.8869 105.694 36.4361 106.318 35.0496C106.501 34.6444 106.687 34.2445 106.888 33.8312C107.479 32.594 108.089 31.3138 108.415 29.8727C108.952 27.3741 108.334 24.9346 106.786 23.5149C105.909 22.7433 104.826 22.2442 103.669 22.0791C102.717 21.9231 101.743 21.9504 100.802 22.1596L100.444 20.7051C100.376 20.4159 100.252 20.143 100.077 19.9025C99.903 19.662 99.6823 19.4586 99.4283 19.3042C99.1769 19.1453 98.8956 19.0395 98.6016 18.9933C98.3077 18.9472 98.0074 18.9616 97.7193 19.0358L75.3506 24.4032C75.0613 24.4715 74.7884 24.5963 74.5476 24.7704C74.3069 24.9445 74.103 25.1645 73.9478 25.4177C73.7872 25.6642 73.6772 25.9401 73.6241 26.2294C73.5711 26.5188 73.576 26.8157 73.6388 27.1031L73.6361 27.1004ZM62.9381 37.4569H63L76.0358 37.0731L76.361 38.4526C75.3049 40.036 68.8179 39.3677 64.5371 38.721L62.4706 38.1815L62.9381 37.4569ZM103.131 25.05C103.718 25.128 104.27 25.3741 104.72 25.7585C105.614 26.5932 105.676 28.1551 105.432 29.234C105.126 30.3766 104.689 31.4799 104.128 32.5215C103.946 32.9295 103.741 33.3267 103.559 33.7212L101.487 25.0688C102.03 24.97 102.586 24.9637 103.131 25.05ZM97.3968 22.2267L98.0498 24.948C99.1722 29.6871 98.3714 34.6772 95.8222 38.8286C93.2731 42.9799 89.1826 45.9553 84.4442 47.1049L81.7382 47.7544L80.803 43.8361L78.7284 35.1623L76.8178 27.1621L97.3968 22.2267Z" fill="#141B4E"/>
<path d="M3.94489 130.008V117.682C3.94488 116.898 4.09967 116.123 4.40038 115.399C4.70109 114.676 5.14181 114.019 5.69727 113.466C6.25273 112.913 6.91201 112.475 7.63733 112.177C8.36264 111.879 9.13972 111.727 9.92402 111.729H13.8904L15.355 119.469H10.1874C9.49243 119.471 8.82656 119.748 8.33515 120.239C7.84375 120.729 7.56674 121.394 7.56461 122.088V130.008H11.3053V124.624C11.3053 124.34 11.4185 124.067 11.6201 123.865C11.8217 123.664 12.0951 123.551 12.3802 123.551H39.5752V130.011H42.6252V122.088C42.6231 121.394 42.3461 120.729 41.8547 120.239C41.3633 119.748 40.6974 119.471 40.0024 119.469H34.8349L36.2994 111.729H44.5493C44.926 111.736 45.3009 111.783 45.6672 111.871C46.5965 112.903 47.1106 114.241 47.1102 115.629V130.008H50.1603V115.629C50.1574 113.319 49.2375 111.105 47.6023 109.472C45.967 107.839 43.75 106.92 41.4374 106.917H28.329C33.7788 105.291 37.9252 99.706 38.4761 92.8625L41.1633 92.9027H41.1821C41.5758 92.8888 41.9487 92.7235 42.2231 92.4414C42.4976 92.1592 42.6521 91.7821 42.6546 91.3887C42.657 90.9954 42.5071 90.6164 42.2362 90.3308C41.9653 90.0453 41.5944 89.8754 41.201 89.8567L38.5137 89.8164C38.4331 86.4645 37.8607 78.5018 34.0985 76.5749C32.5346 75.7698 30.1752 76.3495 27.9179 76.8996C26.8188 77.168 25.7009 77.4364 25.0721 77.4364C24.4433 77.4364 23.3012 77.168 22.2236 76.8996C19.9475 76.3629 17.6069 75.7805 16.0429 76.5749C12.4017 78.4213 11.7433 85.9358 11.6492 89.4568L9.00498 89.4166C8.61138 89.4305 8.23839 89.5958 7.96399 89.8779C7.68959 90.1601 7.53501 90.5372 7.53258 90.9306C7.53015 91.3239 7.68006 91.7029 7.95095 91.9885C8.22185 92.274 8.59277 92.4439 8.98617 92.4626L11.6922 92.5055C12.098 99.5101 16.2874 105.259 21.8393 106.925H8.72551C6.41248 106.927 4.19476 107.846 2.55895 109.479C0.923135 111.112 0.00284582 113.327 0 115.637V130.016L3.94489 130.008ZM16.6556 80.7562C16.7362 80.41 16.8168 80.0852 16.8974 79.7605C17.0504 79.5719 17.2372 79.4136 17.4483 79.2935C18.0153 79.009 20.2941 79.5619 21.5356 79.8625C22.8578 80.1872 24.0966 80.4932 25.1151 80.4932C26.1335 80.4932 27.3724 80.1872 28.6945 79.8625C29.9145 79.5565 32.2121 79.009 32.7818 79.2935C34.3485 80.0852 35.2003 84.4919 35.4449 88.3323H22.8981C18.8672 88.3323 15.8225 84.6771 16.6556 80.7562ZM15.0432 92.5351L35.4395 92.8034C34.9934 97.8596 32.2148 102.022 28.4526 103.627C27.9147 103.722 27.3703 103.777 26.8242 103.791C20.6838 103.831 15.6801 99.6067 15.0298 92.5377L15.0432 92.5351ZM33.2225 111.748L31.7633 119.499H18.4641L16.9996 111.761L33.2225 111.748Z" fill="#141B4E"/>
<path d="M63.7739 116.522V104.47C63.7739 103.686 63.9287 102.911 64.2294 102.187C64.5301 101.464 64.9708 100.807 65.5263 100.254C66.0817 99.701 66.741 99.2629 67.4663 98.9649C68.1916 98.6668 68.9687 98.5147 69.753 98.5172H73.7194L75.184 106.246H70.0164C69.3214 106.248 68.6556 106.525 68.1642 107.016C67.6728 107.507 67.3958 108.172 67.3936 108.866V116.546H71.137V111.423C71.137 111.139 71.2502 110.865 71.4518 110.664C71.6534 110.463 71.9268 110.35 72.2119 110.35H99.4042V116.546H102.454V108.871C102.452 108.177 102.175 107.512 101.684 107.021C101.192 106.53 100.526 106.254 99.8314 106.252H94.6666L96.1445 98.5091H104.4C104.777 98.5141 105.152 98.5618 105.518 98.6514C106.447 99.6824 106.962 101.021 106.961 102.409V116.546H110.013V102.387C110.011 100.077 109.092 97.8623 107.456 96.2286C105.821 94.595 103.604 93.6759 101.291 93.673H88.158C93.6078 92.0628 97.7542 86.4645 98.3051 79.621L100.992 79.6613H101.011C101.405 79.6474 101.778 79.4821 102.052 79.1999C102.327 78.9177 102.481 78.5406 102.484 78.1473C102.486 77.7539 102.336 77.3749 102.065 77.0894C101.794 76.8039 101.423 76.634 101.03 76.6152L98.3427 76.5723C98.2621 73.223 97.6897 65.2604 93.9276 63.3522C92.3421 62.5471 90.0042 63.108 87.7254 63.677C86.629 63.9453 85.5084 64.2137 84.8796 64.2137C84.2508 64.2137 83.1302 63.9453 82.0311 63.677C79.755 63.1402 77.4144 62.5605 75.8504 63.3522C72.2092 65.2013 71.5508 72.7158 71.4568 76.2341L68.8152 76.1912C68.4104 76.1859 68.02 76.3413 67.73 76.6234C67.4399 76.9055 67.274 77.2911 67.2687 77.6954C67.2633 78.0997 67.419 78.4896 67.7015 78.7792C67.9839 79.0689 68.3701 79.2346 68.7749 79.2399L71.4782 79.2802C71.8867 86.2874 76.0761 92.0333 81.628 93.6999H68.5115C66.199 93.7027 63.9819 94.6214 62.3467 96.2545C60.7115 97.8876 59.7915 100.102 59.7887 102.411V116.546H63.7739V116.522ZM76.5061 67.5147C76.5652 67.1685 76.6673 66.8438 76.748 66.519C76.8965 66.3314 77.0788 66.173 77.2854 66.0521C77.8551 65.7676 80.1339 66.3204 81.3754 66.621C82.6948 66.9457 83.9364 67.2517 84.9333 67.2517C85.9303 67.2517 87.1691 66.9457 88.4912 66.621C89.7113 66.3151 92.0089 65.7676 92.5786 66.0521C94.1452 66.8438 94.9971 71.2504 95.2416 75.0909H82.7083C81.7698 75.0934 80.8426 74.8869 79.9942 74.4865C79.1457 74.086 78.3973 73.5017 77.8035 72.776C77.2096 72.0503 76.7853 71.2014 76.5613 70.2913C76.3374 69.3812 76.3194 68.4326 76.5088 67.5147H76.5061ZM74.8938 79.3231L95.2927 79.5915C94.8439 84.6503 92.068 88.8128 88.3058 90.4177C87.7616 90.5131 87.2109 90.5669 86.6585 90.5787C80.5182 90.6002 75.536 86.376 74.883 79.3285L74.8938 79.3231ZM93.0757 98.5145L91.6111 106.252H78.3146L76.8501 98.5145H93.0757Z" fill="#141B4E"/>
<path d="M68.1971 45.7657H71.2471V60.6927H68.1971V45.7657Z" fill="#141B4E"/>
<path d="M12.9338 74.0978H15.1507V33.1548C15.1523 32.4072 15.3622 31.6747 15.7571 31.0396C16.152 30.4044 16.7162 29.8916 17.3865 29.5586H31.3603V60.6899H35.8963V7.66474C35.8963 6.12159 36.6891 4.59992 38.0703 3.90751C38.0918 3.88873 38.1133 3.88873 38.1321 3.86726H52.2671C52.6121 4.26857 52.8026 4.7795 52.8045 5.30842V35.9566H55.8626V35.9164H57.2439V28.2517C57.2439 26.7085 58.05 25.1841 59.4205 24.4944C59.442 24.473 59.4608 24.473 59.4823 24.4515H66.926C67.3081 24.715 67.6206 25.0669 67.8368 25.4773C68.053 25.8876 68.1665 26.3441 68.1675 26.8078V32.0357H71.2176V26.7971C71.2154 25.2247 70.5891 23.7174 69.4758 22.6055C68.3625 21.4937 66.8532 20.8682 65.2788 20.866H55.8734V5.30037C55.8719 3.89506 55.3123 2.54772 54.3173 1.55401C53.3223 0.560308 51.9732 0.00142094 50.566 0H36.6461C35.2387 0.00071112 33.8892 0.55937 32.894 1.55323C31.8989 2.54709 31.3395 3.89484 31.3388 5.30037V25.6967H17.6123C15.5623 25.6989 13.5969 26.5135 12.1478 27.9617C10.6988 29.4098 9.88444 31.3732 9.88373 33.4205V74.1193H12.9338V74.0978Z" fill="#141B4E"/>
<path d="M54.9086 44.354C55.068 44.1997 55.1948 44.0149 55.2814 43.8107C55.3679 43.6064 55.4126 43.3869 55.4126 43.1651C55.4126 42.9434 55.3679 42.7238 55.2814 42.5196C55.1948 42.3154 55.068 42.1306 54.9086 41.9762L53.7101 40.7793L52.5089 41.9762C52.3482 42.1319 52.2205 42.3181 52.1333 42.5239C52.046 42.7298 52.0011 42.951 52.0011 43.1745C52.0011 43.398 52.046 43.6193 52.1333 43.8251C52.2205 44.031 52.3482 44.2172 52.5089 44.3728C52.8298 44.6878 53.2627 44.8627 53.7126 44.8592C54.1626 44.8557 54.5927 44.674 54.9086 44.354Z" fill="#141B4E"/>
<path d="M59.0147 48.4253C59.1742 48.2709 59.3009 48.0862 59.3875 47.8819C59.4741 47.6777 59.5187 47.4582 59.5187 47.2364C59.5187 47.0146 59.4741 46.7951 59.3875 46.5909C59.3009 46.3867 59.1742 46.2019 59.0147 46.0475L57.8162 44.8506L56.615 46.0475C56.4537 46.2029 56.3255 46.3893 56.2382 46.5955C56.1509 46.8016 56.1063 47.0233 56.1071 47.2472C56.1096 47.5825 56.2117 47.9096 56.4003 48.1871C56.5889 48.4646 56.8557 48.68 57.1669 48.8061C57.4781 48.9322 57.8197 48.9633 58.1486 48.8956C58.4775 48.8278 58.7789 48.6641 59.0147 48.4253Z" fill="#141B4E"/>
<path d="M50.4612 48.8117C50.3014 48.9673 50.1741 49.153 50.0865 49.3581C49.9989 49.5631 49.9529 49.7834 49.951 50.0063C49.9492 50.2292 49.9916 50.4503 50.0757 50.6568C50.1599 50.8632 50.2842 51.051 50.4414 51.2092C50.5986 51.3675 50.7856 51.4931 50.9917 51.5787C51.1977 51.6644 51.4187 51.7085 51.6419 51.7084C51.8652 51.7083 52.0861 51.664 52.2921 51.5782C52.4981 51.4924 52.685 51.3666 52.8421 51.2083C53.0009 51.0535 53.1271 50.8686 53.2132 50.6644C53.2994 50.4603 53.3437 50.2409 53.3437 50.0194C53.3437 49.7978 53.2994 49.5785 53.2132 49.3743C53.1271 49.1701 53.0009 48.9852 52.8421 48.8305L51.6409 47.6335L50.4612 48.8117Z" fill="#141B4E"/>
<path d="M56.9617 55.2903C57.1211 55.1359 57.2479 54.9512 57.3345 54.7469C57.421 54.5427 57.4656 54.3232 57.4656 54.1014C57.4656 53.8796 57.421 53.6601 57.3345 53.4559C57.2479 53.2517 57.1211 53.0669 56.9617 52.9125L55.7632 51.7156L54.562 52.9125C54.4006 53.0679 54.2725 53.2543 54.1852 53.4605C54.0979 53.6666 54.0533 53.8883 54.0541 54.1122C54.0549 54.3354 54.1002 54.5562 54.1874 54.7617C54.2746 54.9672 54.402 55.1533 54.562 55.3091C54.8878 55.6145 55.3188 55.783 55.7656 55.7795C56.2124 55.776 56.6408 55.6008 56.9617 55.2903Z" fill="#141B4E"/>
</svg>
