<svg width="130" height="130" viewBox="0 0 130 130" fill="none" xmlns="http://www.w3.org/2000/svg">
<path d="M127.833 125.698H103.708L97.4777 83.2779C97.4027 82.7665 97.1446 82.2992 96.7508 81.9614C96.357 81.6236 95.8537 81.4381 95.3333 81.4387H91.619L91.1238 73.4479L95.7147 78.7833C96.0921 79.2148 96.6263 79.48 97.2004 79.5209H97.3712C97.8875 79.5205 98.3864 79.3365 98.7777 79.0022L108.66 70.6154C108.876 70.4306 109.053 70.205 109.181 69.9518C109.308 69.6986 109.384 69.4227 109.403 69.1402C109.447 68.5714 109.263 68.0085 108.89 67.574L86.3844 41.4329C86.2003 41.2171 85.9751 41.0396 85.7217 40.9104C85.4684 40.7812 85.1918 40.703 84.908 40.6801C84.6241 40.6573 84.3385 40.6903 84.0675 40.7773C83.7965 40.8643 83.5454 41.0035 83.3288 41.187L75.0905 48.1747L70.6185 42.977C71.182 41.9992 71.4772 40.8917 71.4746 39.7651C71.472 38.6386 71.1716 37.5324 70.6036 36.5572L75.0905 31.3423L83.3238 38.3398C83.7617 38.7106 84.3299 38.8937 84.9036 38.8488C85.1882 38.8301 85.4662 38.7553 85.7213 38.6286C85.9764 38.5019 86.2035 38.326 86.3893 38.1111L108.91 11.943C109.095 11.7279 109.235 11.4788 109.322 11.2099C109.409 10.9411 109.443 10.6578 109.42 10.3762C109.397 10.0946 109.318 9.8203 109.188 9.56895C109.058 9.3176 108.88 9.09414 108.663 8.91136L98.7827 0.514829C98.3442 0.146777 97.7779 -0.0359462 97.2053 0.00587358C96.9207 0.0245338 96.6427 0.0993817 96.3876 0.226037C96.1325 0.352693 95.9054 0.52861 95.7196 0.74349L75.2985 24.4702L66.3446 17.3571C65.9602 17.0525 65.4831 16.8865 64.9913 16.8865C64.4996 16.8865 64.0224 17.0525 63.6381 17.3571L54.6916 24.48L34.273 0.753323C34.0868 0.538863 33.8596 0.363232 33.6046 0.236613C33.3495 0.109995 33.0717 0.034907 32.7872 0.0157068C32.2149 -0.0240087 31.6494 0.158463 31.2099 0.524662L21.3274 8.91136C20.8899 9.28087 20.618 9.80778 20.5716 10.3763C20.5251 10.9447 20.7079 11.5083 21.0798 11.943L43.6156 38.1013C43.7997 38.3171 44.0249 38.4946 44.2783 38.6238C44.5316 38.753 44.8082 38.8312 45.092 38.8541C45.3759 38.8769 45.6615 38.8439 45.9325 38.7569C46.2035 38.6699 46.4545 38.5307 46.6712 38.3472L54.9095 31.3595L59.3815 36.5572C58.8039 37.5311 58.5003 38.6411 58.5024 39.7712C58.5046 40.9014 58.8125 42.0103 59.3939 42.9819L54.9095 48.1944L46.6762 41.1944C46.2377 40.8256 45.67 40.6445 45.0972 40.6905C44.5245 40.7366 43.9935 41.0062 43.6206 41.4403L21.0872 67.6084C20.9027 67.8237 20.7628 68.073 20.6753 68.3421C20.5879 68.6111 20.5548 68.8946 20.5778 69.1764C20.6008 69.4582 20.6795 69.7327 20.8094 69.9843C20.9393 70.2358 21.1178 70.4595 21.3349 70.6425L31.2173 79.0145C31.6112 79.3458 32.1101 79.5286 32.6263 79.5308C32.6832 79.5308 32.7402 79.5308 32.7947 79.5308C33.0792 79.5116 33.357 79.4365 33.612 79.3099C33.867 79.1833 34.0942 79.0076 34.2804 78.7932L38.7078 73.6495L38.3463 81.4486H34.6667C34.1459 81.448 33.6424 81.6339 33.2485 81.9722C32.8546 82.3104 32.5968 82.7784 32.5223 83.2902L26.2922 125.698H2.16667C1.59203 125.698 1.04093 125.925 0.634601 126.328C0.228272 126.732 0 127.279 0 127.85C0 128.42 0.228272 128.967 0.634601 129.371C1.04093 129.774 1.59203 130.001 2.16667 130.001H127.833C128.408 130.001 128.959 129.774 129.365 129.371C129.772 128.967 130 128.42 130 127.85C130 127.279 129.772 126.732 129.365 126.328C128.959 125.925 128.408 125.698 127.833 125.698ZM84.5 45.8635L92.9463 55.6763L91.2996 57.0728C90.8809 57.4488 90.6263 57.9721 90.5899 58.5315C90.5535 59.0909 90.7382 59.6423 91.1047 60.0687C91.4712 60.495 91.9907 60.7627 92.5528 60.8148C93.1149 60.867 93.6753 60.6994 94.115 60.3478L95.7642 58.9488L104.208 68.7616L97.6139 74.3429L94.801 71.0728L96.4451 69.6762C96.8825 69.3058 97.1538 68.7781 97.1993 68.2091C97.2448 67.6401 97.0608 67.0764 96.6878 66.6422C96.3148 66.2079 95.7833 65.9385 95.2103 65.8933C94.6372 65.8481 94.0696 66.0308 93.6322 66.4012L91.9905 67.8101L83.5442 57.9973L85.1909 56.6007C85.6279 56.23 85.8987 55.7021 85.9438 55.1331C85.9888 54.5641 85.8044 54.0006 85.4311 53.5667C85.0577 53.1327 84.526 52.8638 83.953 52.819C83.3799 52.7743 82.8125 52.9575 82.3754 53.3282L80.7312 54.7272L77.9133 51.4546L84.5 45.8635ZM63.2493 41.0296C62.9603 40.6279 62.8203 40.1392 62.8532 39.6466C62.886 39.1539 63.0897 38.6878 63.4295 38.3274C63.7694 37.967 64.2244 37.7346 64.7173 37.6696C65.2102 37.6047 65.7105 37.7113 66.1332 37.9712C66.556 38.2312 66.875 38.6284 67.0361 39.0955C67.1971 39.5626 67.1904 40.0707 67.0168 40.5333C66.8433 40.996 66.5138 41.3847 66.0843 41.6334C65.6548 41.8821 65.1517 41.9755 64.6608 41.8976C64.379 41.8539 64.109 41.7545 63.8666 41.6055C63.6242 41.4564 63.4143 41.2606 63.2493 41.0296ZM97.6189 5.18394L104.208 10.7751L95.7617 20.5903L94.115 19.1913C93.678 18.8199 93.1103 18.6361 92.5368 18.6804C91.9633 18.7247 91.431 18.9933 91.057 19.4273C90.683 19.8613 90.4979 20.425 90.5425 20.9945C90.587 21.5639 90.8576 22.0925 91.2947 22.4638L92.9438 23.8629L84.4975 33.6732L77.9109 28.0869L80.7263 24.8144L82.3705 26.2134C82.5867 26.3971 82.8373 26.5367 83.1079 26.6243C83.3785 26.7119 83.6638 26.7457 83.9475 26.7237C84.2313 26.7018 84.5079 26.6246 84.7616 26.4966C85.0153 26.3685 85.2411 26.1921 85.4261 25.9774C85.6111 25.7626 85.7517 25.5138 85.8399 25.2452C85.9281 24.9765 85.9622 24.6932 85.9401 24.4114C85.918 24.1297 85.8403 23.855 85.7113 23.6031C85.5823 23.3512 85.4046 23.127 85.1884 22.9433L83.5417 21.5443L91.9905 11.7266L93.6371 13.1256C93.8512 13.323 94.1034 13.4754 94.3783 13.5735C94.6532 13.6717 94.9453 13.7136 95.237 13.6968C95.5287 13.68 95.8139 13.6048 96.0756 13.4757C96.3372 13.3466 96.5699 13.1663 96.7595 12.9456C96.9492 12.7249 97.0919 12.4685 97.1792 12.1916C97.2665 11.9147 97.2964 11.6232 97.2673 11.3345C97.2382 11.0458 97.1505 10.766 97.0097 10.5118C96.8688 10.2577 96.6776 10.0344 96.4476 9.85551L94.8059 8.44912L97.6189 5.18394ZM65 21.8024L72.4905 27.755L67.3251 33.7543C65.8306 33.1851 64.1768 33.1851 62.6823 33.7543L57.5095 27.7452L65 21.8024ZM45.5025 33.6707L42.687 30.4006L44.3337 29.004C44.7597 28.6302 45.0206 28.1052 45.0603 27.5421C45.0999 26.9791 44.9151 26.4231 44.5458 25.994C44.1764 25.565 43.652 25.2973 43.0856 25.2486C42.5193 25.2 41.9564 25.3743 41.5183 25.7339L39.8741 27.1354L31.4303 17.3227L33.077 15.9236C33.3041 15.7435 33.4924 15.5198 33.6307 15.266C33.7689 15.0121 33.8543 14.7331 33.8818 14.4458C33.9093 14.1584 33.8782 13.8685 33.7905 13.5934C33.7027 13.3182 33.5602 13.0633 33.3712 12.844C33.1822 12.6247 32.9507 12.4454 32.6905 12.3167C32.4303 12.1881 32.1467 12.1127 31.8565 12.0952C31.5664 12.0777 31.2756 12.1183 31.0016 12.2146C30.7276 12.311 30.4759 12.4611 30.2615 12.656L28.6149 14.055L25.797 10.7825L32.3861 5.19132L40.8324 15.0041L39.1857 16.4031C38.9641 16.585 38.7812 16.8089 38.6476 17.0617C38.514 17.3146 38.4325 17.5913 38.4077 17.8757C38.3829 18.1602 38.4154 18.4467 38.5032 18.7185C38.5911 18.9904 38.7326 19.2421 38.9194 19.4591C39.1063 19.6762 39.3347 19.8541 39.5915 19.9825C39.8483 20.111 40.1283 20.1874 40.4151 20.2073C40.7019 20.2272 40.9899 20.1903 41.2622 20.0986C41.5345 20.0069 41.7857 19.8623 42.0011 19.6732L43.6478 18.2742L52.0941 28.0894L45.5025 33.6707ZM32.3886 74.3429L25.7994 68.7542L28.6124 65.4915L30.2615 66.888C30.6986 67.2587 31.266 67.4419 31.8391 67.3972C32.4121 67.3524 32.9438 67.0835 33.3171 66.6495C33.6905 66.2156 33.8749 65.6521 33.8299 65.0831C33.7848 64.5141 33.514 63.9862 33.077 63.6155L31.4303 62.2189L39.8741 52.4062L41.5232 53.8052C41.7391 53.9926 41.9902 54.1356 42.2621 54.2259C42.534 54.3162 42.8213 54.3521 43.1073 54.3314C43.3932 54.3106 43.6722 54.2338 43.928 54.1052C44.1838 53.9766 44.4114 53.7989 44.5976 53.5823C44.7837 53.3658 44.9247 53.1147 45.0124 52.8437C45.1001 52.5726 45.1327 52.2869 45.1084 52.0033C45.0841 51.7196 45.0033 51.4435 44.8708 51.1911C44.7382 50.9386 44.5565 50.7148 44.3362 50.5326L42.6895 49.1361L45.505 45.866L52.0941 51.4546L43.6478 61.2674L42.0011 59.8708C41.5641 59.5001 40.9966 59.317 40.4236 59.3617C39.8505 59.4064 39.3189 59.6754 38.9455 60.1093C38.5722 60.5433 38.3877 61.1068 38.4328 61.6758C38.4778 62.2448 38.7487 62.7727 39.1857 63.1434L40.8324 64.54L32.3886 74.3429ZM80.179 122.799L68.2438 112.178L80.1691 101.544L80.179 122.799ZM65.0124 109.276L53.0871 98.6424H76.9352L65.0124 109.276ZM49.8457 101.534L61.7686 112.165L49.8457 122.799V101.534ZM65.0124 115.057L76.9352 125.688H53.0771L65.0124 115.057ZM84.5124 125.688V96.4984C84.5117 95.928 84.2832 95.3812 83.8771 94.9779C83.4709 94.5746 82.9201 94.3477 82.3457 94.347H47.6667C47.092 94.347 46.5409 94.5737 46.1346 94.9772C45.7283 95.3806 45.5 95.9278 45.5 96.4984V125.701H30.6726L36.5411 85.7415H40.409C40.9666 85.7421 41.5029 85.5289 41.9061 85.1464C42.3093 84.7639 42.5483 84.2416 42.5731 83.6885L43.2838 68.3141L62.6971 45.7553C64.1765 46.3652 65.8381 46.3723 67.3227 45.775L86.4587 68.0117L87.4318 83.7204C87.4653 84.2671 87.7076 84.7804 88.1094 85.1556C88.5111 85.5307 89.042 85.7394 89.5935 85.7391H93.4613L99.3299 125.698L84.5124 125.688ZM65 59.9249C61.5534 59.9288 58.2491 61.2901 55.812 63.71C53.3748 66.1299 52.0039 69.4109 52 72.8332V79.2874C51.9997 79.57 52.0555 79.8499 52.1643 80.111C52.273 80.3722 52.4326 80.6095 52.6339 80.8093C52.8351 81.0092 53.0741 81.1676 53.3371 81.2756C53.6002 81.3836 53.882 81.4391 54.1667 81.4387H75.8333C76.4078 81.4381 76.9585 81.2112 77.3647 80.8079C77.7709 80.4046 77.9993 79.8577 78 79.2874V72.8332C77.9948 69.4113 76.6234 66.1311 74.1866 63.7114C71.7498 61.2918 68.4462 59.9301 65 59.9249ZM73.6667 77.136H56.3333V72.8332C56.3333 70.5509 57.2464 68.362 58.8717 66.7482C60.4971 65.1343 62.7015 64.2277 65 64.2277C67.2985 64.2277 69.5029 65.1343 71.1283 66.7482C72.7536 68.362 73.6667 70.5509 73.6667 72.8332V77.136Z" fill="#141B4E"/>
</svg>
